<svg xmlns="http://www.w3.org/2000/svg" xmlns:xlink="http://www.w3.org/1999/xlink" width="268" height="229" viewBox="0 0 268 229" fill="none"><defs><rect id="path_0" x="0" y="0" width="268" height="229" /><path id="path_1"
        transform="translate(0 0) rotate(0 87 86.01893714465021)"
        d="M160,134.5ZM87,0C38.95,0 0,38.95 0,87C0,135.05 31,170 87,172C87,172 96.94,172.85 94.5,166.5C92.06,160.15 75,157 75,157L160,134.5C163.15,129.79 165.2,125.6 167.4,120.3C171.65,110.04 174,98.8 174,87C174,38.95 135.05,0 87,0Z" /></defs><g opacity="1" transform="translate(0 0)  rotate(0 134 114.5)"><mask id="bg-mask-0" fill="white"><use xlink:href="#path_0"></use></mask><g mask="url(#bg-mask-0)" ><g opacity="1" transform="translate(24 8)  rotate(0 110.23431067517046 100.8407999759088)"><path id="圆形 10" fill-rule="evenodd" style="fill:#C4C4C4" transform="translate(65.28860458837292 127)  rotate(0 73.5 37.340799975908794)" opacity="1" d="M73.5,0C32.91,0 0,16.72 0,37.34C0,57.96 32.91,74.68 73.5,74.68C114.09,74.68 147,57.96 147,37.34C147,16.72 114.09,0 73.5,0Z " /><path id="圆形 5" fill-rule="evenodd" style="fill:#FFFFFF" transform="translate(23.28860458837292 15)  rotate(0 87 86.06005111121641)" opacity="1" d="M95 167C97.44 173.35 87 172 87 172C31 170 0 135.05 0 87C0 38.95 38.95 0 87 0C135.05 0 174 38.95 174 87C174 98.8 171.65 110.04 167.4 120.3C165.2 125.6 163.15 129.79 160 134.5L95 167Z" /><g opacity="1" transform="translate(179.70452740337535 162.75199151804236)  rotate(20.608928883548288 3.5 7.5)"><text><tspan x="0" y="17.619999999999997" font-size="20" line-height="20" fill="#43CF7C" opacity="1" font-family="MiSans-Bold" letter-spacing="0" >5</tspan></text></g><g opacity="1" transform="translate(203.39671331117341 173.82034062707513)  rotate(20.608928883548288 7 10)"><text><tspan x="0" y="17.619999999999997" font-size="20" line-height="20" fill="#43CF7C" opacity="1" font-family="MiSans-Bold" letter-spacing="0" >0</tspan></text></g><g opacity="1" transform="translate(190.07190803916728 168.82395956644734)  rotate(20.608928883548288 7 10)"><text><tspan x="0" y="17.619999999999997" font-size="20" line-height="20" fill="#43CF7C" opacity="1" font-family="MiSans-Bold" letter-spacing="0" >0</tspan></text></g><path id="圆形 3"  style="fill:#000000" transform="translate(211.53359920614028 193.1675711855221)  rotate(100.64911577093093 1 1)" opacity="100" d="M1.5 2Q1.5 1.38211 1.05895 0.941053Q0.617893 0.5 0 0.5Q-0.0492457 0.5 -0.0975451 0.490392Q-0.145845 0.480785 -0.191342 0.46194Q-0.236839 0.443094 -0.277785 0.415735Q-0.318731 0.388375 -0.353553 0.353553Q-0.388375 0.318731 -0.415735 0.277785Q-0.443094 0.236839 -0.46194 0.191342Q-0.480785 0.145845 -0.490393 0.0975451Q-0.5 0.0492457 -0.5 0Q-0.5 -0.0492457 -0.490393 -0.0975451Q-0.480785 -0.145845 -0.46194 -0.191342Q-0.443094 -0.236839 -0.415735 -0.277785Q-0.388375 -0.318731 -0.353553 -0.353553Q-0.318731 -0.388375 -0.277785 -0.415735Q-0.236839 -0.443094 -0.191342 -0.46194Q-0.145845 -0.480785 -0.0975451 -0.490393Q-0.0492457 -0.5 0 -0.5Q0.506902 -0.5 0.972069 -0.30238Q1.42004 -0.112065 1.76605 0.233946Q2.11207 0.579958 2.30238 1.02793Q2.5 1.4931 2.5 2Q2.5 2.04925 2.49039 2.09754Q2.48078 2.14584 2.46194 2.19134Q2.44309 2.23684 2.41573 2.27778Q2.38838 2.31873 2.35355 2.35355Q2.31873 2.38838 2.27779 2.41573Q2.23684 2.44309 2.19134 2.46194Q2.14584 2.48078 2.09754 2.49039Q2.04925 2.5 2 2.5Q1.95075 2.5 1.90245 2.49039Q1.85416 2.48078 1.80866 2.46194Q1.76316 2.44309 1.72221 2.41573Q1.68127 2.38838 1.64645 2.35355Q1.61162 2.31873 1.58426 2.27779Q1.55691 2.23684 1.53806 2.19134Q1.51921 2.14584 1.50961 2.09754Q1.5 2.04925 1.5 2Z " /><path  id="圆形 3" style="stroke:#43CF7C; stroke-width:1; stroke-opacity:1; stroke-dasharray:0 0" transform="translate(211.53359920614028 193.1675711855221)  rotate(100.64911577093093 1 1)" d="" /><path id="圆形 3"  style="fill:#000000" transform="translate(213.1435992061404 193.73757118552203)  rotate(77.25478309276403 2 3.5)" opacity="100" d="M-0.493821 -0.0783637Q-0.501539 -0.0297278 -0.49962 0.0194792Q-0.497702 0.0686863 -0.486221 0.116574Q-0.47474 0.164461 -0.454137 0.209188Q-0.433534 0.253916 -0.404602 0.293764Q-0.375669 0.333613 -0.339519 0.367052Q-0.303368 0.400491 -0.261389 0.426235Q-0.219409 0.451979 -0.173214 0.469038Q-0.127019 0.486098 -0.0783838 0.493818L-0.0783637 0.493821Q0.94234 0.655842 1.74531 1.27804Q2.50862 1.86952 2.96796 2.78645Q3.42328 3.69535 3.49201 4.74365Q3.56269 5.82163 3.20807 6.83482L4.15193 7.16518Q4.57388 5.95959 4.48987 4.67822Q4.40791 3.4282 3.86204 2.33855Q3.30086 1.21833 2.35782 0.487582Q1.35224 -0.291618 0.0783838 -0.493818L0 0L0.0783637 -0.493821Q0.0297266 -0.501539 -0.0194818 -0.49962Q-0.0686901 -0.497701 -0.116578 -0.486219Q-0.164467 -0.474738 -0.209195 -0.454134Q-0.253923 -0.43353 -0.293773 -0.404596Q-0.333622 -0.375661 -0.367061 -0.339509Q-0.400499 -0.303357 -0.426243 -0.261376Q-0.451986 -0.219394 -0.469044 -0.173198Q-0.486103 -0.127001 -0.493821 -0.0783637ZM4.14788 7.16521Q4.11502 7.25908 4.04874 7.33323Q3.98245 7.40738 3.89284 7.45052Q3.80322 7.49366 3.70392 7.49922Q3.60462 7.50478 3.51075 7.47192Q3.41688 7.43905 3.34273 7.37277Q3.26859 7.30648 3.22545 7.21687Q3.18231 7.12726 3.17675 7.02796Q3.17119 6.92866 3.20405 6.83479L4.14788 7.16521Z " /><path  id="圆形 3" style="stroke:#43CF7C; stroke-width:1; stroke-opacity:1; stroke-dasharray:0 0" transform="translate(213.1435992061404 193.73757118552203)  rotate(77.25478309276403 2 3.5)" d="" /><path id="路径 2" fill-rule="evenodd" style="fill:#FFFFFF" transform="translate(177.78860458837292 147.32693877551014)  rotate(0 9.815679012345553 8.086530612244921)" opacity="1" d="M0,16.17C0,16.17 21.5,9.67 19.5,3.17C17.5,-3.33 5.5,2.17 5.5,2.17L0,16.17Z " /><path id="路径 2"  style="fill:#050B1E" transform="translate(177.78860458837292 147.32693877551014)  rotate(0 9.815679012345553 8.086530612244921)" opacity="1" d="M5.08335 1.26094Q5.87241 0.899282 7.06911 0.470734Q9.46301 -0.386542 11.5795 -0.75285Q14.6474 -1.28384 16.7414 -0.690564Q18.0804 -0.311154 18.9964 0.52044Q20.0158 1.44592 20.4558 2.87591Q21.9599 7.76438 10.9295 13.0106Q7.6812 14.5555 3.6654 15.9942Q1.65725 16.7137 0.289389 17.1272L-0.289389 15.2128Q1.03022 14.8138 2.99085 14.1114Q6.91254 12.7064 10.0705 11.2044Q14.4291 9.13144 16.6369 7.19212Q19.0414 5.08005 18.5442 3.46409Q17.5531 0.242983 11.9205 1.21785Q9.97449 1.55467 7.74339 2.35364Q6.6276 2.75322 5.91665 3.07906L5.08335 1.26094ZM5.91665 3.08213Q5.82712 3.12316 5.7313 3.14594Q5.63548 3.16872 5.53705 3.17237Q5.43863 3.17602 5.34139 3.1604Q5.24414 3.14478 5.15181 3.11049Q5.05948 3.07619 4.97562 3.02455Q4.89176 2.9729 4.81958 2.90588Q4.7474 2.83887 4.68969 2.75906Q4.63197 2.67925 4.59093 2.58972Q4.5499 2.50018 4.52712 2.40436Q4.50434 2.30854 4.50069 2.21012Q4.49704 2.11169 4.51266 2.01445Q4.52828 1.9172 4.56257 1.82487Q4.59687 1.73255 4.64851 1.64868Q4.70016 1.56482 4.76718 1.49264Q4.83419 1.42046 4.914 1.36275Q4.99381 1.30503 5.08335 1.264L5.91665 3.08213ZM-0.472222 17.0545Q-0.296885 17.1485 -0.0989483 17.1682Q0.0989882 17.1878 0.28939 17.1303L-0.28939 15.2158Q-0.47979 15.2734 -0.633669 15.3995Q-0.787548 15.5255 -0.881479 15.7008Q-0.97541 15.8762 -0.995093 16.0741Q-1.01477 16.272 -0.957211 16.4625Q-0.899648 16.6529 -0.773604 16.8067Q-0.647559 16.9606 -0.472222 17.0545Z " /><path  id="路径 2" style="stroke:#050B1E; stroke-width:2; stroke-opacity:1; stroke-dasharray:0 0" transform="translate(177.78860458837292 147.32693877551014)  rotate(0 9.815679012345553 8.086530612244921)" d="" /><g opacity="1" transform="translate(23.28860458837292 15)  rotate(0 87 86.01893714465021)"><mask id="mask-1" fill="white"><use xlink:href="#path_1"></use></mask><g mask="url(#mask-1)"><path id="圆形 5" fill-rule="evenodd" style="fill:#FFFFFF" transform="translate(0 0)  rotate(0 87 86.01893714465021)" opacity="0.31" d="M0 87C0 38.95 38.95 0 87 0C135.05 0 174 38.95 174 87C174 98.8 171.65 110.04 167.4 120.3C165.2 125.6 163.15 129.79 160 134.5L75 157C75 157 92.06 160.15 94.5 166.5C96.94 172.85 87 172 87 172C31 170 0 135.05 0 87Z" /></g><g mask="url(#mask-1)"><path  id="圆形 6" style="stroke:#C4C4C4; stroke-width:2; stroke-opacity:1; stroke-dasharray:0 0" transform="translate(87 -3)  rotate(0 13.5 11)" d="M13.5,0C6.04,0 0,4.92 0,11C0,17.08 6.04,22 13.5,22C20.96,22 27,17.08 27,11C27,4.92 20.96,0 13.5,0Z " /></g><g mask="url(#mask-1)"><path id="圆形 7" fill-rule="evenodd" style="fill:#C4C4C4" transform="translate(-7 40)  rotate(0 18.340799975908794 18.340799975908794)" opacity="1" d="M18.34,0C8.21,0 0,8.21 0,18.34C0,28.47 8.21,36.68 18.34,36.68C28.47,36.68 36.68,28.47 36.68,18.34C36.68,8.21 28.47,0 18.34,0Z " /></g><g mask="url(#mask-1)"><path id="圆形 7" fill-rule="evenodd" style="fill:#C4C4C4" transform="translate(113 16)  rotate(0 8 8)" opacity="1" d="M8,0C3.58,0 0,3.58 0,8C0,12.42 3.58,16 8,16C12.42,16 16,12.42 16,8C16,3.58 12.42,0 8,0Z " /></g><g mask="url(#mask-1)"><path id="圆形 7" fill-rule="evenodd" style="fill:#C4C4C4" transform="translate(165 73)  rotate(0 6.5 6.5)" opacity="1" d="M6.5,0C2.91,0 0,2.91 0,6.5C0,10.09 2.91,13 6.5,13C10.09,13 13,10.09 13,6.5C13,2.91 10.09,0 6.5,0Z " /></g><g mask="url(#mask-1)"><path  id="圆形 8" style="stroke:#C4C4C4; stroke-width:2; stroke-opacity:1; stroke-dasharray:0 0" transform="translate(27.750788366450678 35.09232551962944)  rotate(31.224281685535747 3.30930012871231 4.3020901673260035)" d="M3.31,0C1.48,0 0,1.93 0,4.3C0,6.68 1.48,8.6 3.31,8.6C5.14,8.6 6.62,6.68 6.62,4.3C6.62,1.93 5.14,0 3.31,0Z " /></g><g mask="url(#mask-1)"><path  id="圆形 8" style="stroke:#C4C4C4; stroke-width:2; stroke-opacity:1; stroke-dasharray:0 0" transform="translate(43.61 88.58)  rotate(31.224281685535747 4.247225204182732 4.3020901673260035)" d="M4.25,0C1.9,0 0,1.93 0,4.3C0,6.68 1.9,8.6 4.25,8.6C6.59,8.6 8.49,6.68 8.49,4.3C8.49,1.93 6.59,0 4.25,0Z " /></g></g><path id="路径 4"  style="fill:#050B1E" transform="translate(183.78860458837292 76.5)  rotate(0 6.830070803831737 36)" opacity="1" d="M9.05012 0.312618Q9.01933 0.219063 9.00738 0.121299Q8.99544 0.0235351 9.00279 -0.0746812Q9.01015 -0.172898 9.03652 -0.267792Q9.0629 -0.362686 9.10728 -0.450611Q9.15166 -0.538536 9.21234 -0.616114Q9.27302 -0.693691 9.34767 -0.75794Q9.42233 -0.822188 9.50808 -0.870638Q9.59383 -0.919088 9.68738 -0.949879Q9.78094 -0.980669 9.8787 -0.992616Q9.97646 -1.00456 10.0747 -0.997207Q10.1729 -0.989852 10.2678 -0.963477Q10.3627 -0.937101 10.4506 -0.89272Q10.5385 -0.848339 10.6161 -0.787657Q10.6937 -0.726975 10.7579 -0.652324Q10.8222 -0.577674 10.8706 -0.491924Q10.9191 -0.406173 10.9499 -0.312618Q11.1613 0.329641 11.4787 1.49867Q12.1082 3.81659 12.6517 6.47973Q13.4114 10.2026 13.8928 14.089Q14.4944 18.9464 14.6246 23.7856Q14.9564 36.1146 12.2372 47.2758Q8.83266 61.2502 0.816271 72.5777Q0.759376 72.6581 0.68789 72.7258Q0.616403 72.7936 0.533073 72.8461Q0.449743 72.8986 0.357771 72.9338Q0.265798 72.969 0.168719 72.9857Q0.0716398 73.0023 -0.0268162 72.9996Q-0.125272 72.997 -0.221321 72.9752Q-0.31737 72.9534 -0.407321 72.9133Q-0.497271 72.8732 -0.577667 72.8163Q-0.658063 72.7594 -0.725814 72.6879Q-0.793565 72.6164 -0.846067 72.5331Q-0.89857 72.4497 -0.933807 72.3578Q-0.969045 72.2658 -0.985662 72.1687Q-1.00228 72.0716 -0.999637 71.9732Q-0.996996 71.8747 -0.975198 71.7787Q-0.953399 71.6826 -0.913282 71.5927Q-0.873164 71.5027 -0.816269 71.4223Q6.97978 60.4062 10.294 46.8024Q12.9499 35.901 12.6254 23.8394Q12.4977 19.0965 11.908 14.3348Q11.4362 10.5259 10.6921 6.87965Q10.1613 4.2791 9.54862 2.02281Q9.24499 0.90472 9.05012 0.312618Z " /><path  id="路径 4" style="stroke:#050B1E; stroke-width:2; stroke-opacity:1; stroke-dasharray:0 0" transform="translate(183.78860458837292 76.5)  rotate(0 6.830070803831737 36)" d="" /><path id="路径 5"  style="fill:#050B1E" transform="translate(90.78860458837292 15.403354878424125)  rotate(0 49.99999999999999 27.048322560787934)" opacity="1" d="M99.055 54.4271Q98.9732 54.1908 98.7962 53.7351Q98.4364 52.8086 97.9656 51.7321Q96.4526 48.2724 94.402 44.6296Q91.5285 39.5249 87.9928 34.7912Q83.5744 28.8759 78.3703 23.8842Q72.2238 17.9885 65.1672 13.5655Q57.1045 8.51183 48.0041 5.47837Q37.8252 2.08541 26.4757 1.26438Q13.9699 0.359712 0.159232 2.58724L0.158705 2.58397Q-0.0375491 2.61552 -0.230949 2.56961Q-0.424349 2.5237 -0.585491 2.40732Q-0.746745 2.29086 -0.851156 2.12156Q-0.955568 1.95225 -0.987241 1.75588Q-1.01891 1.5595 -0.973027 1.36596Q-0.927141 1.17241 -0.810679 1.01115Q-0.694218 0.8499 -0.524912 0.745489Q-0.355607 0.641077 -0.159232 0.609404L-0.158705 0.612672Q13.8819 -1.65188 26.62 -0.730403Q38.2197 0.108723 48.6365 3.581Q57.9639 6.69012 66.2293 11.8708Q73.46 16.403 79.7547 22.4408Q85.078 27.5469 89.5951 33.5943Q93.208 38.4313 96.1449 43.6485Q98.2447 47.3789 99.798 50.9308Q100.286 52.0455 100.661 53.011Q100.85 53.4988 100.944 53.7699L100.945 53.7695Q101.01 53.9575 100.998 54.1561Q100.986 54.3546 100.899 54.5335Q100.813 54.7125 100.664 54.8445Q100.515 54.9766 100.327 55.0416Q100.139 55.1067 99.9406 55.0949Q99.742 55.0831 99.5631 54.9962Q99.3849 54.9096 99.2532 54.7617Q99.1215 54.6137 99.0561 54.4268L99.055 54.4271Z " /><path  id="路径 5" style="stroke:#050B1E; stroke-width:2; stroke-opacity:1; stroke-dasharray:0 0" transform="translate(90.78860458837292 15.403354878424125)  rotate(0 49.99999999999999 27.048322560787934)" d="" /><path id="路径 6"  style="fill:#050B1E" transform="translate(43.28860458837292 159.5)  rotate(0 37.38165221464492 13.992277647786963)" opacity="1" d="M-0.780869 0.624695Q-0.842396 0.547786 -0.887737 0.460352Q-0.933077 0.372917 -0.960489 0.278317Q-0.987901 0.183717 -0.996331 0.0855875Q-1.00476 -0.0125425 -0.993884 -0.110432Q-0.983007 -0.208321 -0.953242 -0.302207Q-0.923478 -0.396093 -0.875968 -0.482368Q-0.828459 -0.568644 -0.765032 -0.643993Q-0.701604 -0.719342 -0.624695 -0.780869Q-0.547786 -0.842396 -0.460352 -0.887737Q-0.372917 -0.933077 -0.278317 -0.960489Q-0.183717 -0.987901 -0.0855875 -0.996331Q0.0125425 -1.00476 0.110432 -0.993884Q0.208321 -0.983007 0.302207 -0.953242Q0.396093 -0.923478 0.482368 -0.875968Q0.568644 -0.828459 0.643993 -0.765032Q0.719342 -0.701604 0.780869 -0.624695Q4.32417 3.80444 9.45436 7.79042Q14.2179 11.4915 20.1989 14.6967Q25.7355 17.6638 32.058 20.0713Q37.9269 22.3062 44.0649 23.9074Q49.8304 25.4114 55.248 26.2079Q60.4495 26.9726 64.62 26.9844Q68.7049 26.9959 71.1202 26.2884Q72.2488 25.9578 72.8887 25.4994Q73.4138 25.1231 73.5455 24.7017Q73.8711 23.6598 73.7094 22.7189Q73.5581 21.8389 72.9738 21.0037Q71.8508 19.3984 69.1558 17.9592Q66.9213 16.7659 63.5459 15.671Q62.2517 15.2512 60.6752 14.8089Q59.7487 14.5489 58.074 14.1055Q56.3525 13.6498 55.7127 13.4578Q55.6183 13.4295 55.5313 13.3834Q55.4443 13.3372 55.368 13.275Q55.2916 13.2127 55.2289 13.1368Q55.1662 13.0608 55.1195 12.9741Q55.0728 12.8874 55.044 12.7932Q55.0151 12.6991 55.0051 12.6011Q54.9952 12.5031 55.0045 12.405Q55.0139 12.307 55.0422 12.2127Q55.0993 12.0221 55.225 11.868Q55.3508 11.7138 55.5259 11.6195Q55.701 11.5252 55.8989 11.5051Q56.0968 11.485 56.2873 11.5422Q56.896 11.7248 58.5858 12.1721Q60.2748 12.6193 61.2155 12.8832Q62.8307 13.3364 64.1631 13.7686Q67.707 14.9182 70.0979 16.195Q73.2152 17.8597 74.6126 19.8573Q75.4534 21.0592 75.6805 22.3801Q75.9239 23.7961 75.4545 25.2983Q74.8337 27.2846 71.6825 28.2077Q68.9891 28.9967 64.6144 28.9844Q60.3004 28.9722 54.9571 28.1866Q49.4313 27.3742 43.5601 25.8426Q37.3168 24.2139 31.3463 21.9404Q24.9039 19.4872 19.2542 16.4595Q13.1243 13.1745 8.22728 9.36974Q2.91026 5.2386 -0.780869 0.624695Z " /><path  id="路径 6" style="stroke:#050B1E; stroke-width:2; stroke-opacity:1; stroke-dasharray:0 0" transform="translate(43.28860458837292 159.5)  rotate(0 37.38165221464492 13.992277647786963)" d="" /><path id="路径 7"  style="fill:#050B1E" transform="translate(22.78976621427958 25.5)  rotate(0 23.74941918704666 63.50000000000005)" opacity="1" d="M47.1948 -0.952661Q47.3843 -1.01314 47.5825 -0.996495Q47.7807 -0.979851 47.9575 -0.888622Q48.1342 -0.797392 48.2626 -0.645464Q48.391 -0.493537 48.4515 -0.304041Q48.4814 -0.210278 48.4925 -0.112481Q48.5036 -0.0146836 48.4954 0.0833955Q48.4872 0.181475 48.46 0.276072Q48.4328 0.370669 48.3877 0.458153Q48.3426 0.545638 48.2813 0.622653Q48.2201 0.699668 48.1449 0.763258Q48.0698 0.826847 47.9837 0.874572Q47.8977 0.922296 47.8039 0.952323L47.804 0.952659Q43.429 2.34895 38.2748 5.81516Q32.865 9.45335 27.5974 14.7153Q21.9297 20.3769 17.1895 27.1764Q12.0224 34.5882 8.41402 42.7182Q4.47097 51.6022 2.6113 60.8658Q0.584976 70.9595 1.10806 81.1597Q1.67544 92.2236 5.23418 103.166Q9.07528 114.977 16.345 126.465L16.3442 126.466Q16.3968 126.549 16.4321 126.641Q16.4675 126.733 16.4842 126.83Q16.501 126.927 16.4985 127.025Q16.496 127.124 16.4744 127.22Q16.4528 127.316 16.4128 127.406Q16.3729 127.496 16.3162 127.576Q16.2594 127.657 16.1881 127.725Q16.1168 127.792 16.0336 127.845Q15.8655 127.951 15.6695 127.985Q15.4735 128.019 15.2794 127.976Q15.0854 127.932 14.9228 127.817Q14.7602 127.703 14.6538 127.535L14.6547 127.534Q7.2508 115.834 3.33223 103.785Q-0.308379 92.5903 -0.889313 81.2622Q-1.42524 70.8116 0.65042 60.4721Q2.55348 50.9924 6.58598 41.9068Q10.2721 33.6017 15.5488 26.0326Q20.3905 19.0874 26.1839 13.3003Q31.5883 7.90168 37.1587 4.15555Q42.5488 0.530695 47.1949 -0.952325L47.1948 -0.952661Z " /><path  id="路径 7" style="stroke:#050B1E; stroke-width:2; stroke-opacity:1; stroke-dasharray:0 0" transform="translate(22.78976621427958 25.5)  rotate(0 23.74941918704666 63.50000000000005)" d="" /><path id="路径 3" fill-rule="evenodd" style="fill:#43CF7C" transform="translate(69.28860458837292 3)  rotate(0 19 44.5)" opacity="1" d="M18.6,53.49L15.73,89L38,38.57L18.6,35.6L18.6,0L0,51.62L18.6,53.49Z " /><path  id="路径 3" style="stroke:#2FAD61; stroke-width:3; stroke-opacity:1; stroke-dasharray:0 0" transform="translate(65.28860458837292 0)  rotate(0 19 44.5)" d="M18.6,53.49L15.73,89L38,38.57L18.6,35.6L18.6,0L0,51.62L18.6,53.49Z " /><path id="圆形 6"  style="fill:#DCDDDD" transform="translate(-0.43916656442908675 75.52840004818245)  rotate(-28.434680751481153 110 26.94738907641626)" opacity="1" d="M198.817 0.918656Q198.635 0.840281 198.497 0.698266Q198.358 0.556251 198.284 0.372108Q198.21 0.187479 198.213 -0.0114209Q198.215 -0.210321 198.293 -0.393211Q198.332 -0.483769 198.387 -0.565031Q198.443 -0.646294 198.513 -0.715138Q198.584 -0.783982 198.666 -0.837762Q198.749 -0.891542 198.84 -0.928191Q198.932 -0.96484 199.029 -0.98295Q199.125 -1.00106 199.224 -0.999935Q199.322 -0.99881 199.419 -0.978494Q199.515 -0.958177 199.606 -0.919449L199.605 -0.918559Q209.753 3.41865 215.195 8.52987Q218.02 11.1835 219.477 13.9751Q221 16.8913 221 19.89Q221 23.6679 218.599 27.2949Q216.322 30.7345 211.945 33.9327Q207.709 37.0287 201.629 39.8101Q195.64 42.5502 188.077 44.8879Q180.53 47.2204 171.706 49.0628Q162.807 50.921 152.946 52.21Q142.909 53.5221 132.232 54.1973Q121.279 54.89 110 54.89Q98.7213 54.89 87.7684 54.1973Q77.0915 53.5222 67.054 52.21Q57.1935 50.921 48.2941 49.0628Q39.4702 47.2204 31.9235 44.8879Q24.3598 42.5502 18.3706 39.8101Q12.2911 37.0287 8.05451 33.9327Q3.67808 30.7345 1.40102 27.2949Q-1 23.668 -1 19.89Q-1 16.8913 0.52262 13.9751Q1.98018 11.1836 4.80536 8.52987Q10.2469 3.41862 20.3947 -0.918562L20.3943 -0.919448Q20.5772 -0.997662 20.7761 -0.999935Q20.975 -1.00221 21.1596 -0.928191Q21.3443 -0.854174 21.4865 -0.715138Q21.6288 -0.576101 21.707 -0.393212Q21.7457 -0.302771 21.766 -0.206528Q21.7863 -0.110284 21.7875 -0.0119267Q21.7886 0.0864305 21.7706 0.183131Q21.7526 0.279832 21.7161 0.37117Q21.6796 0.462507 21.626 0.544981Q21.5724 0.627454 21.5037 0.697902Q21.4351 0.76835 21.354 0.824072Q21.273 0.879794 21.1826 0.918654L21.183 0.919543Q16.3128 3.00092 12.5403 5.27871Q8.75393 7.56491 6.17464 9.98763Q3.59632 12.4094 2.29551 14.9008Q1 17.382 1 19.89Q1 23.0659 3.0687 26.1908Q5.14775 29.3314 9.23455 32.3179Q13.3075 35.2943 19.2027 37.9914Q25.0741 40.6776 32.514 42.9771Q39.9709 45.2818 48.7029 47.1051Q57.528 48.9477 67.3132 50.2269Q77.2845 51.5304 87.8947 52.2013Q98.7843 52.89 110 52.89Q121.216 52.89 132.105 52.2013Q142.716 51.5303 152.687 50.2269Q162.472 48.9477 171.297 47.1051Q180.029 45.2818 187.486 42.9771Q194.926 40.6776 200.797 37.9914Q206.693 35.2943 210.765 32.3179Q214.852 29.3314 216.931 26.1908Q219 23.0659 219 19.89Q219 17.382 217.704 14.9008Q216.404 12.4094 213.825 9.98763Q211.246 7.56486 207.46 5.27871Q203.687 3.00092 198.817 0.919544L198.817 0.918656Z " /><path  id="圆形 6" style="stroke:#DCDDDD; stroke-width:2; stroke-opacity:1; stroke-dasharray:0 0" transform="translate(-0.43916656442908675 75.52840004818245)  rotate(-28.434680751481153 110 26.94738907641626)" d="" /><path id="圆形 1" fill-rule="evenodd" style="fill:#FFFFFF" transform="translate(93.80083343557092 100.31840004818241)  rotate(0 45 41.5)" opacity="1" d="M45,0C20.15,0 0,18.58 0,41.5C0,47.34 0,57.68 4.49,65.18L26.46,79.28L24.49,82.18C29.99,83 39.12,83 45,83C69.85,83 90,64.42 90,41.5C90,18.58 69.85,0 45,0Z " /><path id="圆形 2" fill-rule="evenodd" style="fill:#050B1E" transform="translate(126.80083343557092 142.3184000481824)  rotate(10.868197746202394 3 4.5)" opacity="1" d="M3,9C4.66,9 6,6.99 6,4.5C6,2.01 4.66,0 3,0C1.34,0 0,2.01 0,4.5C0,6.99 1.34,9 3,9Z " /><path id="圆形 3"  style="fill:#050B1E" transform="translate(125.80083343557092 141.3184000481824)  rotate(14.665827031030862 3.5 3.5)" opacity="1" d="M-0.0299783 7.17065Q-0.50399 5.86517 -0.501874 4.48798Q-0.499868 3.18163 -0.0749385 2.06251Q0.358539 0.920881 1.12835 0.245416Q1.97789 -0.5 3.03 -0.5Q4.04681 -0.5 4.90703 0.0267094Q5.7317 0.531652 6.32281 1.46811Q6.89666 2.37721 7.19734 3.61098Q7.5 4.85283 7.5 6.32L6.5 6.32Q6.5 4.97293 6.22578 3.84777Q5.96379 2.77278 5.47719 2.00189Q5.01058 1.26268 4.38484 0.879541Q3.76498 0.5 3.03 0.5Q2.35441 0.5 1.7879 0.997084Q1.2051 1.50845 0.859938 2.41749Q0.49985 3.36584 0.498124 4.48952Q0.49628 5.68999 0.909978 6.82935L-0.0299783 7.17065ZM7 6.82302Q7.04924 6.82302 7.09754 6.81342Q7.14584 6.80381 7.19134 6.78496Q7.23684 6.76612 7.27778 6.73876Q7.31873 6.7114 7.35355 6.67658Q7.38837 6.64175 7.41573 6.60081Q7.44309 6.55986 7.46194 6.51437Q7.48078 6.46887 7.49039 6.42057Q7.5 6.37227 7.5 6.32302L6.5 6.32302Q6.5 6.37227 6.50961 6.42057Q6.51921 6.46887 6.53806 6.51436Q6.5569 6.55986 6.58426 6.60081Q6.61162 6.64175 6.64645 6.67658Q6.68127 6.7114 6.72221 6.73876Q6.76316 6.76612 6.80866 6.78496Q6.85415 6.80381 6.90245 6.81342Q6.95075 6.82302 7 6.82302ZM0.914328 6.82879Q0.948383 6.92223 0.944088 7.0216Q0.939792 7.12096 0.897798 7.21112Q0.855805 7.30127 0.782506 7.36849Q0.709208 7.43572 0.615764 7.46977Q0.522321 7.50383 0.422957 7.49953Q0.323594 7.49524 0.233438 7.45324Q0.143282 7.41125 0.0760594 7.33795Q0.00883643 7.26465 -0.0252194 7.17121L0.914328 6.82879Z " /><path  id="圆形 3" style="stroke:#050B1E; stroke-width:1; stroke-opacity:1; stroke-dasharray:0 0" transform="translate(125.80083343557092 141.3184000481824)  rotate(14.665827031030862 3.5 3.5)" d="" /><path id="圆形 2" fill-rule="evenodd" style="fill:#050B1E" transform="translate(159.80083343557092 137.3184000481824)  rotate(10.868197746202394 3 4.5)" opacity="1" d="M3,9C4.66,9 6,6.99 6,4.5C6,2.01 4.66,0 3,0C1.34,0 0,2.01 0,4.5C0,6.99 1.34,9 3,9Z " /><path id="圆形 3"  style="fill:#050B1E" transform="translate(158.80083343557092 136.3184000481824)  rotate(14.665827031030862 3.5 3.5)" opacity="1" d="M-0.0299783 7.17065Q-0.50399 5.86517 -0.501874 4.48798Q-0.499868 3.18163 -0.0749385 2.06251Q0.358539 0.920881 1.12835 0.245416Q1.97789 -0.5 3.03 -0.5Q4.04681 -0.5 4.90703 0.0267094Q5.7317 0.531652 6.32281 1.46811Q6.89666 2.37721 7.19734 3.61098Q7.5 4.85283 7.5 6.32L6.5 6.32Q6.5 4.97293 6.22578 3.84777Q5.96379 2.77278 5.47719 2.00189Q5.01058 1.26268 4.38484 0.879541Q3.76498 0.5 3.03 0.5Q2.35441 0.5 1.7879 0.997084Q1.2051 1.50845 0.859938 2.41749Q0.49985 3.36584 0.498124 4.48952Q0.49628 5.68999 0.909978 6.82935L-0.0299783 7.17065ZM7 6.82302Q7.04924 6.82302 7.09754 6.81342Q7.14584 6.80381 7.19134 6.78496Q7.23684 6.76612 7.27778 6.73876Q7.31873 6.7114 7.35355 6.67658Q7.38837 6.64175 7.41573 6.60081Q7.44309 6.55986 7.46194 6.51437Q7.48078 6.46887 7.49039 6.42057Q7.5 6.37227 7.5 6.32302L6.5 6.32302Q6.5 6.37227 6.50961 6.42057Q6.51921 6.46887 6.53806 6.51436Q6.5569 6.55986 6.58426 6.60081Q6.61162 6.64175 6.64645 6.67658Q6.68127 6.7114 6.72221 6.73876Q6.76316 6.76612 6.80866 6.78496Q6.85415 6.80381 6.90245 6.81342Q6.95075 6.82302 7 6.82302ZM0.914328 6.82879Q0.948383 6.92223 0.944088 7.0216Q0.939792 7.12096 0.897798 7.21112Q0.855805 7.30127 0.782506 7.36849Q0.709208 7.43572 0.615764 7.46977Q0.522321 7.50383 0.422957 7.49953Q0.323594 7.49524 0.233438 7.45324Q0.143282 7.41125 0.0760594 7.33795Q0.00883643 7.26465 -0.0252194 7.17121L0.914328 6.82879Z " /><path  id="圆形 3" style="stroke:#050B1E; stroke-width:1; stroke-opacity:1; stroke-dasharray:0 0" transform="translate(158.80083343557092 136.3184000481824)  rotate(14.665827031030862 3.5 3.5)" d="" /><path id="路径 1" fill-rule="evenodd" style="fill:#DCDDDD" transform="translate(97.66175589111393 106.30785690085213)  rotate(-11.548920472510176 5.819062829007266 6.642680441595304)" opacity="1" d="M1.24,0.16C-1.11,1.41 0.61,13.29 0.61,13.29L5.81,8.92L11.64,5.3C11.64,5.3 3.59,-1.09 1.24,0.16Z " /><path id="路径 1"  style="fill:#050B1E" transform="translate(88.39571863157838 96.40327659306172)  rotate(-1.3565648852255663 13.6377573021775 16.097670656384523)" opacity="1" d="M26.781 10.0666Q25.4947 9.32592 23.4783 8.26287Q19.4438 6.13581 15.8244 4.54139Q10.7935 2.3252 7.32619 1.4855Q5.33134 1.0024 3.94398 1.00006Q2.59396 0.997784 1.93885 1.43927Q1.37975 1.81605 1.14332 3.12427Q0.883797 4.56022 1.08537 6.89865Q1.43665 10.9739 3.14905 17.4273Q4.37997 22.0661 6.17304 27.4264Q7.06942 30.106 7.7175 31.852L7.71506 31.8529Q7.78267 32.0384 7.7747 32.2357Q7.76673 32.433 7.68437 32.6125Q7.6014 32.7932 7.45556 32.9285Q7.30973 33.0638 7.12323 33.1329Q6.93673 33.2021 6.73796 33.1946Q6.53918 33.1872 6.3584 33.1042Q6.17762 33.0212 6.04235 32.8754Q5.90708 32.7296 5.83791 32.5431L5.84034 32.5422Q5.18156 30.7669 4.27634 28.0608Q2.46315 22.6404 1.21595 17.9402Q-0.541028 11.3189 -0.907243 7.07041Q-1.13169 4.46662 -0.8248 2.76858Q-0.438188 0.629416 0.821146 -0.219263Q1.98448 -1.00325 3.94735 -0.999938Q5.57172 -0.997199 7.79693 -0.458311Q11.4371 0.423237 16.6306 2.71111Q20.3143 4.33386 24.4111 6.49369Q26.4561 7.57185 27.7734 8.3302L27.7743 8.32864Q27.8597 8.37777 27.9338 8.44261Q28.008 8.50745 28.068 8.5855Q28.1281 8.66356 28.1718 8.75184Q28.2155 8.84011 28.2411 8.93521Q28.2667 9.03031 28.2733 9.12859Q28.2799 9.22686 28.2671 9.32452Q28.2544 9.42219 28.2229 9.5155Q28.1913 9.6088 28.1422 9.69417Q28.0933 9.7792 28.0287 9.8531Q27.9642 9.92701 27.8865 9.98695Q27.8089 10.0469 27.721 10.0906Q27.6332 10.1343 27.5385 10.1601Q27.4439 10.1859 27.346 10.1929Q27.2482 10.1998 27.1508 10.1875Q27.0535 10.1753 26.9603 10.1444Q26.8672 10.1135 26.7819 10.065L26.781 10.0666Z " /><path  id="路径 1" style="stroke:#050B1E; stroke-width:2; stroke-opacity:1; stroke-dasharray:0 0" transform="translate(88.39571863157838 96.40327659306172)  rotate(-1.3565648852255663 13.6377573021775 16.097670656384523)" d="" /><path id="路径 1" fill-rule="evenodd" style="fill:#FFFFFF" transform="translate(149.63980867848684 87.30123724779537)  rotate(-299.598871701096 15.238445392334402 14.75551713585095)" opacity="1" d="M0.98,0.51C-2.77,4.17 5.48,29.51 5.48,29.51C5.48,29.51 11.57,22.85 16.65,19.7C21.73,16.54 30.48,14.01 30.48,14.01C30.48,14.01 4.73,-3.14 0.98,0.51Z " /><path id="路径 1" fill-rule="evenodd" style="fill:#DCDDDD" transform="translate(156.06222977568726 98.66542266427587)  rotate(-299.598871701096 7.022959509069274 6.606255508483886)" opacity="1" d="M1.01,0.27C-1.06,1.89 0.69,13.21 0.69,13.21C0.69,13.21 4.52,9.77 7.02,8.27C9.51,6.77 14.05,4.84 14.05,4.84C14.05,4.84 3.09,-1.35 1.01,0.27Z " /><path id="路径 1"  style="fill:#050B1E" transform="translate(149.92468667704296 88.62187135664385)  rotate(-299.598871701096 14.711683986061399 14.17810343624035)" opacity="1" d="M28.8752 13.6986Q27.351 12.7083 25.0005 11.2756Q20.2989 8.40993 16.1909 6.21307Q10.4741 3.15583 6.77446 1.86971Q4.65246 1.13203 3.30615 1.01785Q2.66482 0.96345 2.24617 1.05417Q1.93604 1.12138 1.79844 1.25566Q1.36021 1.68338 1.15313 2.94615Q0.933645 4.28448 1.03529 6.3772Q1.21154 10.0062 2.33193 15.6144Q3.13737 19.6461 4.33829 24.263Q4.9382 26.5693 5.37891 28.0763L5.38304 28.0751Q5.41073 28.1696 5.41944 28.2677Q5.42816 28.3658 5.41757 28.4637Q5.40698 28.5616 5.37749 28.6556Q5.34801 28.7496 5.30075 28.836Q5.2535 28.9224 5.19029 28.9979Q5.12708 29.0735 5.05036 29.1352Q4.97363 29.197 4.88633 29.2426Q4.79903 29.2882 4.70451 29.3159Q4.61013 29.3435 4.51218 29.3523Q4.41423 29.361 4.31646 29.3505Q4.21868 29.34 4.12483 29.3106Q4.03097 29.2812 3.94463 29.2342Q3.8583 29.1871 3.78278 29.1241Q3.70727 29.0611 3.64547 28.9846Q3.58368 28.9081 3.53797 28.821Q3.49226 28.734 3.46438 28.6397L3.46025 28.6409L3.46021 28.6407Q3.01077 27.1041 2.4027 24.7665Q1.18734 20.0941 0.370688 16.0062Q-0.778877 10.2519 -0.962358 6.47423Q-1.07428 4.16989 -0.820511 2.62248Q-0.507062 0.711146 0.401558 -0.17567Q1.40087 -1.15093 3.47518 -0.974999Q5.07184 -0.839577 7.43117 -0.019399Q11.279 1.31822 17.1341 4.44943Q21.2917 6.67283 26.0414 9.56783Q28.4165 11.0155 29.9648 12.0214L28.8752 13.6986ZM29.9681 12.0176Q30.0507 12.0713 30.1213 12.14Q30.1918 12.2088 30.2476 12.2899Q30.3034 12.3711 30.3422 12.4616Q30.3811 12.5521 30.4015 12.6485Q30.422 12.7448 30.4233 12.8433Q30.4246 12.9418 30.4066 13.0386Q30.3886 13.1354 30.3521 13.2269Q30.3156 13.3184 30.2619 13.401Q30.2083 13.4836 30.1395 13.5541Q30.0708 13.6247 29.9896 13.6804Q29.9084 13.7362 29.8179 13.7751Q29.7275 13.8139 29.6311 13.8344Q29.5348 13.8548 29.4363 13.8561Q29.3378 13.8574 29.241 13.8394Q29.1441 13.8215 29.0526 13.7849Q28.9612 13.7484 28.8786 13.6948L29.9681 12.0176Z " /><path  id="路径 1" style="stroke:#050B1E; stroke-width:2; stroke-opacity:1; stroke-dasharray:0 0" transform="translate(149.92468667704296 88.62187135664385)  rotate(-299.598871701096 14.711683986061399 14.17810343624035)" d="" /><path id="圆形 1"  style="fill:#050B1E" transform="translate(93.80083343557092 100.31840004818241)  rotate(0 45 41.5)" opacity="1" d="M3.632 65.6937Q0.595842 60.6221 -0.430153 52.8483Q-0.805725 50.0027 -0.929168 46.6458Q-1 44.7196 -1 41.5Q-1 37.147 -0.0618955 32.9196Q0.852223 28.8003 2.62777 24.9293Q4.36988 21.1312 6.87935 17.7059Q9.36294 14.3159 12.5033 11.4199Q15.6415 8.52589 19.3125 6.23875Q23.0168 3.93084 27.1217 2.32962Q31.301 0.699404 35.7463 -0.139533Q40.3057 -1 45 -1Q49.6943 -1 54.2537 -0.139529Q58.699 0.699407 62.8782 2.32962Q66.9831 3.93083 70.6875 6.23875Q74.3585 8.52593 77.4967 11.4199Q80.6371 14.3159 83.1206 17.7059Q85.6301 21.1312 87.3722 24.9293Q89.1478 28.8003 90.0619 32.9196Q91 37.1469 91 41.5Q91 45.8531 90.0619 50.0804Q89.1478 54.1997 87.3722 58.0707Q85.6301 61.8688 83.1206 65.2941Q80.6371 68.6841 77.4967 71.5801Q74.3585 74.4741 70.6875 76.7612Q66.983 79.0692 62.8782 80.6704Q58.6989 82.3006 54.2537 83.1395Q49.6942 84 45 84Q38.2934 84 34.5748 83.8971Q28.007 83.7154 24.3425 83.1691L24.6375 81.1909Q28.1827 81.7195 34.6302 81.8979Q38.3212 82 45 82Q49.5072 82 53.8828 81.1742Q58.1453 80.3698 62.1514 78.8071Q66.0831 77.2735 69.6299 75.0638Q73.1411 72.8762 76.1408 70.1099Q79.1385 67.3455 81.5073 64.1121Q83.8968 60.8505 85.5543 57.2368Q87.2413 53.559 88.1094 49.6471Q89 45.6339 89 41.5Q89 37.3661 88.1094 33.3529Q87.2413 29.441 85.5543 25.7632Q83.8968 22.1495 81.5073 18.8879Q79.1385 15.6545 76.1408 12.8901Q73.1411 10.1238 69.6299 7.93625Q66.0833 5.72658 62.1514 4.19288Q58.1454 2.63024 53.8828 1.82578Q49.5072 1 45 0.999996Q40.4928 0.999997 36.1172 1.82577Q31.8546 2.63023 27.8486 4.19288Q23.9167 5.72658 20.3701 7.93625Q16.8589 10.1238 13.8592 12.8901Q10.8615 15.6545 8.49272 18.8879Q6.10317 22.1495 4.44566 25.7632Q2.7587 29.441 1.89061 33.3529Q1 37.3662 1 41.5Q1 44.6829 1.06948 46.5723Q1.18945 49.8347 1.55265 52.5867Q2.52448 59.95 5.348 64.6663L3.632 65.6937ZM3.63201 65.6937L5.34588 64.6681Q5.39645 64.7527 5.42956 64.8454Q5.46267 64.9382 5.47705 65.0356Q5.49143 65.133 5.48653 65.2314Q5.48162 65.3298 5.45762 65.4253Q5.43362 65.5208 5.39144 65.6098Q5.34926 65.6988 5.29053 65.7779Q5.2318 65.857 5.15878 65.923Q5.08575 65.9891 5.00124 66.0397Q4.91672 66.0903 4.82396 66.1234Q4.7312 66.1565 4.63376 66.1709Q4.53633 66.1853 4.43796 66.1804Q4.33959 66.1755 4.24407 66.1515Q4.14855 66.1274 4.05954 66.0853Q3.97054 66.0431 3.89147 65.9844Q3.81241 65.9256 3.74632 65.8526Q3.68023 65.7796 3.62966 65.6951L3.63201 65.6937ZM24.3406 83.1707Q24.2432 83.1562 24.1505 83.123Q24.0577 83.0898 23.9733 83.0391Q23.8888 82.9884 23.8159 82.9222Q23.7429 82.8561 23.6843 82.7769Q23.6257 82.6978 23.5836 82.6087Q23.5415 82.5197 23.5176 82.4241Q23.4937 82.3286 23.4889 82.2302Q23.4842 82.1318 23.4987 82.0344Q23.5132 81.937 23.5464 81.8443Q23.5796 81.7516 23.6303 81.6671Q23.6809 81.5826 23.7471 81.5097Q23.8133 81.4368 23.8924 81.3781Q23.9716 81.3195 24.0606 81.2774Q24.1497 81.2354 24.2452 81.2115Q24.3408 81.1876 24.4392 81.1828Q24.5375 81.178 24.635 81.1925L24.3406 83.1707Z " /><path  id="圆形 1" style="stroke:#050B1E; stroke-width:2; stroke-opacity:1; stroke-dasharray:0 0" transform="translate(93.80083343557092 100.31840004818241)  rotate(0 45 41.5)" d="" /><path id="并集" fill-rule="evenodd" style="fill:#050B1E" transform="translate(144.3514562355049 150.0735706961393)  rotate(-1.215510865485058 3.5 3)" opacity="1" d="M0 2C0 0.9 1.57 0 3.5 0C5.43 0 7 0.9 7 2C7 3.00327 5.69399 3.84016 4 3.9796L4 5.5C4 5.63 3.95 5.76 3.85 5.85C3.76 5.95 3.63 6 3.5 6C3.37 6 3.24 5.95 3.15 5.85C3.05 5.76 3 5.63 3 5.5L3 3.9796C1.30601 3.84016 0 3.00327 0 2Z " /><path id="矩形 1" fill-rule="evenodd" style="fill:#43CF7C" transform="translate(172.39329159238062 148.74479042987218)  rotate(-41.2694987708701 1 3.5)" opacity="1" d="M0,1L0,6C0,6.27 0.11,6.52 0.29,6.71C0.48,6.89 0.73,7 1,7L1,7C1.27,7 1.52,6.89 1.71,6.71C1.89,6.52 2,6.27 2,6L2,1C2,0.73 1.89,0.48 1.71,0.29C1.52,0.11 1.27,0 1,0L1,0C0.73,0 0.48,0.11 0.29,0.29C0.11,0.48 0,0.73 0,1Z " /><path id="矩形 1" fill-rule="evenodd" style="fill:#43CF7C" transform="translate(176.39329159238062 147.74479042987218)  rotate(-42.894116442121 1 3.5)" opacity="1" d="M0,1L0,6C0,6.27 0.11,6.52 0.29,6.71C0.48,6.89 0.73,7 1,7L1,7C1.27,7 1.52,6.89 1.71,6.71C1.89,6.52 2,6.27 2,6L2,1C2,0.73 1.89,0.48 1.71,0.29C1.52,0.11 1.27,0 1,0L1,0C0.73,0 0.48,0.11 0.29,0.29C0.11,0.48 0,0.73 0,1Z " /><path id="矩形 1" fill-rule="evenodd" style="fill:#43CF7C" transform="translate(167.39329159238062 151.16760574018576)  rotate(-29.611510026233475 1 2.5)" opacity="1" d="M0,1L0,4C0,4.27 0.11,4.52 0.29,4.71C0.48,4.89 0.73,5 1,5L1,5C1.27,5 1.52,4.89 1.71,4.71C1.89,4.52 2,4.27 2,4L2,1C2,0.73 1.89,0.48 1.71,0.29C1.52,0.11 1.27,0 1,0L1,0C0.73,0 0.48,0.11 0.29,0.29C0.11,0.48 0,0.73 0,1Z " /><path id="矩形 1" fill-rule="evenodd" style="fill:#43CF7C" transform="translate(120.40347713320264 156.74479042987218)  rotate(41.2694987708701 1 3.5)" opacity="1" d="M1,7L1,7C1.27,7 1.52,6.89 1.71,6.71C1.89,6.52 2,6.27 2,6L2,1C2,0.73 1.89,0.48 1.71,0.29C1.52,0.11 1.27,0 1,0L1,0C0.73,0 0.48,0.11 0.29,0.29C0.11,0.48 0,0.73 0,1L0,6C0,6.27 0.11,6.52 0.29,6.71C0.48,6.89 0.73,7 1,7Z " /><path id="矩形 1" fill-rule="evenodd" style="fill:#43CF7C" transform="translate(116.40347713320264 155.74479042987218)  rotate(42.894116442121 1 3.5)" opacity="1" d="M1,7L1,7C1.27,7 1.52,6.89 1.71,6.71C1.89,6.52 2,6.27 2,6L2,1C2,0.73 1.89,0.48 1.71,0.29C1.52,0.11 1.27,0 1,0L1,0C0.73,0 0.48,0.11 0.29,0.29C0.11,0.48 0,0.73 0,1L0,6C0,6.27 0.11,6.52 0.29,6.71C0.48,6.89 0.73,7 1,7Z " /><path id="矩形 1" fill-rule="evenodd" style="fill:#43CF7C" transform="translate(125.40347713320264 159.16760574018576)  rotate(29.611510026233475 1 2.5)" opacity="1" d="M1,5L1,5C1.27,5 1.52,4.89 1.71,4.71C1.89,4.52 2,4.27 2,4L2,1C2,0.73 1.89,0.48 1.71,0.29C1.52,0.11 1.27,0 1,0L1,0C0.73,0 0.48,0.11 0.29,0.29C0.11,0.48 0,0.73 0,1L0,4C0,4.27 0.11,4.52 0.29,4.71C0.48,4.89 0.73,5 1,5Z " /></g></g></g></svg>