<svg xmlns="http://www.w3.org/2000/svg" xmlns:xlink="http://www.w3.org/1999/xlink" width="268" height="229" viewBox="0 0 268 229" fill="none"><defs><rect id="path_0" x="0" y="0" width="268" height="229" /><path id="path_1"
        transform="translate(0 0) rotate(0 78.5 97.5)"
        d="M125.788 0L157 36.479L157 187C157 191.42 153.42 195 149 195L8 195C3.58 195 0 191.42 0 187L0 8C0 3.58 3.58 0 8 0L125.788 0Z" /></defs><g opacity="1" transform="translate(0 0)  rotate(0 134 114.5)"><mask id="bg-mask-0" fill="white"><use xlink:href="#path_0"></use></mask><g mask="url(#bg-mask-0)" ><g opacity="1" transform="translate(27 17)  rotate(0 106.75611442359892 97.5)"><path id="矩形 1" fill-rule="evenodd" style="fill:#2FAD61" transform="translate(48.56675806033519 167.56470080293633)  rotate(-30.17166766103692 0.5 2.7177793089222773)" opacity="1" d="M0,0.5L0,4.94C0,5.07 0.05,5.2 0.15,5.29C0.24,5.39 0.37,5.44 0.5,5.44L0.5,5.44C0.63,5.44 0.76,5.39 0.85,5.29C0.95,5.2 1,5.07 1,4.94L1,0.5C1,0.37 0.95,0.24 0.85,0.15C0.76,0.05 0.63,0 0.5,0L0.5,0C0.37,0 0.24,0.05 0.15,0.15C0.05,0.24 0,0.37 0,0.5Z " /><path id="矩形 1" fill-rule="evenodd" style="fill:#2FAD61" transform="translate(47.333633807687704 170.071661086122)  rotate(-54.35437730841516 0.5 5.589517598651103)" opacity="1" d="M0,0.5L0,10.68C0,10.81 0.05,10.94 0.15,11.03C0.24,11.13 0.37,11.18 0.5,11.18L0.5,11.18C0.63,11.18 0.76,11.13 0.85,11.03C0.95,10.94 1,10.81 1,10.68L1,0.5C1,0.37 0.95,0.24 0.85,0.15C0.76,0.05 0.63,0 0.5,0L0.5,0C0.37,0 0.24,0.05 0.15,0.15C0.05,0.24 0,0.37 0,0.5Z " /><path  id="圆形 6" style="stroke:#2FAD61; stroke-width:1; stroke-opacity:1; stroke-dasharray:0 0" transform="translate(34.99999999999983 161.68159995181753)  rotate(0 3.8407999759087943 3.8407999759087943)" d="M3.84,0C1.72,0 0,1.72 0,3.84C0,5.96 1.72,7.68 3.84,7.68C5.96,7.68 7.68,5.96 7.68,3.84C7.68,1.72 5.96,0 3.84,0Z " /><path id="矩形 7" fill-rule="evenodd" style="fill:#DCDDDD" transform="translate(27.261003702586834 20.98746140864762)  rotate(-24.435099367834823 51.256114423599 77)" opacity="1" d="M6,154L96.51,154C99.82,154 102.51,151.31 102.51,148L102.51,6C102.51,2.69 99.82,0 96.51,0L6,0C2.69,0 0,2.69 0,6L0,148C0,151.31 2.69,154 6,154Z " /><path id="矩形 4" fill-rule="evenodd" style="fill:#B5B5B6" transform="translate(14.724729659214802 45.02453011386558)  rotate(-24.435099367834823 42 5)" opacity="1" d="M5,10L79,10C80.33,10 81.6,9.47 82.54,8.54C83.47,7.6 84,6.33 84,5L84,5C84,3.67 83.47,2.4 82.54,1.46C81.6,0.53 80.33,0 79,0L5,0C3.67,0 2.4,0.53 1.46,1.46C0.53,2.4 0,3.67 0,5L0,5C0,6.33 0.53,7.6 1.46,8.54C2.4,9.47 3.67,10 5,10Z " /><path id="矩形 4" fill-rule="evenodd" style="fill:#B5B5B6" transform="translate(21.873649728523844 61.37236004657893)  rotate(-24.435099367834823 42 5)" opacity="1" d="M5,10L79,10C80.33,10 81.6,9.47 82.54,8.54C83.47,7.6 84,6.33 84,5L84,5C84,3.67 83.47,2.4 82.54,1.46C81.6,0.53 80.33,0 79,0L5,0C3.67,0 2.4,0.53 1.46,1.46C0.53,2.4 0,3.67 0,5L0,5C0,6.33 0.53,7.6 1.46,8.54C2.4,9.47 3.67,10 5,10Z " /><path id="矩形 4" fill-rule="evenodd" style="fill:#B5B5B6" transform="translate(29.251685740091318 77.61608909381937)  rotate(-24.435099367834823 42 5)" opacity="1" d="M5,10L79,10C80.33,10 81.6,9.47 82.54,8.54C83.47,7.6 84,6.33 84,5L84,5C84,3.67 83.47,2.4 82.54,1.46C81.6,0.53 80.33,0 79,0L5,0C3.67,0 2.4,0.53 1.46,1.46C0.53,2.4 0,3.67 0,5L0,5C0,6.33 0.53,7.6 1.46,8.54C2.4,9.47 3.67,10 5,10Z " /><g opacity="1" transform="translate(56.51222884719783 0)  rotate(0 78.5 97.5)"><g opacity="1" transform="translate(0 0)  rotate(0 78.5 97.5)"><mask id="mask-1" fill="white"><use xlink:href="#path_1"></use></mask><g mask="url(#mask-1)"><path id="减去顶层" fill-rule="evenodd" style="fill:#EFEFEF" transform="translate(0 0)  rotate(0 78.5 97.5)" opacity="1" d="M125.788 0L157 36.479L157 187C157 191.42 153.42 195 149 195L8 195C3.58 195 0 191.42 0 187L0 8C0 3.58 3.58 0 8 0L125.788 0Z " /></g><g mask="url(#mask-1)"><path id="矩形 3" fill-rule="evenodd" style="fill:#DCDDDD" transform="translate(108.38246022664771 13.633600826837323)  rotate(-130.45721081563096 24.254527570964132 11.9751100968462)" opacity="1" d="M0,23.95L24.25,23.95L48.51,23.95L26.51,5.19C24.89,3.81 22.8,3.13 20.68,3.3C18.57,3.47 16.61,4.47 15.23,6.09L0,23.95Z " /></g></g><path id="三角形 1" fill-rule="evenodd" style="fill:#FFFFFF" transform="translate(12.487771152801997 134.6815999518176)  rotate(-74.36619755593298 4.313123487635837 3.8973531244655097)" opacity="1" d="M0,7.79L8.63,7.79L4.75,0.79C4.66,0.63 4.5,0.54 4.31,0.54C4.13,0.54 3.97,0.63 3.88,0.79L0,7.79Z " /><path  id="三角形 1" style="stroke:#050B1E; stroke-width:2; stroke-opacity:1; stroke-dasharray:0 0" transform="translate(12.487771152801997 134.6815999518176)  rotate(-74.36619755593298 4.313123487635837 3.8973531244655097)" d="M0,7.79L8.63,7.79L4.75,0.79C4.66,0.63 4.5,0.54 4.31,0.54C4.13,0.54 3.97,0.63 3.88,0.79L0,7.79Z " /><path id="三角形 1" fill-rule="evenodd" style="fill:#FFFFFF" transform="translate(50.487771152802 79.68159995181759)  rotate(-16.85469950867079 3.953559319071803 4.353491667064486)" opacity="1" d="M0,8.71L7.91,8.71L4.41,1C4.33,0.82 4.15,0.71 3.96,0.71C3.76,0.71 3.58,0.82 3.5,1L0,8.71Z " /><path id="三角形 1" fill-rule="evenodd" style="fill:#FFFFFF" transform="translate(111.45893871566568 89.68209989200636)  rotate(-318.9731028125811 4.669832001543694 4.728577049723736)" opacity="1" d="M0,9.46L9.34,9.46L5.12,0.91C5.04,0.74 4.86,0.63 4.67,0.63C4.48,0.63 4.3,0.74 4.22,0.91L0,9.46Z " /><path id="三角形 1" fill-rule="evenodd" style="fill:#FFFFFF" transform="translate(129.487771152802 146.6815999518176)  rotate(-271.38334966121465 3.702717354905816 3.117854207906439)" opacity="1" d="M0,6.24L7.41,6.24L4.13,0.72C4.04,0.57 3.88,0.48 3.7,0.48C3.52,0.48 3.36,0.57 3.27,0.72L0,6.24Z " /><path  id="三角形 1" style="stroke:#050B1E; stroke-width:2; stroke-opacity:1; stroke-dasharray:0 0" transform="translate(129.487771152802 146.6815999518176)  rotate(-271.38334966121465 3.702717354905816 3.117854207906439)" d="M0,6.24L7.41,6.24L4.13,0.72C4.04,0.57 3.88,0.48 3.7,0.48C3.52,0.48 3.36,0.57 3.27,0.72L0,6.24Z " /><path  id="三角形 1" style="stroke:#050B1E; stroke-width:2; stroke-opacity:1; stroke-dasharray:0 0" transform="translate(111.45893871566568 89.68209989200636)  rotate(-318.9731028125811 4.669832001543694 4.728577049723736)" d="M0,9.46L9.34,9.46L5.12,0.91C5.04,0.74 4.86,0.63 4.67,0.63C4.48,0.63 4.3,0.74 4.22,0.91L0,9.46Z " /><path  id="三角形 1" style="stroke:#050B1E; stroke-width:2; stroke-opacity:1; stroke-dasharray:0 0" transform="translate(50.487771152802 79.68159995181759)  rotate(-16.85469950867079 3.953559319071803 4.353491667064486)" d="M0,8.71L7.91,8.71L4.41,1C4.33,0.82 4.15,0.71 3.96,0.71C3.76,0.71 3.58,0.82 3.5,1L0,8.71Z " /><path id="并集" fill-rule="evenodd" style="fill:#FFFFFF" transform="translate(18.987771152801997 85.68159995181759)  rotate(0 55.99999999999994 55)" opacity="1" d="M21 22.5C21 10.07 29.57 0 42 0C54.43 0 63 10.07 63 22.5C63 22.6672 62.999 22.8339 62.997 23L63.2039 23C65.8005 14.091 72.4727 7 82 7C94.43 7 103 15.57 103 28C103 36.1862 97.9817 41.397 91.0045 44.0009C91.1693 44.0003 91.3345 44 91.5 44C103.93 44 112 49.07 112 61.5C112 73.93 101.93 82 89.5 82C86.6551 82 84.0124 81.3939 81.6283 80.3102C81.7506 81.2055 81.8875 82.0289 82.04 82.77C85 97.16 85 110 85 110L27 110C27 110 30.47 85.34 35.67 79.18C36.1269 78.6389 36.4904 77.7606 36.7733 76.6084C32.8185 79.8333 27.6091 81 22 81C9.57 81 0 71 0 58.5C0 46.07 9.57 37 22 37C24.0139 37 25.9658 37.2381 27.823 37.69C23.6701 33.7826 21 28.4713 21 22.5Z " /><path  id="并集" style="stroke:#050B1E; stroke-width:2; stroke-opacity:1; stroke-dasharray:0 0" transform="translate(19.487771152802054 85.68159995181759)  rotate(0 55.99999999999994 56)" d="M21 22.5C21 10.07 29.57 0 42 0C54.43 0 63 10.07 63 22.5C63 22.6672 62.999 22.8339 62.997 23L63.2039 23C65.8005 14.091 72.4727 7 82 7C94.43 7 103 15.57 103 28C103 36.1862 97.9817 41.397 91.0045 44.0009C91.1693 44.0003 91.3345 44 91.5 44C103.93 44 112 49.07 112 61.5C112 73.93 101.93 82 89.5 82C86.5874 82 83.8868 81.3648 81.4587 80.232C81.6202 81.7015 81.8126 83.0193 82.04 84.15C85 98.86 85 112 85 112L27 112C27 112 30.47 86.78 35.67 80.47C36.3019 79.7047 36.7551 78.2796 37.0636 76.366C33.0752 79.7751 27.7475 81 22 81C9.57 81 0 71 0 58.5C0 46.07 9.57 37 22 37C24.0139 37 25.9658 37.2381 27.823 37.69C23.6701 33.7826 21 28.4713 21 22.5Z null " /></g><path id="矩形 4" fill-rule="evenodd" style="fill:#B5B5B6" transform="translate(76.51222884719783 25)  rotate(0 49 6)" opacity="1" d="M6,12L92,12C93.59,12 95.12,11.37 96.24,10.24C97.37,9.12 98,7.59 98,6L98,6C98,4.41 97.37,2.88 96.24,1.76C95.12,0.63 93.59,0 92,0L6,0C4.41,0 2.88,0.63 1.76,1.76C0.63,2.88 0,4.41 0,6L0,6C0,7.59 0.63,9.12 1.76,10.24C2.88,11.37 4.41,12 6,12Z " /><path id="矩形 4" fill-rule="evenodd" style="fill:#B5B5B6" transform="translate(76.99999999999983 45)  rotate(0 49 6)" opacity="1" d="M6,12L92,12C93.59,12 95.12,11.37 96.24,10.24C97.37,9.12 98,7.59 98,6L98,6C98,4.41 97.37,2.88 96.24,1.76C95.12,0.63 93.59,0 92,0L6,0C4.41,0 2.88,0.63 1.76,1.76C0.63,2.88 0,4.41 0,6L0,6C0,7.59 0.63,9.12 1.76,10.24C2.88,11.37 4.41,12 6,12Z " /><path id="矩形 4" fill-rule="evenodd" style="fill:#B5B5B6" transform="translate(76.51222884719783 65)  rotate(0 24.5 6)" opacity="1" d="M6,12L43,12C44.59,12 46.12,11.37 47.24,10.24C48.37,9.12 49,7.59 49,6L49,6C49,4.41 48.37,2.88 47.24,1.76C46.12,0.63 44.59,0 43,0L6,0C4.41,0 2.88,0.63 1.76,1.76C0.63,2.88 0,4.41 0,6L0,6C0,7.59 0.63,9.12 1.76,10.24C2.88,11.37 4.41,12 6,12Z " /><path id="圆形 2" fill-rule="evenodd" style="fill:#DCDDDD" transform="translate(85.99999999999983 138.68159995181753)  rotate(0 5 5)" opacity="1" d="M5,0C2.24,0 0,2.24 0,5C0,7.76 2.24,10 5,10C7.76,10 10,7.76 10,5C10,2.24 7.76,0 5,0Z " /><path id="圆形 2" fill-rule="evenodd" style="fill:#DCDDDD" transform="translate(109.99999999999983 94.68159995181753)  rotate(0 5 5)" opacity="1" d="M5,0C2.24,0 0,2.24 0,5C0,7.76 2.24,10 5,10C7.76,10 10,7.76 10,5C10,2.24 7.76,0 5,0Z " /><path id="圆形 2" fill-rule="evenodd" style="fill:#DCDDDD" transform="translate(156.99999999999983 102.68159995181753)  rotate(0 5 5)" opacity="1" d="M5,0C2.24,0 0,2.24 0,5C0,7.76 2.24,10 5,10C7.76,10 10,7.76 10,5C10,2.24 7.76,0 5,0Z " /><path id="圆形 2" fill-rule="evenodd" style="fill:#DCDDDD" transform="translate(166.99999999999983 142.68159995181753)  rotate(0 5 5)" opacity="1" d="M5,0C2.24,0 0,2.24 0,5C0,7.76 2.24,10 5,10C7.76,10 10,7.76 10,5C10,2.24 7.76,0 5,0Z " /><path id="减去顶层" fill-rule="evenodd" style="fill:#2FAD61" transform="translate(109.51222884719783 124.00000000206677)  rotate(0 22 17.717288970947266)" opacity="1" d="M17.14 31.97L6.45 35.22C4.94 35.68 3.29 35.39 2.02 34.45C0.75 33.51 0 32.02 0 30.44L0 18.59C0 8.32 8.32 0 18.59 0L25.41 0C35.68 0 44 8.32 44 18.59L44 30.34C44 31.94 43.24 33.44 41.95 34.38C40.66 35.32 39 35.6 37.48 35.11L27.83 32.04C24.36 30.93 20.63 30.91 17.14 31.97Z M23.3353 23.6028C23.2608 23.6446 23.1786 23.68 23.0965 23.7154C23.0143 23.7508 22.9245 23.7797 22.8412 23.801C22.7514 23.8299 22.668 23.8512 22.5847 23.8724L22.3117 23.9169C22.2271 23.9241 22.1426 23.9313 22.0504 23.9321C21.9658 23.9392 21.8736 23.94 21.7879 23.9331C21.6881 23.9274 21.6023 23.9205 21.5154 23.8995C21.4296 23.8926 21.3427 23.8716 21.2557 23.8506C21.1688 23.8296 21.0819 23.8086 21.0014 23.78C20.9068 23.7525 20.8327 23.7162 20.7446 23.6811C20.6705 23.6449 20.5824 23.6098 20.5071 23.5594C20.4254 23.5167 20.3578 23.4727 20.2826 23.4224C20.2073 23.372 20.1321 23.3216 20.0633 23.2636L12.9871 17.4924C12.9106 17.428 12.8342 17.3635 12.7642 17.2914C12.7018 17.2257 12.6318 17.1536 12.5683 17.0739C12.5123 17.0005 12.4488 16.9208 12.3993 16.8398C12.3358 16.7601 12.2863 16.6791 12.2433 16.5905L12.1143 16.3247C12.0777 16.2285 12.0488 16.1387 12.0122 16.0424C11.9833 15.9526 11.9608 15.8552 11.9383 15.7578C11.9235 15.6668 11.9075 15.5617 11.8926 15.4707C11.8842 15.3721 11.8835 15.2799 11.8816 15.1736C11.8808 15.0814 11.8865 14.9815 11.8922 14.8817C11.9056 14.7883 11.9254 14.6873 11.9387 14.5939C11.9585 14.4929 11.986 14.3983 12.0134 14.3037C12.0409 14.2091 12.0683 14.1145 12.1034 14.0264C12.1449 13.9306 12.1876 13.8489 12.2368 13.7595C12.2796 13.6778 12.3287 13.5885 12.3856 13.5056C12.4424 13.4227 12.4928 13.3475 12.5572 13.271C12.6217 13.1946 12.6862 13.1181 12.7583 13.0481C12.8239 12.9858 12.896 12.9158 12.9758 12.8522C13.0491 12.7963 13.1289 12.7328 13.2098 12.6833C13.2896 12.6198 13.3705 12.5703 13.4591 12.5273L13.7249 12.3982C13.8212 12.3617 13.911 12.3327 14.0072 12.2962C14.097 12.2672 14.1944 12.2448 14.2919 12.2223C14.3829 12.2075 14.488 12.1914 14.579 12.1766C14.6776 12.1682 14.7698 12.1675 14.8761 12.1655C14.9683 12.1648 15.0681 12.1705 15.1679 12.1762C15.2613 12.1896 15.3624 12.2094 15.4558 12.2227C15.5568 12.2425 15.6514 12.2699 15.746 12.2974C15.8406 12.3248 15.9351 12.3523 16.0233 12.3874C16.1191 12.4289 16.2008 12.4716 16.2901 12.5208C16.3718 12.5635 16.4611 12.6127 16.544 12.6695C16.6193 12.7199 16.7022 12.7767 16.7786 12.8412L21.8415 16.9668L30.5606 8.92318L33.3126 11.9111L30.5683 8.92963C30.706 8.79727 30.8668 8.68426 31.0351 8.57769C31.2035 8.47112 31.3807 8.38509 31.5667 8.3196C31.7527 8.25411 31.94 8.20271 32.1361 8.17185C32.3321 8.14099 32.523 8.13186 32.7226 8.14327C32.9147 8.14824 33.1156 8.17374 33.2971 8.22218C33.4927 8.26941 33.6754 8.33194 33.8529 8.41621C34.0368 8.49283 34.2091 8.59883 34.3608 8.71367C34.5266 8.82731 34.673 8.96389 34.8054 9.10167C34.8689 9.18143 34.9389 9.25354 34.9884 9.33449C35.0519 9.41425 35.1078 9.48756 35.1573 9.56851C35.208 9.66356 35.2574 9.74451 35.3004 9.83311C35.3434 9.92171 35.38 10.0179 35.4154 10.1001C35.452 10.1963 35.4744 10.2938 35.5034 10.3836C35.5258 10.481 35.5483 10.5785 35.5631 10.6695C35.5792 10.7745 35.5876 10.8732 35.5883 10.9654C35.5967 11.064 35.6051 11.1627 35.5994 11.2625C35.5937 11.3623 35.5803 11.4557 35.567 11.5491C35.5548 11.6566 35.5338 11.7435 35.514 11.8446L35.4317 12.1283C35.3966 12.2165 35.3615 12.3046 35.32 12.4004C35.2772 12.4821 35.2357 12.5779 35.1789 12.6608C35.1362 12.7425 35.0793 12.8254 35.0225 12.9083C34.958 12.9847 34.9012 13.0676 34.8356 13.13C34.7711 13.2064 34.699 13.2764 34.6269 13.3464L23.9922 23.1496C23.933 23.2043 23.8597 23.2602 23.7864 23.3161C23.7131 23.372 23.6462 23.4203 23.5652 23.4697C23.4984 23.518 23.4174 23.5675 23.3353 23.6028Z " /><path  id="矩形 6" style="stroke:#43CF7C; stroke-width:3; stroke-opacity:1; stroke-dasharray:0 0" transform="translate(112.99999999999983 119.68159995181753)  rotate(0 22 18.590799975908794)" d="M6.45,35.22L17.14,31.97C20.63,30.91 24.36,30.93 27.83,32.04L37.48,35.11C39,35.6 40.66,35.32 41.95,34.38C43.24,33.44 44,31.94 44,30.34L44,18.59C44,8.32 35.68,0 25.41,0L18.59,0C8.32,0 0,8.32 0,18.59L0,30.44C0,32.02 0.75,33.51 2.02,34.45C3.29,35.39 4.94,35.68 6.45,35.22Z " /></g></g></g></svg>