<svg xmlns="http://www.w3.org/2000/svg" xmlns:xlink="http://www.w3.org/1999/xlink" width="341" height="288" viewBox="0 0 341 288" fill="none"><g opacity="1" transform="translate(0.0014092294841248076 0.005732706583103209)  rotate(0 170 143.5)"><path id="路径" fill-rule="evenodd" style="fill:#FBF7F4" transform="translate(1.70530256582424e-13 2.842170943040401e-14)  rotate(0 159.9907919962296 133.42690064690325)" opacity="1" d="M296.49,209.11C320.72,186.4 327.76,145.06 310.25,116.37C289.42,82.24 243.79,75.68 213.08,96.52C181.08,118.22 125.94,101.56 117.95,46.67C112.09,6.67 76.6,-8.97 36.06,5.02C-15.97,23 -2.08,81.76 18.24,104.85C31.52,119.95 41.34,148.93 24.54,170.76C10.4,189.2 -4.54,226.69 24.54,253.67C65.47,291.59 124.7,235.82 127.86,234C158.9,216.1 195.22,222.18 215.83,228.16C244.21,236.38 274.96,229.33 296.49,209.11Z " /><g opacity="1" transform="translate(13.55188178614071 78.75856081148333)  rotate(0 65.5 104)"><path id="路径" fill-rule="evenodd" style="fill:#774D46" transform="translate(0.04642404626633323 64.81079999999997)  rotate(0 32.08788797686682 51.4059888431822)" opacity="1" d="M0.45,61.03C-3.43,70.83 19.02,89.2 19.02,89.2C19.02,89.2 15.83,106.28 31.68,101.65C31.68,101.65 39.23,105.32 46.17,99.6C53.11,93.9 52.3,87.36 49.24,82.26C46.17,77.15 34.74,67.97 33.92,64.5C33.11,61.03 64.18,30.24 64.18,30.24L32.9,0C32.9,0 4.33,51.23 0.45,61.03Z " /><path id="路径" fill-rule="evenodd" style="fill:#9C685D" transform="translate(0.04662551844481924 92.93940000000002)  rotate(0 12.476543550787556 20.132099999999983)" opacity="1" d="M24.74,19.23C25.89,9.75 22.22,3.77 17.43,0C10.01,13.67 2.33,28.15 0.45,32.9C-0.4,35.04 0.01,37.59 1.17,40.26C9.79,39.1 22.85,34.76 24.74,19.23Z " /><path id="路径" fill-rule="evenodd" style="fill:#9C685D" transform="translate(29.1129051258405 0.08100000000000818)  rotate(0 50.80424743707975 74.0211681135259)" opacity="1" d="M3.64,48.96C-8.4,88.9 10.18,129.34 48.74,144.53C94.87,162.7 101.61,104.33 101.61,104.33L72.73,43.1L58.56,0C58.56,0 16.29,6.97 3.64,48.96Z " /><path id="路径" fill-rule="evenodd" style="fill:#C88C7C" transform="translate(57.39593392244277 13.71600000000001)  rotate(0 33.34983303877862 40.61765253697193)" opacity="1" d="M17.54,73.69C52.12,105.12 66.7,28.24 66.7,28.24L22.52,0C22.52,0 -24.65,35.33 17.54,73.69Z " /><path id="路径" fill-rule="evenodd" style="fill:#9C685D" transform="translate(30.25718709140514 107.8794000000001)  rotate(0 30.024406454297424 49.59989999999999)" opacity="1" d="M28.48,73.11C23.01,70.2 18.07,69.12 12.49,72.59C7.6,75.64 7.25,81.04 7.25,81.04C7.25,81.04 -4.45,85.71 1.87,99.2L52.72,99.2C54.19,99.2 55.41,98.04 55.48,96.57L60.05,0L17.59,10L28.48,73.11Z " /><path  id="路径" style="stroke:#3B3630; stroke-width:0.5; stroke-opacity:1; stroke-dasharray:0 0" transform="translate(30.22388031962561 153.3978)  rotate(0 0.9557598401871885 6.531299999999995)" d="M1.91,0C1.91,0 -2.1,5.58 1.5,13.06 " /><path id="路径" fill-rule="evenodd" style="fill:#774D46" transform="translate(12.24874450572582 151.0848)  rotate(0 7.39182774713709 6.77848594372958)" opacity="1" d="M1.11,10.37C5.66,18.05 14.78,9.44 14.78,9.44L4.77,0C4.77,0 -2.77,3.83 1.11,10.37Z " /><path  id="路径" style="stroke:#3B3630; stroke-width:0.5; stroke-opacity:1; stroke-dasharray:0 0" transform="translate(20.0163255090707 153.3978)  rotate(0 1.194137245464648 5.4648)" d="M0.58,10.93C0.58,10.93 -1.56,5.85 2.39,0 " /><path  id="路径" style="stroke:#3B3630; stroke-width:0.5; stroke-opacity:1; stroke-dasharray:0 0" transform="translate(37.5102 186.7837740930567)  rotate(0 10.6137 1.541012953471663)" d="M0,2.13C0,2.13 10.96,-3.25 21.23,3.08 " /><path  id="路径" style="stroke:#3B3630; stroke-width:0.5; stroke-opacity:1; stroke-dasharray:0 0" transform="translate(58.7376 180.9918)  rotate(0 0.4761000000000017 2.877300000000002)" d="M0,0L0.95,5.75 " /></g><g opacity="1" transform="translate(170.5118817861407 49.77856081148332)  rotate(0 84.5 118.5)"><path id="路径" fill-rule="evenodd" style="fill:#774D46" transform="translate(0.1512254403904285 145.1196)  rotate(0 27.037075544920263 45.470699999999994)" opacity="1" d="M26.67,62.23C21.2,59.33 12.4,55.95 6.69,60.32C-2.08,67.06 0.98,75.64 0.98,75.64C0.98,75.64 -2.71,81.76 4.23,90.94L50.2,90.94C52.41,90.94 54.17,89.1 54.07,86.89L50.15,0L16.49,1.75L26.67,62.23Z " /><g opacity="1" transform="translate(50.22 0)  rotate(0 59 118.5)"><path id="路径" fill-rule="evenodd" style="fill:#9C685D" transform="translate(0.08640000000000327 104.4660044502815)  rotate(0 34.11861476071965 65.79569777485925)" opacity="1" d="M21.26,119.67C13.81,122.68 17.89,131.59 17.89,131.59L67.56,131.59C67.98,119.55 69.74,113.84 65.11,108.22C53.44,94.05 46.33,86.67 50,58.07C54.77,21.03 39.12,6.74 31.84,2.79C24.97,-0.93 11.5,0.14 11.5,0.14L0,60.36L27.28,113.16C20.34,112.6 21.26,119.67 21.26,119.67Z " /><path id="路径" fill-rule="evenodd" style="fill:#E8C481" transform="translate(72.22319999999999 122.4954)  rotate(0 5.77169999999999 7.181999999999995)" opacity="1" d="M4.42,5.82C4.22,6.11 0,6.99 0,6.99C0,6.99 4.12,8.3 4.36,8.54C4.6,8.79 5.93,14.36 5.93,14.36C5.93,14.36 7.43,8.59 7.52,8.45C7.62,8.3 11.54,7.03 11.54,7.03C11.54,7.03 7.52,5.97 7.43,5.82C7.33,5.68 6.03,0 6.03,0C6.03,0 4.6,5.53 4.42,5.82Z " /><g opacity="1" transform="translate(26.82 0)  rotate(0 45.5 57)"><path id="路径" fill-rule="evenodd" style="fill:#9C685D" transform="translate(0.1713332806890503 0.0890681465816658)  rotate(0 45.23023335965549 56.76846595242205)" opacity="1" d="M4.05,112.48C13.17,114.93 30.1,113.72 46.13,102.42C62.5,90.87 70.81,76.02 67.8,49.62C64.13,17.36 90.46,4.71 90.46,4.71C59.43,-5.5 49.44,2.26 40.65,14.92C28.23,32.82 39.64,62.88 30.86,82.68C20.9,105.17 4.05,108.8 4.05,108.8C4.05,108.8 -5.07,110.03 4.05,112.48Z " /><path id="路径" fill-rule="evenodd" style="fill:#C88C7C" transform="translate(42.0264 0.0907038055837097)  rotate(0 24.301799999999997 21.302648097208145)" opacity="1" d="M25.6,42.61C26.12,15.52 48.6,4.71 48.6,4.71C18.98,-5.04 8.53,1.59 0,13.23C1.85,26.36 7.9,41.17 25.6,42.61Z " /></g><path  id="路径" style="stroke:#3B3630; stroke-width:0.5; stroke-opacity:1; stroke-dasharray:0 0" transform="translate(21.34439999999998 222.3271735412344)  rotate(0 5.189400000000005 0.905313229382761)" d="M0,1.81C0,1.81 4.94,-0.79 10.38,0.24 " /><path  id="路径" style="stroke:#3B3630; stroke-width:0.5; stroke-opacity:1; stroke-dasharray:0 0" transform="translate(27.369 217.6218)  rotate(0 0.747899999999995 1.223999999999992)" d="M0,0L1.5,2.45 " /><path id="路径" fill-rule="evenodd" style="fill:#C88C7C" transform="translate(38.77694413346099 157.3056)  rotate(0 6.72772793326951 18.28169999999999)" opacity="1" d="M11.31,5.24C11.55,3.44 11.73,1.69 11.87,0C7.45,1.05 -1.28,5.16 0.16,21.13C1.02,30.69 7.07,34.86 13.46,36.56C10.41,29.23 9.4,20.1 11.31,5.24Z " /><path  id="路径" style="stroke:#3B3630; stroke-width:0.5; stroke-opacity:1; stroke-dasharray:0 0" transform="translate(35.5986 109.7244)  rotate(0 2.043000000000004 1.9512000000000056)" d="M4.09,3.9L0,0 " /></g></g><path id="路径" fill-rule="evenodd" style="fill:#E8C481" transform="translate(13.60048178614094 41.51656081148327)  rotate(0 6.8454 8.5176)" opacity="1" d="M5.24,6.9C5.01,7.25 0,8.29 0,8.29C0,8.29 4.89,9.84 5.18,10.13C5.46,10.42 7.03,17.04 7.03,17.04C7.03,17.04 8.81,10.19 8.92,10.02C9.03,9.84 13.69,8.34 13.69,8.34C13.69,8.34 8.92,7.08 8.81,6.91C8.69,6.73 7.15,0 7.15,0C7.15,0 5.47,6.56 5.24,6.9Z " /><path id="路径" fill-rule="evenodd" style="fill:#E8C481" transform="translate(39.44128178614092 60.60916081148327)  rotate(0 9.10619999999999 11.92860000000001)" opacity="1" d="M6.61,9.67C6.46,9.9 0,11.93 0,11.93C0,11.93 6.3,13.64 6.45,13.88C6.61,14.11 8.53,23.86 8.53,23.86C8.53,23.86 11.14,14.42 11.53,14.03C11.91,13.64 18.21,12.63 18.21,12.63C18.21,12.63 11.91,10.44 11.6,9.98C11.3,9.51 8.53,0 8.53,0C8.53,0 6.76,9.43 6.61,9.67Z " /><g opacity="1" transform="translate(148.191881786141 24.21856081148326)  rotate(0 31.5 31.5)"><path id="路径" fill-rule="evenodd" style="fill:#F6E8D2" transform="translate(39.56759999999998 8.874)  rotate(0 7.4448 8.4717)" opacity="1" d="M8.98,0L0,16.94L14.89,6.54L8.98,0Z " /><path id="路径" fill-rule="evenodd" style="fill:#F6E8D2" transform="translate(46.629 53.3952)  rotate(0 7.900199999999995 4.771799999999998)" opacity="1" d="M15.8,0L0,2.09L14.28,9.54L15.8,0Z " /><path id="路径" fill-rule="evenodd" style="fill:#F6E8D2" transform="translate(0.0989999999999918 0.07560000000000286)  rotate(0 4.524300000000009 7.873199999999995)" opacity="1" d="M0,1.48L4.96,15.75L9.05,0L0,1.48Z " /></g><g opacity="1" transform="translate(73.1318817861411 127.1785608114833)  rotate(0 89.5 79.5)"><path id="路径" fill-rule="evenodd" style="fill:#3B3630" transform="translate(30.7278 128.043)  rotate(0 11.5317 15.308100000000005)" opacity="1" d="M0,30.62L9.46,30.62L23.06,8.98L0,0L0,30.62Z " /><path id="路径" fill-rule="evenodd" style="fill:#3B3630" transform="translate(125.8308 128.043)  rotate(0 11.53260000000001 15.308100000000005)" opacity="1" d="M0,8.98L13.6,30.62L23.07,30.62L23.07,0L0,8.98Z " /><path id="路径" fill-rule="evenodd" style="fill:#949B8F" transform="translate(25.182 0.172799999999986)  rotate(0 64.1097 13.3956)" opacity="1" d="M0,15.1C16.32,22.32 38.94,26.79 63.92,26.79C89.1,26.79 111.87,22.25 128.22,14.93L128.04,14.76C110.04,5.47 88,0 64.2,0C40.39,0 18.35,5.47 0.36,14.76C0.24,14.87 0,15.1 0,15.1Z " /><path id="路径" fill-rule="evenodd" style="fill:#C8D2C6" transform="translate(40.1868 11.75759999999999)  rotate(0 49.068 7.079400000000005)" opacity="1" d="M48.91,14.16C67.08,14.16 83.98,11.88 98.14,7.98C83.4,2.87 66.77,0 49.19,0C31.5,0 14.8,2.91 0,8.06C14.08,11.92 30.88,14.16 48.91,14.16Z " /><path id="路径" fill-rule="evenodd" style="fill:#C8D2C6" transform="translate(13.17240000000001 25.11)  rotate(0 76.203 60.03)" opacity="1" d="M75.97,9.47C54.81,9.47 35.62,5.91 21.64,0.13C8.25,12.87 0,30.26 0,49.43C0,88.44 34.12,120.06 76.2,120.06C118.28,120.06 152.41,88.44 152.41,49.43C152.41,30.18 144.1,12.74 130.63,0C116.62,5.86 97.3,9.47 75.97,9.47Z " /><path id="椭圆形" fill-rule="evenodd" style="fill:#FBF7F4" transform="translate(57.5262 54.5814)  rotate(0 3.1607999999999996 3.1607999999999996)" opacity="1" d="M6.32,3.16C6.32,1.42 4.91,0 3.16,0C1.42,0 0,1.42 0,3.16C0,4.91 1.42,6.32 3.16,6.32C4.91,6.32 6.32,4.91 6.32,3.16Z " /><path id="椭圆形" fill-rule="evenodd" style="fill:#FBF7F4" transform="translate(67.1634 43.41060000000002)  rotate(0 1.6848 1.6848)" opacity="1" d="M3.37,1.68C3.37,0.75 2.62,0 1.68,0C0.75,0 0,0.75 0,1.68C0,2.62 0.75,3.37 1.68,3.37C2.62,3.37 3.37,2.62 3.37,1.68Z " /><path id="路径" fill-rule="evenodd" style="fill:#F3D2A6" transform="translate(29.44391695936627 65.23616075897328)  rotate(0 9.67754516866754 33.63811962051334)" opacity="1" d="M4.14,15.84C5.57,27.68 -2.76,30 1.29,45.25C3.33,52.94 19.31,67.28 19.31,67.28C19.31,67.28 20.11,54.57 15.15,49.58C11.95,46.34 5.59,41.42 9.86,25.05C12.34,15.51 3.38,3.81 0.3,0.06C0.17,-0.09 0.02,0.24 0.02,0.24C1.12,2.5 3.14,7.52 4.14,15.84Z " /><path id="路径" fill-rule="evenodd" style="fill:#F3D2A6" transform="translate(105.9932736139729 97.0514993471564)  rotate(0 14.645563193013535 19.888650326421796)" opacity="1" d="M0,0.14C0.77,3.48 3.42,13.53 9.81,16.26C20.79,20.96 20.79,26.63 21.21,29.81C21.86,34.74 29.29,39.78 29.29,39.78C29.29,39.78 28.2,24.67 24.79,20.21C18.03,11.36 13.13,15.01 7.14,9.1C2.94,4.95 1,1.66 0.22,0.07L0,0.14Z " /><path id="路径"  style="fill:#E8C481" transform="translate(49.86842987438535 98.12289670696359)  rotate(0 10.81848062221235 22.604651646518207)" opacity="1" d="" /><path id="路径"  style="fill:#E8C481" transform="translate(114.4427362958656 107.2808486403817)  rotate(0 3.77293720983165 12.532975679809125)" opacity="1" d="" /><path id="路径" fill-rule="evenodd" style="fill:#C88C7C" transform="translate(47.08799999999999 124.164)  rotate(0 42.287400000000005 10.503)" opacity="1" d="M84.57,9.14C71.99,3.31 57.59,0 42.29,0C26.99,0 12.58,3.31 0,9.14C12.1,16.63 26.64,21.01 42.29,21.01C57.93,21.01 72.47,16.63 84.57,9.14Z " /><g opacity="1" transform="translate(85.14 123.12)  rotate(0 24 8)"><path id="路径" fill-rule="evenodd" style="fill:#F3D2A6" transform="translate(23.89390796247507 4.234072169679685)  rotate(0 11.65022649510421 3.592201751757648)" opacity="1" d="M0.29,5.52C1.27,7.23 23.91,8.46 23.29,4.84C22.96,2.96 19.88,1.68 16.98,0.89C13.4,-0.1 9.62,-0.29 5.97,0.44C-0.04,1.65 -0.49,4.16 0.29,5.52Z " /><path id="路径" fill-rule="evenodd" style="fill:#F6E8D2" transform="translate(0.005727330716306369 0.02478692394950485)  rotate(0 9.57584867944021 6.06971762798485)" opacity="1" d="M5.08,1.33C2.72,2.61 0.22,4.69 0.01,7.86C-0.41,14 18.18,12.53 18.94,9.66C19.55,7.38 19.11,3.1 14.13,0.88C11.11,-0.46 8.01,-0.24 5.08,1.33Z " /><path id="路径" fill-rule="evenodd" style="fill:#E8C481" transform="translate(14.98978246227039 7.825634685461768)  rotate(0 7.15600949796367 3.7065985753727047)" opacity="1" d="M3.83,0.83C2.06,1.62 0.18,2.9 0.01,4.84C-0.33,8.59 13.56,7.61 14.15,5.86C14.61,4.46 14.3,1.85 10.59,0.52C8.34,-0.28 6.02,-0.14 3.83,0.83Z " /><path  id="路径" style="stroke:#3B3630; stroke-width:0.5; stroke-opacity:1; stroke-dasharray:0 0" transform="translate(15.3702 8.661599999999979)  rotate(0 1.723499999999998 1.4364000000000035)" d="M3.45,0C3.45,0 0.81,0.97 0,2.87 " /><path  id="路径" style="stroke:#3B3630; stroke-width:0.5; stroke-opacity:1; stroke-dasharray:0 0" transform="translate(24.0264 7.947000000000016)  rotate(0 2.4389999999999916 1.505700000000002)" d="M0,0C0,0 4.15,0.53 4.88,3.01 " /></g><g opacity="1" transform="translate(48.06 126.9)  rotate(0 15.5 6.5)"><path id="路径" fill-rule="evenodd" style="fill:#F3D2A6" transform="translate(0.1363979617876794 0.1034496239416012)  rotate(0 12.491489598331095 4.588569832704684)" opacity="1" d="M6.79,0.95C3.69,1.8 0.37,3.17 0.04,5.18C-1.18,12.62 23.62,7.74 24.67,5.91C25.51,4.46 25.03,1.77 18.58,0.48C14.68,-0.31 10.64,-0.11 6.79,0.95Z " /><path id="路径" fill-rule="evenodd" style="fill:#E8C481" transform="translate(16.45684801249243 5.613946146518787)  rotate(0 7.08018245142596 3.668543013442674)" opacity="1" d="M3.79,0.83C2.03,1.6 0.18,2.87 0.01,4.79C-0.33,8.5 13.42,7.54 14,5.8C14.45,4.42 14.15,1.83 10.47,0.52C8.25,-0.28 5.95,-0.14 3.79,0.83Z " /><path  id="路径" style="stroke:#3B3630; stroke-width:0.5; stroke-opacity:1; stroke-dasharray:0 0" transform="translate(17.41859999999999 5.666609293377942)  rotate(0 3.850199999999997 1.3372953533110215)" d="M7.7,0.02C7.7,0.02 2.51,-0.43 0,2.67 " /></g><path id="路径" fill-rule="evenodd" style="fill:#E8C481" transform="translate(131.6638507858485 76.95401886528342)  rotate(0 8.663887894292886 31.361409239625925)" opacity="1" d="M4.18,47.13C-1.05,54.09 -0.25,59.85 0.68,62.64L0.92,62.57C-0.54,53.49 16.28,48.63 17.2,39.5C18.19,29.77 13.1,27.05 7.81,15.3C4.07,7.01 8.67,1.54 9.99,0.22C9.99,0.22 10,-0.03 9.87,0.01L8.6,0.29C1.52,3.14 2.22,17.15 5.85,23.55C11.26,33.09 11.58,37.27 4.18,47.13Z " /><path id="路径" fill-rule="evenodd" style="fill:#E8C481" transform="translate(42.11744897678416 46.95694246133698)  rotate(0 11.207185872505605 44.218984311010864)" opacity="1" d="M8.26,88.43C8.43,88.48 8.44,88.15 8.44,88.15C6.74,86.16 0.85,78.08 6.89,66.87C15.44,50.99 22.81,47.7 22.4,34.03C22.02,21.21 -0.98,12.75 1.95,0.22C1.95,0.22 1.7,-0.1 1.62,0.11C0.05,3.91 -1.63,11.87 4.97,22.1C14.33,36.59 13.46,42.39 4.97,55.17C-0.73,63.74 -3.09,83.23 6.51,87.91L8.26,88.43Z " /><path id="形状" fill-rule="evenodd" style="fill:#B1BBAB" transform="translate(0.1097999999999922 14.81940000000001)  rotate(0 89.2656 70.3206)" opacity="1" d="M89 11.1C64.2 11.1 41.72 6.92 25.35 0.15C9.66 15.06 0 35.44 0 57.9C0 103.6 39.97 140.64 89.27 140.64C138.56 140.64 178.53 103.6 178.53 57.9C178.53 35.36 168.8 14.92 153.02 0C136.61 6.85 113.97 11.1 89 11.1Z M165.473 59.7206C165.473 40.4706 157.163 23.0306 143.693 10.2906C129.683 16.1506 110.363 19.7606 89.0326 19.7606C67.8726 19.7606 48.6826 16.2006 34.7026 10.4206C21.3126 23.1506 13.0626 40.5506 13.0626 59.7206C13.0626 98.7306 47.1826 130.351 89.2626 130.351C131.343 130.351 165.473 98.7306 165.473 59.7206Z " /><g opacity="0.6" transform="translate(67.32 49.5)  rotate(0 37 27)"><g opacity="1" transform="translate(0 0)  rotate(0 37 27)"><g opacity="1" transform="translate(0 0)  rotate(0 37 27)"><path  id="路径" style="stroke:#FBF7F4; stroke-width:0.72; stroke-opacity:1; stroke-dasharray:0 0" transform="translate(49.83659999999998 28.83419999999996)  rotate(0 0.8982000000000016 0.660600000000013)" d="M1.34,1.32C0.94,0.91 0.5,0.51 0,0.12C0.63,0.12 1.23,0.08 1.8,0 " /><path  id="路径" style="stroke:#FBF7F4; stroke-width:0.72; stroke-opacity:1; stroke-dasharray:3.517092132568359 3.517092132568359" transform="translate(54.98099999999999 16.58880000000001)  rotate(0 7.652699999999995 5.608799999999995)" d="M0,11.22C3.46,9.51 5.58,6.24 7.92,3.79C9.94,1.66 12.96,0.56 15.31,0 " /><path  id="路径" style="stroke:#FBF7F4; stroke-width:0.72; stroke-opacity:1; stroke-dasharray:0 0" transform="translate(72.009 15.4746)  rotate(0 0.8928000000000065 0.38339999999999913)" d="M0,0.77C1.08,0.59 1.79,0.55 1.79,0.55C1.21,0.35 0.63,0.17 0.07,0 " /><path  id="路径" style="stroke:#FBF7F4; stroke-width:0.72; stroke-opacity:1; stroke-dasharray:4.013604068756103 4.013604068756103" transform="translate(46.9404 13.75933944421901)  rotate(0 10.6236 2.029430277890494)" d="M21.25,0.73C11.09,-1.32 4.16,1.31 0,4.06 " /><path  id="路径" style="stroke:#FBF7F4; stroke-width:0.72; stroke-opacity:1; stroke-dasharray:0 0" transform="translate(42.82560000000002 18.78119999999998)  rotate(0 1.247399999999991 0.6975)" d="M2.49,0.22C1.98,0.63 1.53,1.03 1.14,1.4C0.78,0.94 0.4,0.47 0,0 " /><path  id="路径" style="stroke:#FBF7F4; stroke-width:0.72; stroke-opacity:1; stroke-dasharray:0 0" transform="translate(38.95560000000002 14.82120000000003)  rotate(0 0.899100000000001 0.613799999999994)" d="M1.32,1.23C0.9,0.82 0.46,0.41 0,0C0.62,0.05 1.22,0.06 1.8,0.03 " /><path  id="路径" style="stroke:#FBF7F4; stroke-width:0.72; stroke-opacity:1; stroke-dasharray:4.532742118835449 4.532742118835449" transform="translate(45.13679999999999 9.69660000000002)  rotate(0 2.6766000000000005 2.0528999999999953)" d="M0,4.11C2.31,3.08 4.1,1.46 5.35,0 " /><path  id="路径" style="stroke:#FBF7F4; stroke-width:0.72; stroke-opacity:1; stroke-dasharray:0 0" transform="translate(50.9886 6.326999999999974)  rotate(0 0.8982000000000016 0.7848000000000025)" d="M0.87,1.57C1.49,0.65 1.8,0.03 1.8,0.03C1.27,0.09 0.66,0.08 0,0 " /><path  id="路径" style="stroke:#FBF7F4; stroke-width:0.72; stroke-opacity:1; stroke-dasharray:3.515291976928711 3.515291976928711" transform="translate(0.1609156909861167 0.0090803111076184)  rotate(0 23.696642154506947 15.127159844446165)" d="M47.39,5.59C41.91,4.04 34.55,0.74 28.81,0.07C23.26,-0.57 17.82,3.24 15.94,4.72C15.77,4.71 15.42,4.71 15.42,4.71C14.42,4.7 13.48,4.77 12.6,4.89C10.55,5.3 7.81,6.51 5.69,9.94C4.14,12.43 2.33,13.78 1,14.49C0.55,14.73 0.25,15.16 0.17,15.65C0,16.77 -0.05,17.93 0.05,19.01C0.1,19.58 0.43,20.07 0.93,20.34C1.92,20.88 3.22,21.4 4.84,21.8C5.09,21.86 5.1,22.21 4.85,22.28C4.38,22.39 3.82,22.57 3.24,22.81C2.27,23.22 1.95,24.44 2.58,25.29C3.79,26.93 5.53,28.63 8,30.25 " /><path  id="路径" style="stroke:#FBF7F4; stroke-width:0.72; stroke-opacity:1; stroke-dasharray:0 0" transform="translate(9.655199999999999 31.18679999999999)  rotate(0 0.945899999999999 1.316699999999989)" d="M0,0C0.5,0.29 1.03,0.58 1.58,0.86C1.64,1.42 1.74,2.01 1.89,2.63 " /><path  id="路径" style="stroke:#FBF7F4; stroke-width:0.72; stroke-opacity:1; stroke-dasharray:3.39517822265625 3.39517822265625" transform="translate(12.7314 36.9936)  rotate(0 4.407300000000002 3.806099999999996)" d="M0,0C1.42,2.73 4.05,5.56 8.81,7.61 " /><path  id="路径" style="stroke:#FBF7F4; stroke-width:0.72; stroke-opacity:1; stroke-dasharray:0 0" transform="translate(23.13 44.35559999999996)  rotate(0 0.855899999999999 0.715500000000004)" d="M0,0.87C0.55,1.07 1.12,1.25 1.71,1.43C1.71,1.43 1.18,1.03 0.64,0 " /><path  id="路径" style="stroke:#FBF7F4; stroke-width:0.72; stroke-opacity:1; stroke-dasharray:2.185146045684814 2.185146045684814" transform="translate(22.60259999999998 39.069)  rotate(0 0.20070000000000165 1.622699999999997)" d="M0.4,3.25C0.18,2.37 0.03,1.3 0,0 " /><path  id="路径" style="stroke:#FBF7F4; stroke-width:0.72; stroke-opacity:1; stroke-dasharray:0 0" transform="translate(22.6134 36.17639999999999)  rotate(0 0.9117 0.899100000000001)" d="M0,1.8C0,1.7 0.01,1.6 0.01,1.49C0.04,0.98 0.05,0.48 0.06,0C0.66,0.14 1.25,0.26 1.82,0.36 " /><path  id="路径" style="stroke:#FBF7F4; stroke-width:0.72; stroke-opacity:1; stroke-dasharray:2.886966133117676 2.886966133117676" transform="translate(27.3006 35.88119999999998)  rotate(0 4.997700000000008 0.557434833811053)" d="M0,1.02C3.82,1.33 7.16,0.85 10,0 " /><path  id="路径" style="stroke:#FBF7F4; stroke-width:0.72; stroke-opacity:1; stroke-dasharray:0 0" transform="translate(38.66399999999999 34.75439999999998)  rotate(0 1.1060999999999965 0.8576999999999975)" d="M0,0.67C0.58,0.46 1.14,0.24 1.67,0C1.82,0.55 2,1.12 2.21,1.72 " /><path  id="路径" style="stroke:#FBF7F4; stroke-width:0.72; stroke-opacity:1; stroke-dasharray:3.645612144470215 3.645612144470215" transform="translate(42.37740000000001 39.78899999999999)  rotate(0 7.48260000000001 6.39809999999999)" d="M0,0C2.39,4.35 6.8,9.21 14.97,12.8 " /><path  id="路径" style="stroke:#FBF7F4; stroke-width:0.72; stroke-opacity:1; stroke-dasharray:0 0" transform="translate(59.02920000000002 52.6356)  rotate(0 0.8442000000000095 0.6371999999999935)" d="M0,0.65C0.55,0.86 1.11,1.07 1.69,1.27C1.69,1.27 1.16,0.81 0.42,0 " /><path  id="路径" style="stroke:#FBF7F4; stroke-width:0.72; stroke-opacity:1; stroke-dasharray:3.517109870910645 3.517109870910645" transform="translate(52.29360000000003 31.51259999999998)  rotate(0 2.48579999999999 9.1845)" d="M4.97,18.37C3.81,16.64 2.75,14.51 2.53,12.25C2.15,8.37 2.67,3.83 0,0 " /></g></g><g opacity="1" transform="translate(9.54 14.04)  rotate(0 2 1.5)"><g opacity="1" transform="translate(0 0)  rotate(0 2 1.5)"><path  id="路径" style="stroke:#FBF7F4; stroke-width:0.72; stroke-opacity:1; stroke-dasharray:0 0" transform="translate(0.1169999999999959 0.06659999999998037)  rotate(0 0.5463000000000044 0.698399999999999)" d="M0,0C0,0 0.23,0.79 1.09,1.4 " /><path  id="路径" style="stroke:#FBF7F4; stroke-width:0.72; stroke-opacity:1; stroke-dasharray:0 0" transform="translate(2.043000000000003 1.888200000000002)  rotate(0 0.887400000000001 0.1204118840150568)" d="M0,0C0.47,0.17 1.06,0.26 1.77,0.24 " /></g></g></g></g><g opacity="1" transform="translate(70.79188178614095 58.4185608114833)  rotate(0 56 38.5)"><path id="路径" fill-rule="evenodd" style="fill:#774D46" transform="translate(29.66579999999998 0.03108056947432715)  rotate(0 23.570378340122 11.12645971526283)" opacity="1" d="M37.83,22.25L47.06,1.02C47.31,0.54 46.94,-0.03 46.4,0C14.07,1.9 0,18.35 0,18.35L37.83,22.25Z " /><path id="路径" fill-rule="evenodd" style="fill:#C88C7C" transform="translate(73.4814 14.21705145939025)  rotate(0 14.964468667169916 15.259174270304865)" opacity="1" d="M14.7,30.52L29.85,0.99C30.1,0.52 29.72,-0.05 29.18,0C13.43,1.42 0,6.98 0,6.98L14.7,30.52Z " /><path id="路径" fill-rule="evenodd" style="fill:#774D46" transform="translate(15.76045797305516 12.17714147605288)  rotate(0 36.522987765510116 32.31830762645454)" opacity="1" d="M16.34,4.26C-1.83,14.27 -5.54,37.39 8.73,52.25C23.27,67.38 55.76,66.81 64.35,60.27C67.48,57.89 69.05,55.17 69.36,52.21C69.57,50.14 70.12,48.12 70.83,46.15C74.25,36.71 76.31,21.49 56.63,8.24C40.93,-2.32 27.11,-1.67 16.34,4.26Z " /><path id="路径" fill-rule="evenodd" style="fill:#C88C7C" transform="translate(44.34381184655217 5.639648507182945)  rotate(0 11.32109292224886 6.36843377330186)" opacity="1" d="M14.32,12.33C17.28,12.24 19.85,10.24 20.66,7.38L22.62,0.49C22.72,0.22 22.48,-0.05 22.2,0.01C8.89,2.59 2.27,9.18 0.14,11.74C-0.19,12.14 0.11,12.75 0.63,12.74L14.32,12.33Z " /><path id="路径" fill-rule="evenodd" style="fill:#3B3630" transform="translate(52.81232831242864 57.27676301701462)  rotate(0 6.99419371186958 4.328255295601001)" opacity="1" d="M13.37,6.11C14.13,5.42 14.19,4.25 13.55,3.46C12.22,1.82 8.63,-1.27 1.21,0.56C0.25,0.8 -0.29,1.88 0.16,2.76C0.23,2.9 0.31,3.02 0.42,3.11C1.07,3.65 5.16,4.02 5.52,5.65C5.69,6.44 5.72,7.07 5.7,7.53C5.68,7.99 5.97,8.42 6.4,8.58C6.78,8.73 7.21,8.65 7.51,8.39C8.19,7.79 9.37,6.82 9.69,7.01C10.02,7.21 12.17,7.21 13.37,6.11Z " /><path id="椭圆形" fill-rule="evenodd" style="fill:#FBF7F4" transform="translate(42.52287269170778 36.12951229366202)  rotate(-70.91275549480235 7.21243410829222 8.551603306337995)" opacity="1" d="M14.42,8.55C14.42,3.83 11.2,0 7.21,0C3.23,0 0,3.83 0,8.55C0,13.27 3.23,17.1 7.21,17.1C11.2,17.1 14.42,13.27 14.42,8.55Z " /><path id="路径" fill-rule="evenodd" style="fill:#3B3630" transform="translate(44.45007124889577 43.54314161667546)  rotate(0 6.208664375552115 4.372005146222091)" opacity="1" d="M0.01,6.6C0.85,7.26 1.83,7.81 2.93,8.19C6.6,9.46 10.41,8.47 12.38,5.98C12.38,5.98 12.4,5.9 12.42,5.87C12.34,4.55 11.86,3.25 10.94,2.17C8.7,-0.43 4.78,-0.74 2.17,1.49C0.63,2.81 -0.1,4.72 0.01,6.6Z " /><path id="椭圆形" fill-rule="evenodd" style="fill:#FBF7F4" transform="translate(66.77100929170773 40.69829209366204)  rotate(-70.91275549480235 7.21243410829222 8.551603306337995)" opacity="1" d="M14.42,8.55C14.42,3.83 11.2,0 7.21,0C3.23,0 0,3.83 0,8.55C0,13.27 3.23,17.1 7.21,17.1C11.2,17.1 14.42,13.27 14.42,8.55Z " /><path id="路径" fill-rule="evenodd" style="fill:#3B3630" transform="translate(68.77527124889576 48.15474161667546)  rotate(0 6.208664375552115 4.372005146222091)" opacity="1" d="M0.01,6.6C0.85,7.26 1.83,7.81 2.93,8.19C6.6,9.46 10.41,8.47 12.38,5.98C12.38,5.98 12.4,5.9 12.42,5.87C12.34,4.55 11.86,3.25 10.94,2.17C8.7,-0.43 4.78,-0.74 2.17,1.49C0.63,2.81 -0.1,4.72 0.01,6.6Z " /><path id="路径" fill-rule="evenodd" style="fill:#774D46" transform="translate(33.50519999999999 27.396)  rotate(0 15.48796934838869 8.335387388070115)" opacity="1" d="M28.74,15.53C37.36,11.99 18.29,0 18.29,0L0,13.22C0,13.22 20.11,19.07 28.74,15.53Z " /><path id="路径" fill-rule="evenodd" style="fill:#774D46" transform="translate(62.78760000000001 31.96260000000002)  rotate(0 12.97156934838868 8.397980690272014)" opacity="1" d="M23.7,15.53C32.33,12 13.26,0 13.26,0L0,14.04C0,14.04 15.08,19.07 23.7,15.53Z " /><path  id="路径" style="stroke:#3B3630; stroke-width:0.5; stroke-opacity:1; stroke-dasharray:0 0" transform="translate(39.375 41.86079999999998)  rotate(0 11.4336 1.0909933323965735)" d="M0,0C0,0 14.82,4.09 22.87,1.07 " /><path  id="路径" style="stroke:#3B3630; stroke-width:0.5; stroke-opacity:1; stroke-dasharray:0 0" transform="translate(63.55079999999997 46.179)  rotate(0 11.4336 1.294184312412353)" d="M0,0C0,0 15.17,4.82 22.87,1.31 " /><path id="路径" fill-rule="evenodd" style="fill:#9C685D" transform="translate(69.27893050175213 19.863)  rotate(0 9.714334749123916 12.26789999999999)" opacity="1" d="M2.27,0C-0.08,4.82 -1.41,10.84 2.39,15.87C6.39,21.16 13.1,23.86 19.43,24.54C18.79,16.92 14.75,8.39 3.11,0.56C2.83,0.37 2.55,0.18 2.27,0Z " /><path  id="路径" style="stroke:#3B3630; stroke-width:0.5; stroke-opacity:1; stroke-dasharray:0 0" transform="translate(43.54559999999999 62.97119999999999)  rotate(0 13.40280000000001 4.591454005711019)" d="M0,0C7.11,8.57 16.26,1.77 16.26,1.77C16.26,1.77 17.28,11.7 26.81,8.57 " /><path  id="路径" style="stroke:#3B3630; stroke-width:0.5; stroke-opacity:1; stroke-dasharray:0 0" transform="translate(1.119599999999995 40.64016140866762)  rotate(0 23.541299999999996 8.606819295666185)" d="M47.08,17.21C47.08,17.21 28.61,-3.95 0,0.66 " /><path  id="路径" style="stroke:#3B3630; stroke-width:0.5; stroke-opacity:1; stroke-dasharray:0 0" transform="translate(0.1565999999999906 55.95887042444772)  rotate(0 23.5269 2.5089647877761414)" d="M47.05,5.02C47.05,5.02 21.34,-3.43 0,1.6 " /><path  id="路径" style="stroke:#3B3630; stroke-width:0.5; stroke-opacity:1; stroke-dasharray:0 0" transform="translate(68.77619999999999 58.85651782381998)  rotate(0 21.199500000000004 2.397541088090004)" d="M0,4.8C0,4.8 25.12,-4.46 42.4,2.75 " /><path  id="路径" style="stroke:#3B3630; stroke-width:0.5; stroke-opacity:1; stroke-dasharray:0 0" transform="translate(69.01559999999999 66.16479097850933)  rotate(0 18.69839999999999 2.994104510745323)" d="M0,0.92C0,0.92 27.19,-3.19 37.4,5.99 " /></g><path  id="路径" style="stroke:#3B3630; stroke-width:1.8; stroke-opacity:1; stroke-dasharray:0 0" transform="translate(25.9556817861407 286.7809608114833)  rotate(0 138.31829999999994 0.09)" d="M0,0.09L276.64,0.09 " /></g></svg>