<svg xmlns="http://www.w3.org/2000/svg" xmlns:xlink="http://www.w3.org/1999/xlink" width="268" height="229" viewBox="0 0 268 229" fill="none"><defs><rect id="path_0" x="0" y="0" width="268" height="229" /><path id="path_1"
        transform="translate(0 0) rotate(0 43.60784078761401 27.749999999999996)"
        d="M0,54.5L51.5,55.5L79.41,55.5C80.73,55.54 81.97,54.88 82.68,53.77C85.03,49.86 89.76,39.47 85.5,24C84,16 76.5,0 60.5,0C45.2,0 26.5,14.5 26.5,14.5L0,54.5Z" /></defs><g opacity="1" transform="translate(0 0)  rotate(0 134 114.5)"><mask id="bg-mask-0" fill="white"><use xlink:href="#path_0"></use></mask><g mask="url(#bg-mask-0)" ><g opacity="1" transform="translate(18 21)  rotate(0 116.00000000000001 93.17855307048069)"><path id="矩形 1" fill-rule="evenodd" style="fill:#EFEFEF" transform="translate(0 20.811304799158307)  rotate(0 116 68)" opacity="1" d="M8,136L224,136C228.42,136 232,132.42 232,128L232,8C232,3.58 228.42,0 224,0L8,0C3.58,0 0,3.58 0,8L0,128C0,132.42 3.58,136 8,136Z " /><path id="矩形 2" fill-rule="evenodd" style="fill:#DCDDDD" transform="translate(0.48777115280199723 20.811304799158307)  rotate(0 115.75611442359902 10)" opacity="1" d="M0,20L231.51,20L231.51,8C231.51,3.58 227.93,0 223.51,0L8,0C3.58,0 0,3.58 0,8L0,20Z " /><g opacity="1" transform="translate(11.487771152801997 26.81050482324943)  rotate(0 16.001114423599 4.0007999759087625)"><path id="圆形 1" fill-rule="evenodd" style="fill:#B5B5B6" transform="translate(0 0.001599951817524925)  rotate(0 4 4)" opacity="1" d="M4,0C1.79,0 0,1.79 0,4C0,6.21 1.79,8 4,8C6.21,8 8,6.21 8,4C8,1.79 6.21,0 4,0Z " /><path id="圆形 1" fill-rule="evenodd" style="fill:#B5B5B6" transform="translate(12 0.001599951817524925)  rotate(0 4 4)" opacity="1" d="M4,0C1.79,0 0,1.79 0,4C0,6.21 1.79,8 4,8C6.21,8 8,6.21 8,4C8,1.79 6.21,0 4,0Z " /><path id="圆形 1" fill-rule="evenodd" style="fill:#B5B5B6" transform="translate(24.002228847197998 0)  rotate(0 4 4)" opacity="1" d="M4,0C1.79,0 0,1.79 0,4C0,6.21 1.79,8 4,8C6.21,8 8,6.21 8,4C8,1.79 6.21,0 4,0Z " /></g><path id="路径 6" fill-rule="evenodd" style="fill:#FFFFFF" transform="translate(129.487771152802 112.9929047509759)  rotate(0 41.059079475840804 34.31036107383027)" opacity="1" d="M69.5,33C67,47.5 56.5,50 46.5,52.5C36.5,55 30,50 17,48.5C4,47 0,51.5 0,57.5C0,63.5 6.3,70.81 30.5,68C54.7,65.19 78,61 82,35.5C84.5,9 46.5,0 46.5,0C46.5,0 51.5,7.5 53,14.5C53,14.5 72,18.5 69.5,33Z " /><path  id="路径 6" style="stroke:#050B1E; stroke-width:2; stroke-opacity:1; stroke-dasharray:0 0" transform="translate(129.487771152802 112.9929047509759)  rotate(0 41.059079475840804 34.31036107383027)" d="M69.5,33C67,47.5 55,52.5 46.5,52.5C38,52.5 30,50 17,48.5C4,47 0,51.5 0,57.5C0,63.5 6.3,70.81 30.5,68C54.7,65.19 78,61 82,35.5C84.5,9 46.5,0 46.5,0C46.5,0 51.5,7.5 53,14.5C53,14.5 72,18.5 69.5,33Z " /><path id="圆形 3"  style="fill:#000000" transform="translate(127.79036058955876 179.59912753534266)  rotate(-83.53592942354817 1 1)" opacity="100" d="M-0.5 2Q-0.5 1.4931 -0.30238 1.02793Q-0.112065 0.579958 0.233947 0.233946Q0.579958 -0.112065 1.02793 -0.30238Q1.4931 -0.5 2 -0.5Q2.04925 -0.5 2.09754 -0.490393Q2.14584 -0.480785 2.19134 -0.46194Q2.23684 -0.443094 2.27778 -0.415735Q2.31873 -0.388375 2.35355 -0.353553Q2.38838 -0.318731 2.41573 -0.277785Q2.44309 -0.236839 2.46194 -0.191342Q2.48078 -0.145845 2.49039 -0.0975452Q2.5 -0.0492457 2.5 0Q2.5 0.0492457 2.49039 0.0975451Q2.48078 0.145845 2.46194 0.191342Q2.44309 0.236839 2.41573 0.277785Q2.38838 0.318731 2.35355 0.353553Q2.31873 0.388375 2.27779 0.415735Q2.23684 0.443094 2.19134 0.46194Q2.14584 0.480785 2.09754 0.490393Q2.04925 0.5 2 0.5Q1.38211 0.5 0.941053 0.941053Q0.5 1.38211 0.5 2Q0.5 2.04925 0.490393 2.09754Q0.480785 2.14584 0.46194 2.19134Q0.443094 2.23684 0.415735 2.27778Q0.388375 2.31873 0.353553 2.35355Q0.318731 2.38838 0.277785 2.41573Q0.236839 2.44309 0.191342 2.46194Q0.145845 2.48078 0.0975451 2.49039Q0.0492457 2.5 0 2.5Q-0.0492457 2.5 -0.0975451 2.49039Q-0.145845 2.48078 -0.191342 2.46194Q-0.236839 2.44309 -0.277785 2.41573Q-0.318731 2.38838 -0.353553 2.35355Q-0.388375 2.31873 -0.415735 2.27779Q-0.443094 2.23684 -0.46194 2.19134Q-0.480785 2.14584 -0.490393 2.09754Q-0.5 2.04925 -0.5 2Z " /><path  id="圆形 3" style="stroke:#43CF7C; stroke-width:1; stroke-opacity:1; stroke-dasharray:0 0" transform="translate(127.79036058955876 179.59912753534266)  rotate(-83.53592942354817 1 1)" d="" /><path id="圆形 3"  style="fill:#000000" transform="translate(123.56696656428448 179.463115732631)  rotate(-60.14159674538126 1.904261199259052 3.5)" opacity="100" d="M4.30172 -0.0821995Q4.29362 -0.130775 4.27621 -0.176838Q4.25879 -0.222901 4.23272 -0.264681Q4.20665 -0.306461 4.17293 -0.342352Q4.13921 -0.378243 4.09914 -0.406867Q4.05907 -0.43549 4.01418 -0.455746Q3.96929 -0.476001 3.92132 -0.487111Q3.87334 -0.49822 3.82412 -0.499757Q3.7749 -0.501293 3.72632 -0.493197L3.72636 -0.492957Q2.5039 -0.288846 1.54116 0.495095Q0.642047 1.22723 0.10857 2.34753Q-0.408852 3.43412 -0.485921 4.68007Q-0.564862 5.95627 -0.164489 7.15767L-0.165819 7.15811Q-0.150246 7.20483 -0.125858 7.24761Q-0.10147 7.2904 -0.0692044 7.3276Q-0.0369386 7.3648 0.00196527 7.395Q0.0408691 7.42519 0.0849158 7.44721Q0.128963 7.46924 0.176459 7.48224Q0.223956 7.49525 0.273078 7.49874Q0.3222 7.50223 0.371059 7.49607Q0.419918 7.48991 0.466637 7.47434Q0.513327 7.45878 0.556087 7.43441Q0.598847 7.41004 0.636035 7.3778Q0.673224 7.34557 0.703412 7.3067Q0.733601 7.26783 0.755632 7.22382Q0.777662 7.17981 0.790689 7.13234Q0.803716 7.08488 0.80724 7.03579Q0.810763 6.9867 0.804647 6.93787Q0.798531 6.88903 0.783011 6.84233L0.784342 6.84189Q0.445203 5.82447 0.512171 4.74181Q0.577282 3.68918 1.01143 2.77747Q1.44809 1.86048 2.17259 1.27053Q2.93034 0.653508 3.8922 0.493197L3.89216 0.492955Q3.98984 0.476382 4.07382 0.423812Q4.1578 0.371242 4.21539 0.290619Q4.2732 0.209688 4.29563 0.112796Q4.31807 0.0159035 4.30172 -0.0821995Z " /><path  id="圆形 3" style="stroke:#43CF7C; stroke-width:1; stroke-opacity:1; stroke-dasharray:0 0" transform="translate(123.56696656428448 179.463115732631)  rotate(-60.14159674538126 1.904261199259052 3.5)" d="" /><path id="路径 1" fill-rule="evenodd" style="fill:#FFFFFF" transform="translate(20.12002666363219 59.23806889578785)  rotate(0 16.683872244584954 15.877417927593955)" opacity="1" d="M0.87,0.25C-2.7,2.64 5.87,31.75 5.87,31.75C5.87,31.75 12.07,23.88 17.87,20.25C23.66,16.63 33.37,13.06 33.37,13.06C33.37,13.06 4.43,-2.13 0.87,0.25Z " /><path id="路径 1" fill-rule="evenodd" style="fill:#FFFFFF" transform="translate(91.88044811490408 56.81855682554081)  rotate(-280.66128830000827 15.507982647170019 19.590799975908794)" opacity="1" d="M0.75,0.23C-2.73,2.62 7,39.18 7,39.18C7,39.18 12.44,29.41 17.61,24.17C22.77,18.94 31.02,14.43 31.02,14.43C31.02,14.43 4.24,-2.15 0.75,0.23Z " /><path id="路径 1" fill-rule="evenodd" style="fill:#DCDDDD" transform="translate(29.487771152801997 70.4929047509759)  rotate(0 7 7)" opacity="1" d="M0.4,0.1C-1.14,1.15 2.24,14 2.24,14L14,6.3C14,6.3 1.94,-0.94 0.4,0.1Z " /><path id="路径 1" fill-rule="evenodd" style="fill:#DCDDDD" transform="translate(99.18500926624893 69.09184444630117)  rotate(-280.66128830000827 7.516002420192023 8.880558872677511)" opacity="1" d="M0.34,0.11C-1.24,1.18 3.19,17.76 3.19,17.76C3.19,17.76 6.92,13.86 9.29,11.58C11.66,9.31 15.03,6.39 15.03,6.39C15.03,6.39 1.91,-0.96 0.34,0.11Z " /><path id="路径 1"  style="fill:#050B1E" transform="translate(20.12002666363219 59.233412762247355)  rotate(0 16.43387224458495 15.379745994364278)" opacity="1" d="M27.924 11.3655Q30.6357 12.719 32.4042 13.6449L32.4039 13.6454Q32.4912 13.6911 32.5856 13.7189Q32.6801 13.7467 32.7782 13.7555Q32.8763 13.7643 32.9743 13.7538Q33.0722 13.7433 33.1662 13.7139Q33.2602 13.6845 33.3467 13.6374Q33.4331 13.5902 33.5087 13.5271Q33.5843 13.4639 33.6461 13.3873Q33.708 13.3106 33.7537 13.2233Q33.7993 13.1362 33.8271 13.0419Q33.8548 12.9475 33.8637 12.8496Q33.8725 12.7516 33.8621 12.6538Q33.8517 12.556 33.8225 12.4621Q33.7932 12.3682 33.7463 12.2818Q33.6993 12.1954 33.6364 12.1198Q33.5735 12.0442 33.497 11.9823Q33.4206 11.9204 33.3336 11.8746L33.3338 11.8741Q31.5478 10.939 28.8172 9.57605Q23.3567 6.85048 18.6178 4.70291Q11.9604 1.68594 7.68924 0.256536Q5.10384 -0.60871 3.42466 -0.8766Q2.46026 -1.03046 1.76109 -0.991973Q0.867514 -0.94279 0.312615 -0.57026Q-0.715789 0.118228 -0.934397 2.14975Q-1.0989 3.67847 -0.849739 6.13482Q-0.441476 10.1597 1.05702 16.6318Q2.12229 21.2328 3.62369 26.5999Q4.37418 29.2826 4.91307 31.0503L4.91114 31.0509Q4.96911 31.2412 5.09548 31.3948Q5.22185 31.5484 5.39738 31.642Q5.57291 31.7355 5.77089 31.7548Q5.96887 31.7741 6.15915 31.7161Q6.25331 31.6874 6.34007 31.6409Q6.42683 31.5944 6.50287 31.5319Q6.5789 31.4694 6.64128 31.3932Q6.70366 31.3171 6.75 31.2303Q6.79634 31.1434 6.82486 31.0492Q6.85338 30.955 6.86298 30.857Q6.87258 30.7591 6.86289 30.6611Q6.85321 30.5632 6.82461 30.469L6.82653 30.4684Q6.29428 28.7226 5.54975 26.0611Q4.06054 20.7376 3.00548 16.1807Q1.53554 9.83189 1.14005 5.93299Q0.911986 3.68461 1.05412 2.36373Q1.12203 1.73263 1.26776 1.36414Q1.35759 1.13698 1.42739 1.09025Q1.45332 1.07284 1.53113 1.05222Q1.66695 1.01624 1.87101 1.005Q2.3565 0.978282 3.10957 1.09842Q4.62569 1.3403 7.05451 2.15314Q11.2283 3.54998 17.7922 6.52458Q22.497 8.65667 27.924 11.3655Z " /><path  id="路径 1" style="stroke:#050B1E; stroke-width:2; stroke-opacity:1; stroke-dasharray:0 0" transform="translate(20.12002666363219 59.233412762247355)  rotate(0 16.43387224458495 15.379745994364278)" d="" /><path id="路径 1"  style="fill:#050B1E" transform="translate(91.88044811490408 56.81855682554081)  rotate(-280.66128830000827 15.507982647170019 19.590799975908794)" opacity="1" d="M26.272 12.7373Q28.8272 14.2486 30.492 15.2792L30.4895 15.2833Q30.5732 15.3352 30.6654 15.3697Q30.7577 15.4042 30.8549 15.4201Q30.9521 15.4359 31.0505 15.4325Q31.149 15.4291 31.2448 15.4066Q31.3407 15.3841 31.4303 15.3432Q31.52 15.3024 31.5999 15.2449Q31.6799 15.1874 31.7471 15.1154Q31.8143 15.0434 31.8661 14.9596Q31.9709 14.7905 32.0029 14.5942Q32.035 14.3979 31.9894 14.2043Q31.944 14.0111 31.8282 13.8498Q31.7124 13.6886 31.5439 13.5838L31.5464 13.5798Q29.864 12.5381 27.2902 11.0158Q22.1429 7.97143 17.6686 5.55742Q11.3808 2.16502 7.3285 0.518262Q4.86995 -0.480824 3.25965 -0.821508Q2.32668 -1.01889 1.6411 -1.00245Q0.751035 -0.981105 0.186583 -0.596178Q-0.42584 -0.175578 -0.711004 0.773544Q-0.921168 1.47304 -0.979102 2.53537Q-1.07935 4.3735 -0.735311 7.43586Q-0.166161 12.5021 1.59167 20.8083Q2.84366 26.7243 4.56337 33.6705Q5.42328 37.1438 6.03364 39.4372L7.96636 38.9228Q7.3605 36.6463 6.50476 33.1898Q4.79325 26.2768 3.54833 20.3942Q1.81054 12.1826 1.25219 7.21258Q0.926767 4.31592 1.01793 2.64428Q1.06288 1.82011 1.20441 1.34903Q1.25932 1.16627 1.319 1.06691Q1.32563 1.05587 1.33107 1.04782Q1.35071 1.04045 1.38745 1.03122Q1.50638 1.00136 1.68905 0.996975Q2.14118 0.986131 2.84569 1.13518Q4.28187 1.43903 6.57555 2.37112Q10.527 3.97688 16.7189 7.31758Q21.1586 9.71291 26.272 12.7373ZM7.86899 39.6829Q7.96871 39.5108 7.99498 39.3137Q8.02125 39.1165 7.97006 38.9243L6.03741 39.4389Q6.06276 39.5341 6.10618 39.6225Q6.14961 39.7109 6.20944 39.7891Q6.26928 39.8674 6.34323 39.9324Q6.41718 39.9975 6.5024 40.0469Q6.58762 40.0962 6.68083 40.128Q6.77405 40.1598 6.87168 40.1728Q6.96931 40.1858 7.0676 40.1796Q7.16589 40.1733 7.26106 40.1479Q7.45328 40.0967 7.61127 39.9759Q7.76926 39.8551 7.86899 39.6829Z " /><path  id="路径 1" style="stroke:#050B1E; stroke-width:2; stroke-opacity:1; stroke-dasharray:0 0" transform="translate(91.88044811490408 56.81855682554081)  rotate(-280.66128830000827 15.507982647170019 19.590799975908794)" d="" /><g opacity="1" transform="translate(96.987771152802 102.99130479915837)  rotate(0 43.60784078761401 27.749999999999996)"><mask id="mask-1" fill="white"><use xlink:href="#path_1"></use></mask><g mask="url(#mask-1)"><path id="路径 4" fill-rule="evenodd" style="fill:#FFFFFF" transform="translate(0 0)  rotate(0 43.60784078761401 27.749999999999996)" opacity="1" d="M0,54.5L51.5,55.5L79.41,55.5C80.73,55.54 81.97,54.88 82.68,53.77C85.03,49.86 89.76,39.47 85.5,24C84,16 76.5,0 60.5,0C45.2,0 26.5,14.5 26.5,14.5L0,54.5Z " /></g></g><path id="圆形 5" fill-rule="evenodd" style="fill:#FFFFFF" transform="translate(17.487771152801997 69.4929047509759)  rotate(0 53 45.5)" opacity="1" d="M53,0C23.73,0 0,20.37 0,45.5C0,70.63 23.73,91 53,91C82.27,91 106,70.63 106,45.5C106,20.37 82.27,0 53,0Z " /><path id="圆形 2"  style="fill:#050B1E" transform="translate(18 69.81130479915831)  rotate(0 52.49999999999999 45)" opacity="1" d="M99.5246 62.9552Q101.713 58.7869 102.842 54.3176Q104 49.7328 104 45Q104 40.5171 102.961 36.164Q101.947 31.9196 99.9769 27.9277Q98.0401 24.0035 95.2472 20.4604Q92.4769 16.946 88.9705 13.9405Q85.4599 10.9315 81.3499 8.5514Q77.197 6.14639 72.5924 4.47683Q67.8998 2.77533 62.9063 1.89931Q57.7802 0.999996 52.5 0.999996Q47.2198 1 42.0936 1.89931Q37.1002 2.77533 32.4076 4.47683Q27.803 6.14639 23.6501 8.5514Q19.5402 10.9315 16.0295 13.9405Q12.5231 16.946 9.75282 20.4604Q6.95992 24.0035 5.02314 27.9277Q3.05302 31.9195 2.03947 36.164Q0.999996 40.517 0.999996 45Q1 49.483 2.03947 53.836Q3.05302 58.0805 5.02314 62.0723Q6.9599 65.9965 9.75283 69.5396Q12.5231 73.054 16.0295 76.0595Q19.5403 79.0686 23.6501 81.4486Q27.8031 83.8536 32.4076 85.5232Q37.1002 87.2247 42.0936 88.1007Q47.2197 89 52.5 89Q57.3475 89 62.0714 88.2414Q66.6771 87.5018 71.0453 86.0608L71.045 86.06Q71.1386 86.0291 71.2363 86.0171Q71.3341 86.005 71.4323 86.0123Q71.5305 86.0196 71.6254 86.0459Q71.7203 86.0722 71.8083 86.1165Q71.8963 86.1608 71.9739 86.2214Q72.0515 86.282 72.1158 86.3566Q72.1801 86.4312 72.2287 86.5169Q72.2772 86.6026 72.3081 86.6962Q72.3389 86.7896 72.3509 86.8873Q72.363 86.985 72.3557 87.0831Q72.3485 87.1813 72.3223 87.2761Q72.296 87.371 72.2518 87.4589Q72.2076 87.5468 72.1471 87.6244Q72.0866 87.702 72.0121 87.7664Q71.9376 87.8307 71.852 87.8793Q71.7664 87.9278 71.673 87.9588L71.6733 87.9597Q67.1527 89.451 62.3886 90.2161Q57.507 91 52.5 91Q47.0457 91 41.748 90.0706Q36.5826 89.1644 31.7258 87.4034Q26.9544 85.6733 22.6478 83.1793Q18.3786 80.707 14.728 77.578Q11.0733 74.4455 8.18213 70.7777Q5.2593 67.0698 3.22967 62.9574Q1.15998 58.7639 0.0941633 54.3005Q-1 49.7185 -1 45Q-1 40.2815 0.0941614 35.6995Q1.15998 31.2362 3.22968 27.0426Q5.25933 22.9302 8.18213 19.2222Q11.0733 15.5545 14.728 12.422Q18.3784 9.29307 22.6478 6.82067Q26.9544 4.32668 31.7258 2.59661Q36.5826 0.835592 41.748 -0.0706022Q47.0457 -1 52.5 -1Q57.9543 -1 63.2519 -0.0706052Q68.4174 0.835591 73.2741 2.59661Q78.0456 4.32668 82.3522 6.82067Q86.6216 9.29311 90.272 12.422Q93.9267 15.5545 96.8179 19.2223Q99.7407 22.9302 101.77 27.0426Q103.84 31.2362 104.906 35.6995Q106 40.2815 106 45Q106 49.9815 104.781 54.8074Q103.594 59.5066 101.295 63.8848L99.5246 62.9552ZM101.298 63.8893Q101.252 63.9765 101.19 64.0532Q101.128 64.1298 101.052 64.1929Q100.977 64.256 100.89 64.3031Q100.804 64.3502 100.71 64.3796Q100.616 64.4089 100.518 64.4194Q100.42 64.4298 100.322 64.4209Q100.224 64.4121 100.129 64.3842Q100.035 64.3564 99.9475 64.3107Q99.7714 64.2183 99.6439 64.0656Q99.5165 63.9128 99.4572 63.7229Q99.398 63.5331 99.4159 63.335Q99.4338 63.1369 99.5262 62.9607L101.298 63.8893Z " /><path  id="圆形 2" style="stroke:#050B1E; stroke-width:2; stroke-opacity:1; stroke-dasharray:0 0" transform="translate(18 69.81130479915831)  rotate(0 52.49999999999999 45)" d="" /><path id="圆形 3"  style="fill:#050B1E" transform="translate(35.68385881839481 115.47439872748603)  rotate(16.697394664234103 6.406584006099379 5.75)" opacity="1" d="M0 -1Q-0.0984914 -1 -0.19509 -0.980785Q-0.291689 -0.96157 -0.382683 -0.923879Q-0.473678 -0.886188 -0.55557 -0.83147Q-0.637463 -0.776751 -0.707107 -0.707107Q-0.776751 -0.637463 -0.83147 -0.55557Q-0.886188 -0.473678 -0.923879 -0.382683Q-0.96157 -0.291689 -0.980785 -0.19509Q-1 -0.0984914 -1 0L1 0L-1 1.94489e-06Q-1 2.45931 -0.450259 4.71278Q0.0870143 6.91516 1.07618 8.63075Q2.09904 10.4048 3.45837 11.4023Q4.95419 12.5 6.63 12.5Q8.27383 12.5 9.64962 11.6844Q10.9915 10.889 11.9372 9.39649Q12.8567 7.94531 13.3321 5.93813Q13.81 3.92059 13.81 1.46L11.81 1.46Q11.81 3.68697 11.386 5.47718Q10.9879 7.15807 10.2478 8.32601Q9.5589 9.41321 8.62975 9.964Q7.72558 10.5 6.63 10.5Q5.60929 10.5 4.64163 9.78989Q3.62152 9.04128 2.80882 7.63175Q1.96233 6.16363 1.49276 4.23878Q1 2.21888 1 0Q1 -0.0984914 0.980785 -0.19509Q0.96157 -0.291689 0.923879 -0.382683Q0.886188 -0.473678 0.831469 -0.55557Q0.776751 -0.637463 0.707107 -0.707107Q0.637463 -0.776751 0.55557 -0.83147Q0.473678 -0.886188 0.382683 -0.923879Q0.291689 -0.96157 0.19509 -0.980785Q0.0984914 -1 0 -1ZM11.8132 1.45544Q11.8132 1.35694 11.8324 1.26035Q11.8516 1.16375 11.8893 1.07275Q11.927 0.981758 11.9817 0.899865Q12.0364 0.817973 12.1061 0.748329Q12.1757 0.678685 12.2576 0.623966Q12.3395 0.569247 12.4305 0.531556Q12.5215 0.493865 12.6181 0.47465Q12.7147 0.455436 12.8132 0.455436Q12.9117 0.455436 13.0083 0.47465Q13.1049 0.493865 13.1959 0.531556Q13.2868 0.569247 13.3687 0.623966Q13.4506 0.678685 13.5203 0.748329Q13.5899 0.817973 13.6446 0.899865Q13.6994 0.981758 13.737 1.07275Q13.7747 1.16375 13.794 1.26035Q13.8132 1.35694 13.8132 1.45544L11.8132 1.45544Z " /><path  id="圆形 3" style="stroke:#050B1E; stroke-width:2; stroke-opacity:1; stroke-dasharray:0 0" transform="translate(35.68385881839481 115.47439872748603)  rotate(16.697394664234103 6.406584006099379 5.75)" d="" /><path id="圆形 3"  style="fill:#050B1E" transform="translate(75.86971368291097 115.09117950199723)  rotate(-16.697394664234103 6.406584006099379 5.75)" opacity="1" d="M12.8132 -1Q12.7147 -1 12.6181 -0.980785Q12.5215 -0.96157 12.4305 -0.923879Q12.3395 -0.886188 12.2576 -0.83147Q12.1757 -0.776751 12.1061 -0.707107Q12.0364 -0.637463 11.9817 -0.55557Q11.927 -0.473678 11.8893 -0.382683Q11.8516 -0.291689 11.8324 -0.19509Q11.8132 -0.0984914 11.8132 0L13.8132 0Q13.8132 -0.0984914 13.794 -0.19509Q13.7747 -0.291689 13.737 -0.382683Q13.6994 -0.473678 13.6446 -0.55557Q13.5899 -0.637463 13.5203 -0.707107Q13.4506 -0.776751 13.3687 -0.83147Q13.2868 -0.886188 13.1958 -0.923879Q13.1049 -0.96157 13.0083 -0.980785Q12.9117 -1 12.8132 -1ZM1 1.46Q1 3.68609 1.42541 5.47648Q1.8247 7.15691 2.56664 8.32513Q3.25727 9.41255 4.18821 9.96373Q5.09399 10.5 6.19 10.5Q7.21029 10.5 8.17635 9.79022Q9.19478 9.04196 10.0057 7.63253Q10.8503 6.16472 11.3187 4.23941Q11.81 2.21964 11.81 1.90735e-06L13.81 1.90735e-06Q13.81 2.45942 13.262 4.71216Q12.7261 6.91478 11.7393 8.62997Q10.7183 10.4044 9.36053 11.402Q7.86602 12.5 6.19 12.5Q4.54632 12.5 3.16929 11.6847Q1.82593 10.8894 0.878358 9.39737Q-0.0435367 7.94581 -0.520413 5.93883Q-1 3.92044 -1 1.46L1 1.46ZM-1 1.45544Q-1 1.35694 -0.980785 1.26035Q-0.96157 1.16375 -0.923879 1.07275Q-0.886188 0.981758 -0.83147 0.899866Q-0.776751 0.817973 -0.707107 0.748329Q-0.637463 0.678685 -0.55557 0.623966Q-0.473678 0.569247 -0.382683 0.531556Q-0.291689 0.493865 -0.19509 0.474651Q-0.0984914 0.455436 0 0.455436Q0.0984914 0.455436 0.19509 0.474651Q0.291689 0.493865 0.382683 0.531556Q0.473678 0.569247 0.55557 0.623966Q0.637463 0.678685 0.707107 0.748329Q0.776751 0.817973 0.83147 0.899866Q0.886188 0.981758 0.923879 1.07275Q0.96157 1.16375 0.980785 1.26035Q1 1.35694 1 1.45544L-1 1.45544Z " /><path  id="圆形 3" style="stroke:#050B1E; stroke-width:2; stroke-opacity:1; stroke-dasharray:0 0" transform="translate(75.86971368291097 115.09117950199723)  rotate(-16.697394664234103 6.406584006099379 5.75)" d="" /><path id="并集" fill-rule="evenodd" style="fill:#050B1E" transform="translate(57.487771152802 129.4929047509759)  rotate(0 4 3)" opacity="1" d="M0 2C0 0.9 1.79 0 4 0C6.21 0 8 0.9 8 2C8 3.01571 6.4738 3.8609 4.5 3.98446L4.5 5.5C4.5 5.63 4.45 5.76 4.35 5.85C4.26 5.95 4.13 6 4 6C3.87 6 3.74 5.95 3.65 5.85C3.55 5.76 3.5 5.63 3.5 5.5L3.5 3.98446C1.5262 3.8609 0 3.01571 0 2Z " /><path id="矩形 1" fill-rule="evenodd" style="fill:#43CF7C" transform="translate(32.59117652424766 130.62825398569024)  rotate(41.2694987708701 1 2.5)" opacity="1" d="M1,5L1,5C1.27,5 1.52,4.89 1.71,4.71C1.89,4.52 2,4.27 2,4L2,1C2,0.73 1.89,0.48 1.71,0.29C1.52,0.11 1.27,0 1,0L1,0C0.73,0 0.48,0.11 0.29,0.29C0.11,0.48 0,0.73 0,1L0,4C0,4.27 0.11,4.52 0.29,4.71C0.48,4.89 0.73,5 1,5Z " /><path id="矩形 1" fill-rule="evenodd" style="fill:#43CF7C" transform="translate(91.07655992595119 130.62825398569024)  rotate(-41.2694987708701 1 2.5)" opacity="1" d="M0,1L0,4C0,4.27 0.11,4.52 0.29,4.71C0.48,4.89 0.73,5 1,5L1,5C1.27,5 1.52,4.89 1.71,4.71C1.89,4.52 2,4.27 2,4L2,1C2,0.73 1.89,0.48 1.71,0.29C1.52,0.11 1.27,0 1,0L1,0C0.73,0 0.48,0.11 0.29,0.29C0.11,0.48 0,0.73 0,1Z " /><path id="矩形 1" fill-rule="evenodd" style="fill:#43CF7C" transform="translate(93.0860612161714 129.63877598621823)  rotate(-42.894116442121 1 2)" opacity="1" d="M0,1L0,3C0,3.27 0.11,3.52 0.29,3.71C0.48,3.89 0.73,4 1,4L1,4C1.27,4 1.52,3.89 1.71,3.71C1.89,3.52 2,3.27 2,3L2,1C2,0.73 1.89,0.48 1.71,0.29C1.52,0.11 1.27,0 1,0L1,0C0.73,0 0.48,0.11 0.29,0.29C0.11,0.48 0,0.73 0,1Z " /><path id="矩形 1" fill-rule="evenodd" style="fill:#43CF7C" transform="translate(87.96924337472865 132.42725910067227)  rotate(-14.928406092338776 1 2)" opacity="1" d="M0,1L0,3C0,3.27 0.11,3.52 0.29,3.71C0.48,3.89 0.73,4 1,4L1,4C1.27,4 1.52,3.89 1.71,3.71C1.89,3.52 2,3.27 2,3L2,1C2,0.73 1.89,0.48 1.71,0.29C1.52,0.11 1.27,0 1,0L1,0C0.73,0 0.48,0.11 0.29,0.29C0.11,0.48 0,0.73 0,1Z " /><path id="矩形 1" fill-rule="evenodd" style="fill:#43CF7C" transform="translate(30.581675234027443 129.63877598621823)  rotate(42.894116442121 1 2)" opacity="1" d="M1,4L1,4C1.27,4 1.52,3.89 1.71,3.71C1.89,3.52 2,3.27 2,3L2,1C2,0.73 1.89,0.48 1.71,0.29C1.52,0.11 1.27,0 1,0L1,0C0.73,0 0.48,0.11 0.29,0.29C0.11,0.48 0,0.73 0,1L0,3C0,3.27 0.11,3.52 0.29,3.71C0.48,3.89 0.73,4 1,4Z " /><path id="矩形 1" fill-rule="evenodd" style="fill:#43CF7C" transform="translate(35.698493075470196 132.42725910067227)  rotate(14.928406092338776 1 2)" opacity="1" d="M1,4L1,4C1.27,4 1.52,3.89 1.71,3.71C1.89,3.52 2,3.27 2,3L2,1C2,0.73 1.89,0.48 1.71,0.29C1.52,0.11 1.27,0 1,0L1,0C0.73,0 0.48,0.11 0.29,0.29C0.11,0.48 0,0.73 0,1L0,3C0,3.27 0.11,3.52 0.29,3.71C0.48,3.89 0.73,4 1,4Z " /><path id="路径 2" fill-rule="evenodd" style="fill:#FFFFFF" transform="translate(30.910000000000082 147.12130479915825)  rotate(0 11.33329544816545 7.060907497554704)" opacity="1" d="M5.08,13.37C9.58,15.37 17.3,12.93 20.58,11.37C22.58,10.37 23.58,8.37 21.58,6.37C15.08,3.37 10.08,-2.13 3.58,0.87C-2.92,3.87 0.58,11.37 5.08,13.37Z " /><path  id="路径 2" style="stroke:#050B1E; stroke-width:2; stroke-opacity:1; stroke-dasharray:0 0" transform="translate(30.910000000000082 147.24985553913237)  rotate(0 11.333590937985976 6.996632127567617)" d="M5.08,13.24C9.58,15.24 17.3,12.8 20.58,11.24C22.58,10.24 23.58,7.74 21.58,6.24C19.58,4.74 10.08,-2.26 3.58,0.74C-2.92,3.74 0.58,11.24 5.08,13.24Z " /><path id="路径 4"  style="fill:#050B1E" transform="translate(116.987771152802 102.99290475097612)  rotate(0 33.60672636401499 27.749999999999996)" opacity="1" d="M5.88518 13.7113L5.88523 13.7113Q6.18676 13.4762 6.73652 13.0716Q7.82753 12.2686 9.08173 11.4094Q13.0904 8.66328 17.2422 6.37428Q23.0696 3.16146 28.3622 1.3211Q35.0374 -1 40.5 -1Q46.3922 -1 51.4245 1.74728Q55.7532 4.11048 59.2136 8.36941Q62.1185 11.9446 64.1251 16.4696Q64.9866 18.4124 65.605 20.3708Q66.1689 22.1569 66.4751 23.7745Q67.9901 29.2928 68.1863 34.5911Q68.3546 39.1332 67.5515 43.4048Q66.9003 46.8688 65.6394 50.0163Q64.7129 52.3288 63.5371 54.2851Q63.5299 54.2971 63.5224 54.3088Q62.8487 55.3621 61.7405 55.9469Q60.6443 56.5254 59.3993 56.5L0 56.5Q-0.0984914 56.5 -0.19509 56.4808Q-0.291689 56.4616 -0.382683 56.4239Q-0.473678 56.3862 -0.55557 56.3315Q-0.637463 56.2767 -0.707107 56.2071Q-0.776751 56.1375 -0.83147 56.0556Q-0.886188 55.9737 -0.923879 55.8827Q-0.96157 55.7917 -0.980785 55.6951Q-1 55.5985 -1 55.5Q-1 55.4015 -0.980785 55.3049Q-0.96157 55.2083 -0.923879 55.1173Q-0.886188 55.0263 -0.83147 54.9444Q-0.776751 54.8625 -0.707107 54.7929Q-0.637463 54.7232 -0.55557 54.6685Q-0.473678 54.6138 -0.382683 54.5761Q-0.291689 54.5384 -0.19509 54.5192Q-0.0984914 54.5 0 54.5L59.41 54.5Q59.4214 54.5 59.4327 54.5003Q60.165 54.5169 60.807 54.1781Q61.4426 53.8427 61.8306 53.2421Q62.9191 51.4285 63.7828 49.2725Q64.9709 46.3068 65.586 43.0352Q66.3477 38.9836 66.1877 34.6651Q65.9994 29.5802 64.5359 24.2655Q64.5248 24.2253 64.5171 24.1843Q64.2326 22.6668 63.6978 20.973Q63.113 19.121 62.2968 17.2804Q60.3982 12.999 57.6614 9.63059Q54.4493 5.67725 50.4661 3.50272Q45.8818 1 40.5 1Q35.3752 1 29.0191 3.21015Q23.8866 4.99481 18.2078 8.12572Q14.1408 10.368 10.212 13.0594Q8.98579 13.8994 7.92208 14.6823Q7.39456 15.0706 7.11482 15.2887L6.49655 14.4956L7.11477 15.2887Q6.95788 15.411 6.76614 15.4639Q6.57441 15.5169 6.37701 15.4924Q6.1796 15.4679 6.00659 15.3698Q5.83358 15.2717 5.71129 15.1148Q5.65075 15.0371 5.60652 14.9491Q5.56229 14.8611 5.53607 14.7662Q5.50986 14.6712 5.50267 14.573Q5.49548 14.4748 5.50759 14.377Q5.5197 14.2793 5.55064 14.1858Q5.58159 14.0923 5.63018 14.0066Q5.67877 13.921 5.74314 13.8464Q5.80751 13.7719 5.88518 13.7113Z " /><path  id="路径 4" style="stroke:#050B1E; stroke-width:2; stroke-opacity:1; stroke-dasharray:0 0" transform="translate(116.987771152802 102.99290475097612)  rotate(0 33.60672636401499 27.749999999999996)" d="" /><path id="路径 5"  style="fill:#050B1E" transform="translate(147.487771152802 131.4929047509759)  rotate(0 6.000000000000002 13.5)" opacity="1" d="M11.2652 -0.67828Q11.332 -0.750652 11.4116 -0.8086Q11.4913 -0.866548 11.5807 -0.907846Q11.6701 -0.949143 11.7659 -0.972204Q11.8616 -0.995264 11.96 -0.999201Q12.0584 -1.00314 12.1557 -0.987799Q12.253 -0.97246 12.3454 -0.938436Q12.4379 -0.904412 12.5219 -0.85301Q12.6059 -0.801608 12.6783 -0.734803Q12.7506 -0.667998 12.8086 -0.588358Q12.8665 -0.508718 12.9078 -0.419303Q12.9491 -0.329888 12.9722 -0.234134Q12.9953 -0.138381 12.9992 -0.0399679Q13.0031 0.0584447 12.9878 0.155734Q12.9725 0.253024 12.9384 0.345452Q12.9044 0.43788 12.853 0.521894Q12.8016 0.605908 12.7348 0.67828Q12.5595 0.868199 12.2509 1.22762Q11.6253 1.95624 10.9754 2.78769Q8.89489 5.4495 7.36824 8.12114Q5.25484 11.8196 4.53781 14.9865Q3.6736 18.8034 4.91381 21.5939Q4.95265 21.6812 4.97422 21.7744Q4.99579 21.8676 4.99932 21.9631Q5.00285 22.0587 4.9882 22.1532Q4.97355 22.2477 4.94126 22.3377Q4.90897 22.4277 4.8602 22.51Q4.81144 22.5922 4.74796 22.6637Q4.68449 22.7353 4.60862 22.7935Q4.53274 22.8517 4.44721 22.8944Q2.24536 23.9954 1.39443 25.6972Q1.14182 26.2024 1.04308 26.6961Q1 26.9115 1 27Q1 27.0985 0.980785 27.1951Q0.96157 27.2917 0.923879 27.3827Q0.886188 27.4737 0.83147 27.5556Q0.776751 27.6375 0.707107 27.7071Q0.637463 27.7767 0.55557 27.8315Q0.473678 27.8862 0.382683 27.9239Q0.291689 27.9616 0.19509 27.9808Q0.0984914 28 0 28Q-0.0984914 28 -0.19509 27.9808Q-0.291689 27.9616 -0.382683 27.9239Q-0.473678 27.8862 -0.55557 27.8315Q-0.637463 27.7767 -0.707107 27.7071Q-0.776751 27.6375 -0.83147 27.5556Q-0.886188 27.4737 -0.923879 27.3827Q-0.96157 27.2917 -0.980785 27.1951Q-1 27.0985 -1 27Q-1 26.7135 -0.918081 26.3039Q-0.766817 25.5476 -0.394427 24.8028Q0.115646 23.7826 0.980393 22.9179Q1.74261 22.1557 2.75035 21.5468Q1.70181 18.4552 2.58719 14.5448Q3.37016 11.0866 5.63176 7.12886Q7.23011 4.33174 9.39961 1.55606Q10.0779 0.688286 10.7335 -0.0752735Q11.0655 -0.461946 11.2652 -0.67828Z " /><path  id="路径 5" style="stroke:#050B1E; stroke-width:2; stroke-opacity:1; stroke-dasharray:0 0" transform="translate(147.487771152802 131.4929047509759)  rotate(0 6.000000000000002 13.5)" d="" /><path id="路径 3" fill-rule="evenodd" style="fill:#FFFFFF" transform="translate(88.00777115280198 148.4929047509759)  rotate(0 16.740000000000006 6.750000000000001)" opacity="1" d="M0.48,7.5C-1.02,11 0.48,13.5 12.48,13.5C24.48,13.5 33.48,7.5 33.48,7.5L13.48,0C13.48,0 1.98,4 0.48,7.5Z " /><path id="路径 3"  style="fill:#050B1E" transform="translate(88.00777115280198 148.4929047509759)  rotate(0 16.740000000000006 6.750000000000001)" opacity="1" d="M13.1515 -0.944497Q13.2445 -0.976854 13.3421 -0.99044Q13.4396 -1.00403 13.5379 -0.998321Q13.6363 -0.992615 13.7316 -0.967837Q13.8269 -0.943058 13.9156 -0.90016Q14.0042 -0.85726 14.0828 -0.797889Q14.1614 -0.738518 14.2269 -0.664957Q14.2924 -0.591395 14.3423 -0.506471Q14.3921 -0.421546 14.4245 -0.328521Q14.4898 -0.140649 14.4783 0.0579298Q14.4668 0.256508 14.3802 0.435561Q14.2989 0.603398 14.1627 0.730691Q14.0265 0.857983 13.8535 0.927625Q13.8312 0.936602 13.8085 0.944497Q13.1073 1.18839 12.0231 1.61132Q9.85115 2.45853 7.96741 3.34274Q5.35725 4.56791 3.70224 5.68128Q2.7558 6.31798 2.16557 6.89059Q1.58971 7.44926 1.39914 7.89392Q0.906998 9.04226 1.02193 9.75483Q1.13447 10.4526 1.95031 10.9663Q4.38624 12.5 12.48 12.5Q16.4952 12.5 20.6068 11.5863Q23.9027 10.8539 27.1086 9.57152Q29.3971 8.65612 31.4074 7.5596Q32.3997 7.01834 32.9253 6.66795Q33.0908 6.55761 33.2859 6.51901Q33.4811 6.48041 33.6761 6.51942Q33.8712 6.55843 34.0364 6.66911Q34.2017 6.7798 34.312 6.9453Q34.3667 7.02725 34.4043 7.11828Q34.4419 7.20932 34.461 7.30594Q34.4801 7.40255 34.48 7.50105Q34.4799 7.59954 34.4606 7.69612Q34.4413 7.7927 34.4035 7.88365Q34.3657 7.97461 34.3109 8.05644Q34.2561 8.13828 34.1864 8.20785Q34.1166 8.27742 34.0347 8.33205Q33.4353 8.73165 32.3651 9.3154Q30.2504 10.4689 27.8514 11.4285Q24.4948 12.7711 21.0407 13.5387Q16.7148 14.5 12.48 14.5Q8.03217 14.5 5.17341 14.0421Q2.36817 13.5928 0.884687 12.6587Q-0.696079 11.6634 -0.952554 10.0733Q-1.15989 8.78782 -0.439146 7.10608Q0.648212 4.56891 7.11759 1.53226Q9.06196 0.619602 11.2963 -0.251945Q12.4152 -0.688391 13.1515 -0.944497Z " /><path  id="路径 3" style="stroke:#050B1E; stroke-width:2; stroke-opacity:1; stroke-dasharray:0 0" transform="translate(88.00777115280198 148.4929047509759)  rotate(0 16.740000000000006 6.750000000000001)" d="" /><path id="路径 7" fill-rule="evenodd" style="fill:#43CF7C" transform="translate(87.63365603278908 25.70457975912862)  rotate(-12.369606414496836 14.499999999999996 12)" opacity="1" d="M0.5,5.5L15.99,5.5C16.21,5.5 16.4,5.64 16.46,5.84C16.53,6.05 16.46,6.27 16.29,6.4L0.2,18.35C0.07,18.44 0,18.59 0,18.75L0,23.5C0,23.78 0.22,24 0.5,24L28.5,24C28.78,24 29,23.78 29,23.5L29,18C29,17.72 28.78,17.5 28.5,17.5L14.5,17.5C14.28,17.5 14.09,17.36 14.03,17.16C13.96,16.95 14.03,16.73 14.2,16.6L28.8,5.65C28.93,5.56 29,5.41 29,5.25L29,0.5C29,0.22 28.78,0 28.5,0L0.5,0C0.22,0 0,0.22 0,0.5L0,5C0,5.28 0.22,5.5 0.5,5.5Z " /><path id="路径 7" fill-rule="evenodd" style="fill:#43CF7C" transform="translate(131.25 7.26130479915824)  rotate(-5.152303450421805 10.5 9)" opacity="1" d="M0,0.5L0,3.62C0,3.9 0.22,4.12 0.5,4.12L11.2,4.12C11.42,4.12 11.61,4.25 11.68,4.46C11.75,4.66 11.68,4.89 11.51,5.02L0.2,13.72C0.07,13.81 0,13.96 0,14.12L0,17.5C0,17.78 0.22,18 0.5,18L20.5,18C20.78,18 21,17.78 21,17.5L21,13.62C21,13.34 20.78,13.12 20.5,13.12L10.87,13.12C10.66,13.11 10.48,12.98 10.41,12.78C10.34,12.58 10.41,12.36 10.57,12.23L20.81,4.28C20.93,4.18 21,4.04 21,3.88L21,0.5C21,0.22 20.78,0 20.5,0L0.5,0C0.22,0 0,0.22 0,0.5Z " /><path id="路径 7" fill-rule="evenodd" style="fill:#43CF7C" transform="translate(168.05999999999995 0.17130479915820818)  rotate(-1.261922854403835 7.852600109320165 6.730800093702999)" opacity="1" d="M0,10.62L0,12.96C0,13.24 0.22,13.46 0.5,13.46L15.21,13.46C15.49,13.46 15.71,13.24 15.71,12.96L15.71,10.32C15.71,10.04 15.49,9.82 15.21,9.82L8.5,9.82C8.28,9.82 8.09,9.69 8.02,9.48C7.95,9.28 8.02,9.05 8.19,8.92L15.51,3.24C15.64,3.15 15.71,3 15.71,2.84L15.71,0.5C15.71,0.22 15.49,0 15.21,0L0.5,0C0.22,0 0,0.22 0,0.5L0,2.58C0,2.86 0.22,3.08 0.5,3.08L8.01,3.08C8.23,3.08 8.42,3.22 8.48,3.42C8.55,3.63 8.48,3.85 8.31,3.98L0.2,10.23C0.08,10.32 0,10.47 0,10.62Z " /></g></g></g></svg>