<svg xmlns="http://www.w3.org/2000/svg" xmlns:xlink="http://www.w3.org/1999/xlink" width="16" height="16" viewBox="0 0 16 16" fill="none"><defs><rect id="path_0" x="0" y="0" width="16" height="16" /></defs><g opacity="1" transform="translate(0 0)  rotate(0 8 8)"><mask id="bg-mask-0" fill="white"><use xlink:href="#path_0"></use></mask><g mask="url(#bg-mask-0)" ><path id="分组 1" fill-rule="evenodd" style="fill:#FFFFFF" transform="translate(0.020543880131022818 9.936973463381404e-7)  rotate(0 7.97461462020874 7.999999503151326)" opacity="1" d="M12.39 11.43C13.21 10.31 13.64 8.94 13.51 7.54C13.36 5.79 12.47 4.07 10.94 2.52C6.58 -1.8 1.28 0.72 1.08 0.8L0.88 0.87L0.78 1.1C0.76 1.17 -1.84 6.59 2.56 10.98C4.3 12.73 6.25 13.63 8.1 13.63C9.27 13.63 10.47 13.2 11.44 12.46L14.79 15.8C14.94 15.95 15.14 16 15.29 16C15.44 16 15.64 15.93 15.79 15.8C16.01 15.45 16.01 15.05 15.74 14.78L12.39 11.43Z M3.5319 9.98144C5.8219 12.2514 8.5019 12.8314 10.3419 11.3314L8.4019 9.38144L7.9719 8.96144L4.7019 8.96144C4.2819 8.96144 4.0019 8.69144 4.0019 8.26144C4.0019 7.84144 4.2819 7.56144 4.7019 7.56144L6.5719 7.56144L5.2519 6.24144C4.9819 5.96144 4.9819 5.54144 5.2519 5.27144C5.5219 4.99144 5.9519 4.99144 6.2219 5.27144L8.1519 7.21144L8.1519 5.34144C8.1519 4.92144 8.4219 4.64144 8.8419 4.64144C9.2719 4.64144 9.5419 4.92144 9.5419 5.34144L9.5419 8.59144L11.3419 10.3814C11.9619 9.63144 12.1919 8.66144 12.1119 7.61144C11.9919 6.24144 11.2919 4.84144 9.9719 3.52144C6.7219 0.271437 2.9019 1.50144 1.9319 1.92144C1.5819 2.89144 0.261902 6.71144 3.5319 9.98144Z " /></g></g></svg>