<svg xmlns="http://www.w3.org/2000/svg" xmlns:xlink="http://www.w3.org/1999/xlink" width="422" height="327" viewBox="0 0 422 327" fill="none"><g opacity="0.25" transform="translate(47.13499999999999 -47.13499999999999)  rotate(-90 163.365 210.5)"><g opacity="1" transform="translate(238.66000000000003 260.21)  rotate(-360 39.93 76.63)"><path id="path322" fill-rule="evenodd" style="fill:#61B15A" transform="translate(0 0)  rotate(0 39.93 76.63)" opacity="1" d="M58.63 19.75C52.91 28.37 47.56 37.29 42.78 46.47C37.44 56.72 33.14 67.33 29.57 78.31C25.93 89.5 22.62 100.81 18.21 111.72C13.62 123.1 6.05 132.55 0.1 143.18C-0.47 144.19 1.53 145.16 2.1 144.14C7.16 135.09 13.78 126.95 18.16 117.5C23 107.04 26.28 95.84 29.77 84.88C33.18 74.16 36.85 63.65 41.73 53.5C46.31 44.01 51.63 34.93 57.22 26.01C62.57 17.5 68.41 8.3 76.77 2.4C78.3296 5.73562 77.7924 10.2903 77.3637 13.9247C77.3169 14.3217 77.2714 14.7077 77.23 15.08C76.78 19.21 76.01 23.32 75.85 27.48C75.37 40.69 74.26 53.69 70.81 66.51C64.4 90.28 50.65 110.56 32.76 127.23C23.07 136.27 12.42 144.22 1.35 151.48C0.24 152.21 1.75 153.73 2.69 153.12C22.8 139.92 41.83 124.31 55.66 104.42C70.89 82.5 77.28 56.49 77.94 30.05C78.08 24.68 79.02 19.43 79.52 14.09L79.5288 13.9961C79.9372 9.62404 80.4316 4.33252 77.87 0.5C77.59 0.08 76.8 -0.16 76.36 0.12C68.94 5.03 63.5 12.43 58.63 19.75Z" /></g><g opacity="1" transform="translate(239.81 260.7)  rotate(-360 43.46 80.15)"><path id="path326" fill-rule="evenodd" style="fill:#61B15A" transform="translate(0 0)  rotate(0 43.46 80.15)" opacity="1" d="M84.85,0.47C75.57,22.26 71.91,45.95 62.7,67.76C57.99,78.93 51.42,89.27 45.05,99.56C41.71,104.96 38.24,110.29 34.51,115.44C31.04,120.23 27.17,124.71 23.63,129.46C16.2,139.44 9.68,150.42 0.26,158.72C-0.66,159.53 1.13,160.82 1.98,160.08C10.38,152.68 16.47,143.1 22.97,134.08C29.85,124.52 37.41,115.6 43.8,105.67C50.45,95.33 57.31,84.71 62.55,73.56C67.51,63.02 70.92,51.85 74.12,40.67C77.91,27.44 81.44,14.12 86.85,1.43C87.31,0.35 85.31,-0.6 84.85,0.47Z " /></g><g opacity="1" transform="translate(167.83 183.56)  rotate(-360 13.655 96.395)"><path id="path330" fill-rule="evenodd" style="fill:#61B15A" transform="translate(0 0)  rotate(0 13.655 96.395)" opacity="1" d="M25.77 192.29C26.11 193.08 27.65 192.92 27.24 191.95C19.3969 173.56 19.1279 153.748 18.8599 134.014C18.7472 125.718 18.6348 117.436 17.96 109.28C17.83 107.7 17.67 106.13 17.48 104.58C19.68 97.27 21.18 89.78 22.85 82.34C24.2 76.27 25.69 70.51 26.05 64.27C26.4 58.41 26.57 52.43 26.15 46.56C25.56 38.47 21.23 31.87 18.06 24.63C14.58 16.7 12.24 8.27 8.32 0.54C8.09 0.08 7.09 -0.31 6.83 0.35C2.8 10.56 -0.38 22.48 0.04 33.54C0.44 44.1 3.41 54.81 6.32 64.91C7.85 70.22 9.76 75.41 11.26 80.73C13.35 88.12 14.86 95.68 15.78 103.3C17.52 117.77 17.09 132.37 17.55 146.91C18.05 162.38 19.64 177.92 25.77 192.29Z" /></g><g opacity="1" transform="translate(177.31 183.6)  rotate(-360 5.525 52.505)"><path id="path334" fill-rule="evenodd" style="fill:#61B15A" transform="translate(0 0)  rotate(0 5.525 52.505)" opacity="1" d="M3.6,22.32C3.62,15.38 4.34,7.04 1.54,0.5C1.2,-0.29 -0.34,-0.12 0.07,0.84C2.68,6.93 2.02,14.76 2,21.23C2,24.32 1.92,27.41 2.05,30.49C2.23,35.02 3.3,39.39 4.4,43.77C7.68,56.84 8.32,70.54 8.94,83.95C9.26,90.64 9.61,97.43 9.11,104.12C9.05,104.97 10.64,105.42 10.71,104.5C11.67,91.63 10.42,78.33 9.3,65.5C8.77,59.42 8.22,53.28 6.85,47.32C5.65,42.11 4.01,36.96 3.68,31.59C3.49,28.51 3.59,25.41 3.6,22.32Z " /></g><g opacity="1" transform="translate(111.02000000000004 297.81)  rotate(-360 31.4 33.425)"><path id="path338" fill-rule="evenodd" style="fill:#61B15A" transform="translate(0 0)  rotate(0 31.4 33.425)" opacity="1" d="M1.34 66.74C1.05 66.94 0.68 66.85 0.41 66.64C0.08 66.45 -0.13 66.11 0.09 65.77C5.3 57.72 9.07 48.86 14.09 40.69C17.68 34.86 21.79 29.33 26.25 24.14C35.27 13.63 47.28 1.95 61.66 0.01C62.1 -0.05 62.93 0.27 62.78 0.87C61.98 4.14 60.16 6.79 58.09 9.38C55.45 12.68 53.11 16.01 51.08 19.73C47.16 26.9 43.17 33.67 37.65 39.75C32.43 45.5 26.47 50.83 20.07 55.24C14.03 59.39 7.49 62.76 1.34 66.74Z" /></g><g opacity="1" transform="translate(110.98000000000002 297.83)  rotate(-360 29.985 32.54)"><path id="path342" fill-rule="evenodd" style="fill:#61B15A" transform="translate(0 0)  rotate(0 29.985 32.54)" opacity="1" d="M29.41,28.56C20.6,41.15 9.23,51.49 0.13,63.83C-0.42,64.58 0.92,65.52 1.42,64.85C10.21,52.93 21.36,43.03 29.82,30.85C37.9,19.22 48.94,10.16 59.77,1.17C60.47,0.59 59.13,-0.38 58.48,0.16C48.13,8.74 37.17,17.47 29.41,28.56Z " /></g><g opacity="1" transform="translate(176.82000000000002 242.49)  rotate(-360 28.325 30.815)"><path id="path346" fill-rule="evenodd" style="fill:#61B15A" transform="translate(0 0)  rotate(0 28.325 30.815)" opacity="1" d="M1.1 0.08C0.66 -0.1 -0.12 0.01 0.02 0.66C2.93 14.27 12.36 25.72 21.5 35.77C31.24 46.47 42.53 54.68 55.33 61.39C55.45 61.49 55.6 61.56 55.76 61.59C56.04 61.68 56.28 61.61 56.43 61.46C56.62 61.32 56.71 61.08 56.6 60.75C54.48 54.55 50.71 48.96 46.88 43.71C42.8 38.12 38.39 32.7 33.69 27.61C28.6 22.09 22.6 17.78 17.13 12.7C12.14 8.06 7.53 2.73 1.1 0.08Z" /></g><g opacity="1" transform="translate(176.75000000000003 244.63)  rotate(-360 27.575 29.7)"><path id="path350" fill-rule="evenodd" style="fill:#61B15A" transform="translate(0 0)  rotate(0 27.575 29.7)" opacity="1" d="M25.64,29.05C35.05,39.02 44.14,49.27 53.68,59.12C54.3,59.75 55.68,59.22 54.93,58.45C45.4,48.6 36.3,38.35 26.9,28.38C18.23,19.19 8.95,10.55 1.42,0.35C0.88,-0.39 -0.47,0.14 0.17,1.02C7.69,11.22 16.97,19.86 25.64,29.05Z " /></g><g opacity="1" transform="translate(175.8 310.36)  rotate(-360 29.285 19.91)"><path id="path354" fill-rule="evenodd" style="fill:#61B15A" transform="translate(0 0)  rotate(0 29.285 19.91)" opacity="1" d="M0.65 0C0.03 0.01 -0.17 0.56 0.15 1.04C1.72 3.35 3.79 5.11 5.92 6.9C8.87 9.39 10.92 12.09 12.97 15.32C16.2 20.4 20.34 24.96 25 28.76C34.13 36.19 46.34 39.16 57.9 39.82C58.29 39.84 58.48 39.67 58.52 39.43C58.61 39.26 58.59 39.04 58.39 38.78C54.69 33.93 50.11 29.92 45.44 26.03C40.7 22.09 36.22 17.83 31.36 14.05C26.73 10.45 21.76 7.57 16.46 5.1C15.8113 4.79824 15.1619 4.48816 14.5103 4.17711C10.1095 2.07608 5.61494 -0.0696834 0.65 0Z" /></g><g opacity="1" transform="translate(175.88000000000002 310.54)  rotate(-360 29.19 19.83)"><path id="path358" fill-rule="evenodd" style="fill:#61B15A" transform="translate(0 0)  rotate(0 29.19 19.83)" opacity="1" d="M1.12,1.45C3.06,1.04 5.82,3.12 7.32,4.08C9.3,5.36 11.2,6.77 13.07,8.21C18.11,12.11 23.14,16.04 28.08,20.07C37.17,27.47 46.34,35.65 57.58,39.6C58.6,39.96 58.64,38.57 57.73,38.26C44.84,33.73 34.65,23.44 24.1,15.17C19.67,11.71 15.33,8.08 10.75,4.81C8.17,2.97 3.93,-0.64 0.47,0.1C-0.55,0.32 0.29,1.63 1.12,1.45Z " /></g><g opacity="1" transform="translate(125.86000000000001 247.79)  rotate(-360 25.93 40.165)"><path id="path362" fill-rule="evenodd" style="fill:#61B15A" transform="translate(0 0)  rotate(0 25.93 40.165)" opacity="1" d="M14.21 34.25C4.29 46.87 0.52 63.5 0.05 79.3C-0.1 79.58 0.11 79.91 0.43 80.11C0.83 80.39 1.41 80.43 1.59 80.06C7.97 74.93 13.16 68.64 18.2 62.24C23.29 55.77 28.83 49.62 33.72 43.01C38.46 36.61 42.28 29.76 45.44 22.45C45.8732 21.4427 46.3235 20.4332 46.7756 19.4196C49.4337 13.4606 52.1548 7.36055 51.83 0.72C51.81 0.21 50.96 -0.19 50.54 0.1C47.32 2.36 44.96 5.38 42.52 8.43C39.78 11.85 36.81 14.55 33.16 17C25.99 21.82 19.57 27.44 14.21 34.25Z" /></g><g opacity="1" transform="translate(126.09 248.03)  rotate(-360 25.78 40.06)"><path id="path366" fill-rule="evenodd" style="fill:#61B15A" transform="translate(0 0)  rotate(0 25.78 40.06)" opacity="1" d="M41.62,16.86C36.76,23.61 31.74,30.27 26.71,36.89C16.73,50 5.11,63.05 0.03,79.03C-0.23,79.87 1.27,80.58 1.53,79.75C7.01,62.51 19.98,48.69 30.58,34.47C35.23,28.23 40.03,22.07 44.48,15.68C46.46,12.84 48.4,9.92 49.93,6.81C50.8,5.04 51.96,2.71 51.42,0.67C51.21,-0.14 49.59,-0.3 49.84,0.65C50.49,3.1 48.42,6.23 47.27,8.25C45.58,11.24 43.63,14.08 41.62,16.86Z " /></g><g opacity="1" transform="translate(0 185.63)  rotate(-360 64.695 62.71)"><path id="path370" fill-rule="evenodd" style="fill:#61B15A" transform="translate(0 0)  rotate(0 64.695 62.71)" opacity="1" d="M49.51,65.84C58.58,63.34 67.03,59.22 75.34,53.24C76.49,53.8 77.63,54.37 78.77,54.94C83.1,57.11 87.59,59.35 92.1,61.35C98.66,64.26 104.39,66.22 109.88,67.42C99.52,68.33 89.25,71.27 79.98,76L79.68,76.15C74.59,78.77 69.61,81.87 64.79,84.86C62.67,86.18 60.48,87.54 58.3,88.85C47.07,84.24 36.74,82.93 27.59,84.96C22.71,86.04 18.22,88.2 14.25,91.38C13.2,92.22 12.18,93.12 11.18,93.98C8.03,96.72 4.78,99.55 0.69,100.85C0.23,100.99 -0.05,101.59 0.01,102.03C0.05,102.39 0.32,102.64 0.74,102.67C10.21,103.25 20,103.84 29.55,102.36C37.06,101.19 44.78,98.4 53.17,93.81C57.35,91.52 61.46,88.97 65.43,86.51C68.58,84.55 71.83,82.54 75.09,80.66C75.62,80.36 76.15,80.06 76.69,79.77C73.68,84.59 72.48,90.82 71.49,95.93C69.74,105.01 68,114.69 67.59,124.51C67.57,124.9 67.78,125.23 68.12,125.37C68.46,125.5 68.83,125.39 69.08,125.09C69.35,124.77 69.62,124.45 69.89,124.14C70.83,123.05 71.73,122.01 72.49,120.68C73.55,118.85 74.76,116.7 75.8,114.52C77.65,110.65 78.89,106.51 79.85,102.98C80.88,99.2 81.85,95.08 82,90.58C82.07,88.63 82.04,86.65 82.02,84.74C81.99,82.23 81.96,79.63 82.13,77.09C82.13,77.05 82.13,77 82.13,76.96C88.54,73.88 94.66,71.78 100.83,70.53C110.22,68.62 119.75,68.44 129.19,69.99C129.27,69.35 129.33,68.72 129.39,68.09C126.46,67.63 123.46,67.33 120.43,67.19C119.29,65.29 117.85,63.58 116.46,61.93C114.62,59.75 112.72,57.5 111.57,54.83C111.09,53.74 110.63,52.65 110.16,51.56C108.24,47.05 106.25,42.39 103.86,37.98C100.94,32.59 97.96,28.06 94.75,24.15C90.91,19.46 86.31,15.64 82.29,12.43C79.63,10.3 77.28,8.04 75.11,5.53C73.2,3.33 71.27,1.26 68.57,0.08C68.3,-0.05 67.99,-0.02 67.73,0.14C67.44,0.32 67.25,0.64 67.24,0.96C66.73,12.03 73.61,22.62 78.83,29.63C82.04,33.93 85.66,38.08 89.58,41.95C93.55,45.87 97.98,49.32 102.28,52.67L104.16,54.13C107.08,56.4 110.1,58.75 112.51,61.55C113.06,62.19 113.59,62.86 114.12,63.52C114.96,64.57 115.81,65.64 116.76,66.63C103.5,65.14 91.35,59.07 79.59,53.19C77.47,52.14 75.36,51.08 73.26,50.06C68,47.51 63.33,45.48 58.96,43.86C55.4,40.38 51.62,37.02 47.97,33.77L47.58,33.42C46.75,32.69 45.93,31.93 45.11,31.17C42.23,28.51 39.25,25.76 35.82,23.79C31.06,21.05 25.55,20.8 20.76,20.78C16.59,20.77 12.43,20.78 8.26,20.78L2.21,20.79C1.86,20.79 1.54,21.01 1.37,21.38C1.32,21.5 1.28,21.62 1.27,21.74C1.25,21.99 1.32,22.22 1.47,22.39C7.05,28.86 12.29,34.43 19.85,37.06C24.68,38.74 29.85,39.41 34.85,40.06C38.14,40.48 41.54,40.92 44.8,41.65C52.76,43.43 61,46.36 70,50.63C70.42,50.83 70.84,51.03 71.27,51.24C68.05,51.24 64.87,51.69 61.89,52.2C57.28,52.98 52.81,53.99 48.61,55.2C45.66,56.05 42.84,57.26 40.12,58.43C38.33,59.2 36.48,59.99 34.61,60.67C33.95,60.91 33.28,61.15 32.61,61.38C29.12,62.6 25.51,63.87 22.6,66.39C22.33,66.62 22.22,67 22.3,67.36C22.37,67.66 22.59,67.89 22.88,67.97C31.87,70.3 41.34,68.09 49.51,65.84Z " /></g><g opacity="1" transform="translate(92.11000000000001 0)  rotate(-360 24.15 47.58)"><path id="path374" fill-rule="evenodd" style="fill:#61B15A" transform="translate(0 0)  rotate(0 24.15 47.58)" opacity="1" d="M33.13,5.57C34.55,18.01 40.08,29.7 40.49,42.3C40.68,47.97 39.46,53.07 37.13,58.2C35.53,61.73 33.47,66.56 29.5,67.96C25.03,69.54 21.82,65.38 20.52,61.66C18.85,56.89 18.68,51.52 19.08,46.52C20.11,33.86 25.05,21.06 18.79,8.94C14.91,1.43 7.66,-0.32 0,0.05C10.03,7.15 12.31,20.4 11.75,32.07C11.45,38.31 10.08,44.27 8.73,50.35C7.22,57.21 5.91,64.74 9.2,71.3C9.25,71.4 9.26,71.5 9.27,71.6C17.31,79.56 25.43,87.45 33.73,95.16C34.21,91.89 34.78,88.66 35.69,85.48C31.78,83.38 32.11,78.59 33.93,75.1C35.36,72.36 38.35,68.45 41.87,68.66C42.02,68.67 42.16,68.7 42.3,68.73C42.31,68.66 42.3,68.6 42.32,68.53C45.56,58.5 46.79,47.92 47.59,37.45C48.32,27.96 49.48,17.88 45.18,9.03C45.16,8.99 45.16,8.95 45.15,8.91C41.24,7.09 37.11,5.83 33.13,5.57Z " /></g><g opacity="1" transform="translate(130.62 0.29)  rotate(-360 38.9 33.92)"><path id="path378" fill-rule="evenodd" style="fill:#61B15A" transform="translate(0 0)  rotate(0 38.9 33.92)" opacity="1" d="M24.39,22.67C35.16,30.56 45.1,39.26 54.56,48.68C60.98,55.06 67.36,61.46 73.77,67.84C71.19,57.6 76.29,46.38 77.39,36.2C78.73,23.65 77.3,7.7 65.39,0.48C65.17,0.35 65.07,0.18 65.03,0C60.54,0.49 56.05,1.54 52.11,2.43C53.89,6.33 57.27,9.49 60.17,12.54C63.32,15.83 66.62,19.24 68.69,23.35C71.81,29.53 70.89,39.93 63.53,42.88C57.17,45.43 50.84,39.01 47.4,34.46C41.4,26.53 41.05,15.6 32.79,9.19C23.16,1.73 11.24,4.64 0,5.86C3.81,7.54 7.23,10.2 10.51,12.69C15.05,16.13 19.79,19.3 24.39,22.67Z " /></g><g opacity="1" transform="translate(48.69 10.39)  rotate(-360 28.23 56.47)"><path id="path382" fill-rule="evenodd" style="fill:#61B15A" transform="translate(0 0)  rotate(0 28.23 56.47)" opacity="1" d="M55.85,58.08C56.84,51.29 56.68,44.47 54.97,37.8C54.01,34.04 52.59,30.61 50.65,27.25C49.67,25.54 48.68,23.85 47.84,22.09C47.56,27.59 48.24,33.17 47.56,38.64C46.43,45.81 42.99,52.1 39.5,58.36C37.15,62.58 35.65,67.81 32.51,71.53C30.26,74.19 26.87,75.13 23.81,73.13C20.02,70.65 19.88,65.33 20.25,61.3C21.18,51.29 25.62,41.91 27.83,32.18C28.94,27.28 29.67,22.12 28.77,17.13C27.96,12.62 25.39,9.29 21.98,6.34C19.36,4.08 16.22,1.86 12.82,0C15.94,8.26 15.1,17.26 14.45,25.97C13.65,36.91 12.39,47.96 9,58.44C8.92,58.68 8.75,58.85 8.55,58.97C10.75,60.67 10.79,65 9.98,67.33C8.9,70.43 6.07,75.26 2.35,75.45C1.41,78.77 0.86,82.13 0.38,85.55C0.35,85.81 0.2,86.02 0,86.18C0.35,86.51 0.7,86.84 1.05,87.16C8.78,94.26 17.16,100.58 24.96,107.58C26.9,109.32 28.77,111.11 30.58,112.94C30.4,108.46 32.67,104.3 35.6,100.6C37.44,98.28 39.51,96.15 41.44,93.89C44.48,90.33 46.99,86.36 48.96,82.12C52.48,74.59 54.66,66.29 55.85,58.08Z " /></g><g opacity="1" transform="translate(161.67000000000002 7.08)  rotate(-360 24.925 18.965)"><path id="path386" fill-rule="evenodd" style="fill:#61B15A" transform="translate(0 0)  rotate(0 24.925 18.965)" opacity="1" d="M22.8,32.51C31.03,34.83 41.14,39.74 49.85,37.24C41.67,29.48 32.98,22.39 23.83,15.79C19.79,12.88 15.68,10.08 11.71,7.07C8.09,4.34 4.35,1.45 0,0C3.3,4.66 3.57,10.58 3.18,16.29C2.75,22.66 2.33,29.01 2.04,35.38C4.43,33.52 7.61,32.85 10.57,32.39C14.68,31.74 18.75,31.37 22.8,32.51Z " /></g><g opacity="1" transform="translate(32.76000000000005 128.18)  rotate(-360 59.76 35.225)"><path id="path390" fill-rule="evenodd" style="fill:#61B15A" transform="translate(0 0)  rotate(0 59.76 35.225)" opacity="1" d="M92.03,18.06C95.51,23.85 98.71,29.82 101.74,35.86C104.86,42.07 107.81,48.38 110.72,54.69C113.1,59.85 115.95,65.01 117.66,70.45C118.28,69.95 118.9,69.45 119.52,68.95C112.22,49.99 103.63,31.26 91.73,14.71C87.99,9.5 83.88,4.62 79.49,0C79.42,0.03 79.34,0.05 79.26,0.06C74.41,0.76 72.1,4.26 69.56,8.02C66.8,12.1 64.41,16.39 61.98,20.68C57.52,28.53 52.83,36.12 45.45,41.56C39.21,46.16 31.72,49.6 24.07,51.01C16.12,52.47 7.97,51.53 0,52.84C10.19,58.44 21.69,60.51 33.31,59.2C44.47,57.95 57.1,54.34 65.8,46.98C70.87,42.69 74.73,37.16 77.62,31.21C79.04,28.26 80.25,25.21 81.3,22.12C81.81,20.62 82.29,19.1 82.73,17.58C83.06,16.45 83.22,14.94 83.89,13.96C84.75,12.71 86.37,12.09 87.82,12.59C89.88,13.28 90.99,16.34 92.03,18.06Z " /></g><g opacity="1" transform="translate(24.49000000000001 30.67)  rotate(-360 24.035 82.515)"><path id="path394" fill-rule="evenodd" style="fill:#61B15A" transform="translate(0 0)  rotate(0 24.035 82.515)" opacity="1" d="M32.95,139.78C28.6,131.32 23.41,123.33 17.99,115.52C14.97,111.17 11.06,106.84 8.82,102C7.72,99.62 7.31,95.48 10.84,95.34C12.63,95.27 14.41,95.77 16.22,95.71C17.98,95.65 19.74,95.46 21.47,95.18C24.87,94.62 28.21,93.59 31.25,91.96C37.09,88.82 41.3,83.61 43.99,77.62C46.98,70.93 48.67,63.46 47.87,56.13C47.12,49.22 44.46,42.72 41.15,36.66C34.18,23.88 26.24,11.14 16.75,0C18.12,3.06 20.05,5.86 21.56,8.87C23.24,12.21 24.28,15.91 25.01,19.57C27.72,33.11 24.36,48.34 18.89,60.8C15.84,67.76 11.39,73.27 6.46,78.94C2.51,83.5 -1.59,89.12 0.62,95.37C19.31,115.17 31.68,139.57 41.53,165.03C42.3,164.39 43.07,163.75 43.83,163.1C40.4,155.29 36.85,147.36 32.95,139.78Z " /></g><g opacity="1" transform="translate(74.22000000000003 108.28)  rotate(-360 56.505 35.21)"><path id="path398" fill-rule="evenodd" style="fill:#61B15A" transform="translate(0 0)  rotate(0 56.505 35.21)" opacity="1" d="M77.72,30.01C79.64,33.74 77.07,39.76 75.32,43.04C72.56,48.21 68.49,52.73 64.08,56.53C56.81,62.79 47.94,66.73 39.11,70.42C45.8,69.86 52.59,70.34 59.22,69.08C68.01,67.42 76.77,62.96 83.27,56.83C90.39,50.12 94.5,40.8 99.43,32.52C102.83,26.83 106.29,20.14 113.01,18.42C109.58,14.9 105.99,11.53 102.25,8.3C98.92,5.42 94.98,2.83 91.62,0C87.75,4.42 80.41,6.83 76.4,8.91C76.4,8.91 76.4,8.91 76.4,8.92C77.77,12.81 72.31,16.35 69.16,17.68C67.06,19.14 63.02,20.79 60.2,19.7C51.14,26.39 41.53,32.03 30.5,34.74C20.5,37.21 10.25,37.44 0,37.69C2.11,39.38 4.5,40.76 7.13,41.77C13.06,44.05 19.6,44.21 25.85,43.5C37.18,42.2 48.99,38.43 59.41,33.81C63,32.22 74.67,24.13 77.72,30.01Z " /></g><g opacity="1" transform="translate(96.36000000000001 87.81)  rotate(-360 57.29 28.205)"><path id="path402" fill-rule="evenodd" style="fill:#61B15A" transform="translate(0 0)  rotate(0 57.29 28.205)" opacity="1" d="M81.99,37.77C79.97,32.46 85.87,29.48 89.82,27.94C92.1,27.05 98.19,25.05 100.47,27.41C105.32,25.09 110.94,23.46 114.49,19.2C114.51,19.17 114.55,19.16 114.58,19.13C109.96,15.23 105.37,11.28 100.96,7.12C98.62,4.91 96.29,2.7 93.97,0.49C93.76,0.55 93.55,0.57 93.35,0.49C90.13,-0.75 86.03,0.62 82.95,1.7C79.31,2.98 75.93,4.9 72.5,6.62C64.69,10.54 56.78,14 48.17,15.71C39.73,17.39 31.02,17.87 22.44,17.31C18.3,17.04 14.2,16.92 10.12,16.15C6.77,15.52 3.41,14.77 0,15.04C0.55,16.88 1.1,18.72 1.65,20.56C1.96,21.59 2.31,23.82 2.94,24.43C3.88,25.37 6.51,26.14 7.86,26.65C9.57,27.31 11.34,27.84 13.15,28.2C16.53,28.9 19.99,29.08 23.43,28.87C30.64,28.42 37.65,26.38 44.46,24.07C51.26,21.77 57.93,19.11 64.81,17.04C68,16.08 76.73,12.63 78.22,17.79C79.46,22.03 74.84,27.21 71.8,29.5C68.24,32.18 63.93,34.19 60.04,36.35C46.73,43.75 32.38,49.12 17.15,50.75C18.52,52.82 20.08,54.73 21.83,56.41C21.92,56.38 22.01,56.35 22.12,56.35C32.5,56.09 43.01,56.01 53.17,53.64C64.09,51.09 73.77,45.61 82.73,39.01C82.43,38.67 82.17,38.27 81.99,37.77Z " /></g><g opacity="1" transform="translate(119.41000000000003 40.73)  rotate(-360 47.57 31.385)"><path id="path406" fill-rule="evenodd" style="fill:#61B15A" transform="translate(0 0)  rotate(0 47.57 31.385)" opacity="1" d="M95.14 45.26C90.42 44.92 85.1 47.29 81.19 49.22C72.72 53.41 64.4 57.94 55.17 60.24C45.59 62.63 35.55 63.17 25.73 62.51C21.65 62.23 17.68 62.04 13.65 61.27L13.4345 61.2292C10.0151 60.5821 6.56673 59.9295 3.08 60.38L2.84 59.57C1.89 56.4 0.95 53.24 0 50.07C5.91 52.92 12.84 52.93 19.25 53.94C21.6179 54.3113 23.937 54.7983 26.2457 55.283C31.0251 56.2865 35.7598 57.2807 40.79 57.22C47.38 57.14 54.01 55.51 59.47 51.72C63.24 49.12 69.41 43.63 65.56 38.61C62.7985 35.0066 56.5285 35.7624 51.9177 36.3182C51.0519 36.4226 50.2446 36.5199 49.53 36.58C47.7531 36.7283 45.9726 36.9114 44.1897 37.0948C38.6381 37.6659 33.0633 38.2393 27.5 37.77C19.63 37.1 12.72 33.78 8.72 26.74C4.95 20.12 4.65 12.43 4.93 5.01C4.94 4.66 4.96 4.3 4.97 3.94C5.18 3.87 5.38 3.77 5.52 3.61C8.2 0.59 13.88 0.39 17.59 0.07C21.5838 -0.274004 24.9229 0.733631 28.5524 1.82889C29.2487 2.03901 29.9557 2.25235 30.68 2.46C31.5021 2.69665 32.3371 2.94576 33.1824 3.19794C39.9454 5.21563 47.3677 7.43003 54.15 5.03C54.21 5.01 54.25 4.97 54.31 4.95C62.56 12.9 70.45 21.21 78.61 29.26C84.07 34.65 89.59 39.96 95.14 45.26ZM35.65 10.97C30.81 10.82 23.15 12.33 23.86 18.54C23.75 18.77 23.74 19.04 23.86 19.31C25.23 22.4 27.62 24.78 31.18 24.94C35.88 25.15 39.37 21.33 41.57 17.63C41.72 17.39 41.76 17.13 41.7 16.91C43.06 12.89 39.37 11.09 35.65 10.97Z" /></g><g opacity="1" transform="translate(23.590000000000032 319.06)  rotate(-360 46.385 39.015)"><path id="path410" fill-rule="evenodd" style="fill:#61B15A" transform="translate(0 0)  rotate(0 46.385 39.015)" opacity="1" d="M47.88 38.01C43.94 41.47 39.76 44.63 35.49 47.69C23.2 56.48 9.93 64.75 1.59 77.72C1.11 78.46 -0.38 77.73 0.09 77C4.69 69.85 10.79 63.98 17.45 58.76C30.12 48.84 44.09 40.84 54.94 28.74C60.49 22.54 64.57 14.98 70.58 9.22C76.39 3.66 83.99 1.7 91.62 0.02C92.14 -0.1 93.03 0.44 92.7 1.05C89.77 6.48 86.9 11.93 83.91 17.32C81.8 21.14 79.4 24.85 75.71 27.32C71.72 30.01 66.86 31.34 62.38 32.97C57.57 34.71 52.76 36.48 47.88 38.01Z" /></g><g opacity="1" transform="translate(26.06000000000006 321.21)  rotate(-360 20.58 17.055)"><path id="path414" fill-rule="evenodd" style="fill:#61B15A" transform="translate(0 0)  rotate(0 20.58 17.055)" opacity="1" d="M29.57,8.26C26.11,10.77 23.54,14.15 20.62,17.22C14.76,23.37 7.64,28.55 0.31,32.79C-0.55,33.29 0.58,34.44 1.31,34.02C8.73,29.72 15.98,24.46 21.91,18.24C25.38,14.59 28.36,10.85 32.66,8.09C35.81,6.07 38.96,4.23 41.07,1.03C41.54,0.31 40.05,-0.43 39.57,0.3C37.13,4.01 33.04,5.75 29.57,8.26Z " /></g><g opacity="1" transform="translate(31.25 366.12)  rotate(-360 35.01 8.905)"><path id="path418" fill-rule="evenodd" style="fill:#61B15A" transform="translate(0 0)  rotate(0 35.01 8.905)" opacity="1" d="M0.99 15.57C6.48 16.13 11.91 17.18 17.41 17.61C23.43 18.07 29.64 17.71 35.6 16.77C41.9 15.77 47.6 13.62 53.44 11.16C56.67 9.81 59.86 8.94 63.24 8.13C65.66 7.56 67.84 6.79 69.84 5.29C70.29 4.95 69.78 4.37 69.48 4.19C60.03 -1.42 47.61 -0.38 37.24 1.48C31.8 2.45 26.41 3.85 21.2 5.7C14.18 8.21 7.6 11.77 0.53 14.16C0.19 14.17 0.03 14.35 0.02 14.58C-0.11 15.05 0.42 15.67 0.99 15.57Z" /></g><g opacity="1" transform="translate(31.30000000000001 370.21)  rotate(-360 33.72 5.88)"><path id="path422" fill-rule="evenodd" style="fill:#61B15A" transform="translate(0 0)  rotate(0 33.72 5.88)" opacity="1" d="M35.61,3.03C24.05,6.4 12.07,7.28 0.47,10.38C-0.55,10.65 0.29,11.96 1.12,11.73C12.4,8.72 24.11,8 35.34,4.66C45.47,1.66 56.3,1.6 66.8,1.4C67.88,1.38 67.45,-0.02 66.54,0C56.29,0.2 45.51,0.15 35.61,3.03Z " /></g><g opacity="1" transform="translate(70.67000000000002 316.14)  rotate(-360 6.9 25.705)"><path id="path426" fill-rule="evenodd" style="fill:#61B15A" transform="translate(0 0)  rotate(0 6.9 25.705)" opacity="1" d="M0.71 50.66C0.75 50.92 0.92 51.11 1.15 51.23C1.47 51.45 1.91 51.5 2.14 51.18C2.15083 51.1713 2.16119 51.1622 2.17098 51.1526C2.20639 51.1179 2.23433 51.077 2.25 51.03C6.64 44.85 8.66 36.95 10.48 29.69C11.72 24.73 12.04 19.87 12.57 14.82C12.7056 13.5399 12.9045 12.2664 13.103 10.9953C13.6363 7.57977 14.1669 4.18175 13.46 0.72C13.34 0.17 12.46 -0.27 12.02 0.2C6.51 6.19 3.99 14.27 2.12 22.03C-0.18 31.58 -0.54 40.91 0.71 50.66Z" /></g><g opacity="1" transform="translate(71.56 317.7)  rotate(-360 6.105 24.9)"><path id="path430" fill-rule="evenodd" style="fill:#61B15A" transform="translate(0 0)  rotate(0 6.105 24.9)" opacity="1" d="M5.36,23.8C3.62,32.18 1.64,40.51 0.01,48.92C-0.15,49.75 1.43,50.21 1.61,49.3C3.17,41.25 5.04,33.26 6.74,25.24C8.44,17.16 9.56,8.95 12.18,1.09C12.45,0.25 10.95,-0.46 10.68,0.36C8.13,8 6.99,15.94 5.36,23.8Z " /></g><g opacity="1" transform="translate(97.46000000000001 321.89)  rotate(-360 7.14 30.425)"><path id="path434" fill-rule="evenodd" style="fill:#61B15A" transform="translate(0 0)  rotate(0 7.14 30.425)" opacity="1" d="M8.35 60.52C8.27 60.46 8.2 60.38 8.14 60.29C2.93 51.58 -0.84 41.33 0.16 31.06C0.68 25.72 2.11 20.58 4.22 15.67C5.41 12.88 6.14 10.22 6.45 7.21C6.69 4.84 6.98 2.57 7.84 0.34C8.06 -0.21 8.95 -0.02 9.22 0.37C11.73 3.96 12.39 8.27 13.05 12.52C13.83 17.56 14.45 22.5 14.24 27.61C14.01 33.33 13.02 39.02 12.48 44.72C11.98 49.97 11.33 55.18 9.71 60.22C9.74 60.37 9.68 60.5 9.58 60.58C9.36 61.01 8.71 60.88 8.35 60.52Z" /></g><g opacity="1" transform="translate(100.98000000000002 322.2)  rotate(-360 2.09 30.235)"><path id="path438" fill-rule="evenodd" style="fill:#61B15A" transform="translate(0 0)  rotate(0 2.09 30.235)" opacity="1" d="M1.26,0.94C2.41,2.07 2.37,4.41 2.44,5.91C2.55,8.07 2.47,10.25 2.35,12.41C2.05,17.89 1.66,23.39 1.21,28.87C0.35,39.07 -1.16,49.74 1.5,59.8C1.72,60.61 3.34,60.77 3.09,59.82C0.09,48.46 2.35,36.39 3.13,24.89C3.46,19.94 3.95,14.96 4.07,10C4.13,7.25 4.69,2.4 2.52,0.27C1.88,-0.35 0.49,0.18 1.26,0.94Z " /></g></g></svg>