<svg xmlns="http://www.w3.org/2000/svg" xmlns:xlink="http://www.w3.org/1999/xlink" width="16" height="22" viewBox="0 0 16 22" fill="none"><defs><rect id="path_0" x="0" y="0" width="16.00000000000003" height="21.333333333333368" /></defs><g opacity="1" transform="translate(0 0)  rotate(0 8.000000000000014 10.666666666666684)"><mask id="bg-mask-0" fill="white"><use xlink:href="#path_0"></use></mask><g mask="url(#bg-mask-0)" ><path id="分组 1" fill-rule="evenodd" style="fill:#000000" transform="translate(0 0)  rotate(0 8.000000000000014 10.666666666666684)" opacity="1" d="M13.33 0C5.97 0 0 5.97 0 13.33C0 17.75 3.58 21.33 8 21.33C12.42 21.33 16 17.75 16 13.33C16 10.56 15.15 8.04 13.33 6.22C11.61 4.5 11.62 1.72 13.33 0Z M3.55787 11.032L4.80787 9.782L6.75787 11.722C6.97787 10.132 7.38787 8.582 7.99787 7.112L9.63787 7.792C8.82787 9.742 8.39787 11.832 8.35787 13.942L10.7479 11.552L11.9979 12.812L8.49787 16.312C8.63787 17.372 8.86787 18.422 9.20787 19.432C12.0579 18.872 14.2179 16.352 14.2179 13.332C14.2179 11.642 13.8479 9.252 12.0779 7.482C10.9179 6.322 10.2579 4.752 10.2679 3.112C10.2679 2.792 10.2879 2.482 10.3379 2.172C5.41787 3.492 1.77787 8.002 1.77787 13.332C1.77787 16.552 4.23787 19.212 7.37787 19.522C6.83787 17.722 6.57787 15.882 6.59787 14.072L3.55787 11.032Z " /></g></g></svg>