<svg xmlns="http://www.w3.org/2000/svg" xmlns:xlink="http://www.w3.org/1999/xlink" width="268" height="229" viewBox="0 0 268 229" fill="none"><defs><rect id="path_0" x="0" y="0" width="268" height="229" /><path id="path_1"
        transform="translate(0 0) rotate(0 40 31.5)"
        d="M0.94,41.01C0.94,41.01 -3.22,51.15 5.94,57.92C21.77,66.37 65.92,61.72 65.92,61.72C65.92,61.72 83.83,57.5 79.25,41.01C74.67,24.52 69.17,16.4 63.84,0L16.36,0L0.94,41.01Z" /></defs><g opacity="1" transform="translate(0 0)  rotate(0 134 114.5)"><mask id="bg-mask-0" fill="white"><use xlink:href="#path_0"></use></mask><g mask="url(#bg-mask-0)" ><g opacity="1" transform="translate(48 17)  rotate(0 86.04984215032285 97.04533965626048)"><path id="圆形 6" fill-rule="evenodd" style="fill:#B5B5B6" transform="translate(0 157.09067931252096)  rotate(0 63.5 18.5)" opacity="1" d="M63.5,0C28.43,0 0,8.28 0,18.5C0,28.72 28.43,37 63.5,37C98.57,37 127,28.72 127,18.5C127,8.28 98.57,0 63.5,0Z " /><path id="路径 5" fill-rule="evenodd" style="fill:#FFFFFF" transform="translate(102 89.09067931252096)  rotate(0 29.5 39)" opacity="1" d="M54.34,20.33C62.45,18.58 57.51,7.33 57.51,7.33C55.39,0.64 39.52,-3.57 27.17,4.16C14.82,11.9 13.76,24.2 14.82,43.19C14.82,43.19 15.88,62.18 0,70.97L0,78C0,78 12.35,76.24 18.35,68.15C24.35,60.07 27.17,54.44 27.17,38.62C27.17,22.8 28.49,15.99 38.11,14.71C47.73,13.43 46.22,22.09 54.34,20.33Z " /><path  id="路径 5" style="stroke:#050B1E; stroke-width:2; stroke-opacity:1; stroke-dasharray:0 0" transform="translate(102 89.08165965669994)  rotate(0 29.5 39.0045098279105)" d="M0,70.98C15.88,62.19 14.82,43.2 14.82,43.2C13.76,24.21 14.82,11.91 27.17,4.17C39.52,-3.57 54.34,0.62 57.51,7.33C57.51,7.33 62.45,18.59 54.34,20.34C46.22,22.1 47.73,13.44 38.11,14.72C28.49,15.99 27.17,22.81 27.17,38.63C27.17,54.45 24.35,60.08 18.35,68.16C12.35,76.25 0,78.01 0,78.01 " /><g opacity="1" transform="translate(22 118.09067931252096)  rotate(0 40 31.5)"><mask id="mask-1" fill="white"><use xlink:href="#path_1"></use></mask><g mask="url(#mask-1)"><path id="路径 2" fill-rule="evenodd" style="fill:#FFFFFF" transform="translate(0 0)  rotate(0 40 31.5)" opacity="1" d="M0.94,41.01C0.94,41.01 -3.22,51.15 5.94,57.92C21.77,66.37 65.92,61.72 65.92,61.72C65.92,61.72 83.83,57.5 79.25,41.01C74.67,24.52 69.17,16.4 63.84,0L16.36,0L0.94,41.01Z " /></g><g mask="url(#mask-1)"><path id="圆形 7" fill-rule="evenodd" style="fill:#DCDDDD" transform="translate(18 26)  rotate(0 22 30)" opacity="1" d="M22,0C9.85,0 0,13.43 0,30C0,46.57 9.85,60 22,60C34.15,60 44,46.57 44,30C44,13.43 34.15,0 22,0Z " /></g></g><path  id="路径 2" style="stroke:#050B1E; stroke-width:2; stroke-opacity:1; stroke-dasharray:0 0" transform="translate(22 118.09067931252096)  rotate(0 40 31.5)" d="M16.36,0L0.94,41.01C0.94,41.01 -3.22,51.15 5.94,57.92C21.77,66.37 65.92,61.72 65.92,61.72C65.92,61.72 83.83,57.5 79.25,41.01C74.67,24.52 69.17,16.4 63.84,0 " /><path id="路径 1" fill-rule="evenodd" style="fill:#DCDDDD" transform="translate(23.790257246690544 19.022656303437625)  rotate(7.971187883208884 8.105098576829322 8.830504925934699)" opacity="1" d="M1.08,0.16C-1.65,1.63 1.66,17.66 1.66,17.66L8.21,12.18L16.21,7.68C16.21,7.68 3.8,-1.31 1.08,0.16Z " /><path id="路径 1" fill-rule="evenodd" style="fill:#DCDDDD" transform="translate(91.2928342619266 26.402891939061046)  rotate(-280.66128830000827 8.698888679207514 8.97462917673218)" opacity="1" d="M0.52,0.15C-1.39,1.46 2.61,17.95 2.61,17.95C2.61,17.95 7.22,13.36 9.7,11.3C12.18,9.24 17.4,6.71 17.4,6.71C17.4,6.71 2.42,-1.16 0.52,0.15Z " /><path id="路径 1"  style="fill:#050B1E" transform="translate(10.537339482302286 4.526230192288576)  rotate(14.698966908033924 20.87387118753908 23.537158490034194)" opacity="1" d="M36.3541 12.1216Q39.3529 13.6654 41.2614 14.7325L41.2596 14.7358Q41.3455 14.7838 41.4392 14.8142Q41.5329 14.8446 41.6307 14.8561Q41.7285 14.8677 41.8267 14.8599Q41.9249 14.8521 42.0197 14.8253Q42.1145 14.7985 42.2022 14.7538Q42.2899 14.709 42.3672 14.648Q42.4446 14.587 42.5085 14.5121Q42.5724 14.4371 42.6205 14.3512Q42.7176 14.1776 42.7409 13.98Q42.7641 13.7825 42.7101 13.5911Q42.656 13.3997 42.5328 13.2436Q42.4097 13.0875 42.2362 12.9904L42.238 12.9872Q40.2994 11.9032 37.2696 10.3434Q31.2126 7.22509 25.7302 4.83107Q7.86115 -2.97192 2.29863 -0.312172Q0.407344 0.588763 -0.393561 3.44559Q-1.04932 5.78466 -0.994109 9.52523Q-0.903373 15.6731 1.07593 25.5012Q2.48324 32.4891 4.68845 40.6219Q5.37741 43.1628 6.0637 45.5142Q6.40749 46.6921 6.61421 47.364L8.5258 46.776Q8.32337 46.118 7.9836 44.9538Q7.30268 42.6208 6.61874 40.0985Q4.43083 32.0294 3.03657 25.1063Q1.09369 15.4591 1.00567 9.49571Q0.954747 6.04522 1.53219 3.98547Q2.08781 2.00358 3.16138 1.49217Q4.41005 0.895115 6.71515 1.02734Q8.94447 1.15522 12.0497 1.96861Q17.3668 3.36136 24.9298 6.66393Q30.3538 9.03246 36.3541 12.1216ZM7.86371 48.0301Q7.95785 48.0012 8.04453 47.9544Q8.13121 47.9076 8.2071 47.8448Q8.28299 47.7821 8.34518 47.7057Q8.40736 47.6293 8.45345 47.5423Q8.49954 47.4552 8.52777 47.3609Q8.55599 47.2665 8.56526 47.1685Q8.57454 47.0704 8.5645 46.9724Q8.55447 46.8744 8.52551 46.7803L6.6139 47.3683Q6.64286 47.4625 6.68963 47.5491Q6.73639 47.6358 6.79917 47.7117Q6.86195 47.7876 6.93833 47.8498Q7.0147 47.912 7.10175 47.9581Q7.18879 48.0042 7.28315 48.0324Q7.37751 48.0606 7.47556 48.0699Q7.57362 48.0791 7.67159 48.0691Q7.76957 48.0591 7.86371 48.0301Z " /><path  id="路径 1" style="stroke:#050B1E; stroke-width:2; stroke-opacity:1; stroke-dasharray:0 0" transform="translate(10.537339482302286 4.526230192288576)  rotate(14.698966908033924 20.87387118753908 23.537158490034194)" d="" /><path id="路径 1"  style="fill:#050B1E" transform="translate(80.84220938308226 13.997778079496097)  rotate(-280.66128830000827 22.49807956089641 22.28052569127877)" opacity="1" d="M38.28 15.6044Q42.0499 17.5763 44.5149 18.9344L44.5135 18.9369Q44.6878 19.0329 44.8854 19.0549Q45.0831 19.0769 45.2742 19.0216Q45.4653 18.9663 45.6206 18.8421Q45.776 18.7179 45.872 18.5437Q45.9194 18.4576 45.9492 18.3639Q45.979 18.2702 45.9899 18.1725Q46.0009 18.0748 45.9926 17.9768Q45.9843 17.8789 45.9571 17.7844Q45.9299 17.6899 45.8848 17.6025Q45.8398 17.5152 45.7785 17.4382Q45.7173 17.3613 45.6423 17.2978Q45.5672 17.2343 45.4813 17.1866L45.4826 17.1842Q42.9981 15.8152 39.2069 13.8322Q31.6252 9.86647 25.0729 6.78626Q15.873 2.46133 10.0375 0.526893Q6.51127 -0.642024 4.26066 -0.914409Q2.97165 -1.07041 2.05784 -0.936576Q0.918591 -0.76972 0.280206 -0.144332Q-0.311372 0.433848 -0.623259 1.49362Q-0.882551 2.37467 -0.963829 3.63621Q-1.10749 5.86595 -0.703133 9.38024Q-0.0328598 15.2057 2.1085 24.4116Q3.6336 30.9681 5.73982 38.5613Q6.79302 42.3583 7.54238 44.848L7.53856 44.8492Q7.56694 44.9435 7.61317 45.0304Q7.6594 45.1174 7.72171 45.1937Q7.78401 45.27 7.86001 45.3326Q7.936 45.3953 8.02275 45.4419Q8.10951 45.4885 8.20369 45.5173Q8.29788 45.5461 8.39587 45.556Q8.49387 45.5659 8.59191 45.5564Q8.68995 45.547 8.78426 45.5187Q8.87858 45.4903 8.96555 45.444Q9.05251 45.3978 9.12879 45.3355Q9.20507 45.2732 9.26772 45.1972Q9.33038 45.1212 9.377 45.0345Q9.42363 44.9477 9.45244 44.8535Q9.48124 44.7593 9.49112 44.6613Q9.501 44.5633 9.49157 44.4653Q9.48214 44.3673 9.45376 44.2729L9.45757 44.2718Q8.71448 41.8029 7.66706 38.0268Q5.57206 30.474 4.0565 23.9584Q1.94099 14.8637 1.28376 9.15163Q0.899908 5.81554 1.03203 3.7648Q1.09899 2.72559 1.29538 2.05827Q1.45989 1.49928 1.6798 1.28435Q1.8529 1.11478 2.34767 1.04231Q2.99686 0.947231 4.02036 1.0711Q6.0721 1.31942 9.40816 2.4253Q15.1302 4.32213 24.2221 8.59624Q30.7358 11.6584 38.28 15.6044Z " /><path  id="路径 1" style="stroke:#050B1E; stroke-width:2; stroke-opacity:1; stroke-dasharray:0 0" transform="translate(80.84220938308226 13.997778079496097)  rotate(-280.66128830000827 22.49807956089641 22.28052569127877)" d="" /><path id="圆形 1"  style="fill:#050B1E" transform="translate(4 24.0906793125209)  rotate(0 55 47.5)" opacity="1" d="M80.7155 94.0946Q81.7108 93.6279 83.4387 92.8339Q85.4948 91.8891 86.3746 91.4632Q87.7702 90.7875 88.7933 90.2025Q89.952 89.5399 91.0115 88.7824Q92.1369 87.9777 93.3654 86.914Q97.2341 83.5612 100.2 79.4734Q103.11 75.4636 105.084 70.8411Q107.034 66.2753 108.019 61.2306Q109 56.2122 109 50.86Q109 45.1228 107.943 39.8204Q106.915 34.6628 104.907 30.0121Q102.944 25.4664 100.086 21.5007Q97.2753 17.6008 93.6661 14.3534Q90.0928 11.1382 85.8283 8.64476Q81.5764 6.15873 76.7527 4.45744Q71.91 2.74944 66.6238 1.8793Q61.282 1 55.63 1Q50.0352 1 44.6035 2.01621Q39.3118 3.00625 34.3385 4.92941Q29.4571 6.81704 25.0538 9.53668Q20.6943 12.2293 16.9697 15.6343Q13.2475 19.0372 10.3059 23.0177Q7.33833 27.0333 5.27975 31.4826Q3.18445 36.0112 2.1062 40.8281Q0.999997 45.77 0.999996 50.86Q1 57.7827 2.07447 63.2445Q3.11747 68.5462 5.24683 72.8326Q7.27945 76.9243 10.4803 80.4378Q13.4652 83.7142 17.8159 86.8596Q17.8299 86.8697 17.8436 86.8804Q19.9961 88.553 22.9119 89.9417Q25.632 91.2372 28.7888 92.1806Q31.7646 93.0699 34.7723 93.5433Q37.6745 94 40.15 94L40.15 96Q37.5182 96 34.4614 95.5189Q31.3208 95.0247 28.2162 94.0969Q24.9114 93.1093 22.0519 91.7474Q18.9494 90.2697 16.6301 88.4703Q12.1211 85.2086 9.00186 81.7847Q5.61267 78.0645 3.45567 73.7224Q1.2069 69.1956 0.112088 63.6305Q-1 57.9776 -1 50.86Q-1 45.5488 0.154498 40.3913Q1.27947 35.3656 3.46462 30.6427Q5.60875 26.0086 8.69746 21.829Q11.7546 17.6922 15.6203 14.1582Q19.4835 10.6264 24.0028 7.83508Q28.5634 5.0183 33.6171 3.06403Q38.7626 1.0743 44.2357 0.0503167Q49.8497 -1 55.63 -0.999996Q61.4455 -0.999996 66.9486 -0.0941396Q72.4089 0.804648 77.4179 2.57131Q82.4214 4.33601 86.8378 6.91822Q91.2787 9.51477 95.0039 12.8666Q98.7725 16.2575 101.708 20.3314Q104.693 24.4737 106.743 29.2192Q108.835 34.0641 109.904 39.4294Q111 44.9255 111 50.86Q111 56.4058 109.982 61.6141Q108.956 66.8663 106.923 71.6264Q104.861 76.4561 101.819 80.6481Q98.7177 84.9219 94.6746 88.426Q93.3757 89.5506 92.1748 90.4093Q91.0327 91.2259 89.786 91.9387Q88.7035 92.5577 87.2461 93.2633Q86.3482 93.698 84.2738 94.6512Q82.5527 95.442 81.5652 95.9051L81.5653 95.9054Q81.4761 95.9472 81.3805 95.9708Q81.2849 95.9944 81.1865 95.9989Q81.0881 96.0035 80.9908 95.9887Q80.8934 95.9739 80.8008 95.9404Q80.7081 95.907 80.6238 95.8561Q80.5395 95.8051 80.4667 95.7388Q80.394 95.6724 80.3355 95.5931Q80.2771 95.5138 80.2353 95.4246Q80.1935 95.3355 80.1699 95.2399Q80.1463 95.1443 80.1417 95.046Q80.1372 94.9476 80.152 94.8503Q80.1667 94.7529 80.2001 94.6603Q80.2336 94.5677 80.2844 94.4834Q80.3353 94.3991 80.4016 94.3263Q80.468 94.2536 80.5472 94.1951Q80.6265 94.1367 80.7156 94.0949L80.7155 94.0946ZM41.1521 95Q41.1521 94.9015 41.1329 94.8049Q41.1137 94.7083 41.076 94.6173Q41.0383 94.5263 40.9836 94.4444Q40.9288 94.3625 40.8592 94.2929Q40.7896 94.2232 40.7077 94.1685Q40.6258 94.1138 40.5348 94.0761Q40.4438 94.0384 40.3472 94.0192Q40.2506 94 40.1521 94L40.1521 96Q40.2506 96 40.3472 95.9808Q40.4438 95.9616 40.5348 95.9239Q40.6258 95.8862 40.7077 95.8315Q40.7896 95.7767 40.8592 95.7071Q40.9288 95.6375 40.9836 95.5556Q41.0383 95.4737 41.076 95.3827Q41.1137 95.2917 41.1329 95.1951Q41.1521 95.0985 41.1521 95Z " /><path  id="圆形 1" style="stroke:#050B1E; stroke-width:2; stroke-opacity:1; stroke-dasharray:0 0" transform="translate(4 24.0906793125209)  rotate(0 55 47.5)" d="" /><path id="路径 3" fill-rule="evenodd" style="fill:#FFFFFF" transform="translate(39 146.70174852459812)  rotate(0 7 13.500000000000002)" opacity="1" d="M0,19.57C0,19.57 5.49,25.53 7.18,26.38C8.87,27.23 13.93,28.08 13.93,22.55C14.78,17.02 7.18,0 7.18,0L0,19.57Z " /><path id="路径 3"  style="fill:#050B1E" transform="translate(39.00222884719801 147.70121778485785)  rotate(0 7 13.5)" opacity="1" d="M6.2653 0.40779Q6.18419 0.226168 6.17875 0.0273297Q6.17331 -0.171509 6.24438 -0.357291Q6.31545 -0.543074 6.45221 -0.687518Q6.58896 -0.831961 6.77059 -0.913076Q6.86052 -0.95324 6.95655 -0.975087Q7.05259 -0.996935 7.15105 -0.999627Q7.2495 -1.00232 7.34659 -0.985751Q7.44368 -0.969183 7.53567 -0.933993Q7.62766 -0.898803 7.71101 -0.846343Q7.79437 -0.793882 7.86589 -0.726168Q7.93741 -0.658453 7.99435 -0.578087Q8.05129 -0.49772 8.09145 -0.40779L6.2653 0.40779ZM8.0931 -0.407731Q8.57339 0.667871 9.27761 2.36193Q10.6849 5.74727 11.8138 8.86033Q15.4505 18.8884 14.9297 22.6246Q14.9133 24.8334 13.9201 26.1913Q13.0157 27.4279 11.4334 27.8271Q10.2234 28.1324 8.79117 27.9055Q7.61789 27.7196 6.73067 27.2734Q5.53001 26.6695 2.25334 23.3676Q0.658285 21.7603 -0.734754 20.2483L-0.735352 20.2489Q-0.802098 20.1765 -0.853432 20.0924Q-0.904766 20.0083 -0.938715 19.9159Q-0.972664 19.8234 -0.987924 19.7261Q-1.00318 19.6288 -0.999168 19.5304Q-0.995152 19.432 -0.972014 19.3363Q-0.948877 19.2405 -0.907507 19.1512Q-0.866137 19.0618 -0.808124 18.9822Q-0.750111 18.9026 -0.677686 18.8358Q-0.531415 18.701 -0.344693 18.6325Q-0.157971 18.5639 0.0407764 18.572Q0.239356 18.5801 0.419745 18.6636Q0.600135 18.747 0.734915 18.893L0.735512 18.8925Q2.10365 20.3774 3.67297 21.9588Q5.03708 23.3334 6.01794 24.2175Q7.16937 25.2553 7.62932 25.4866Q8.23838 25.793 9.10414 25.9301Q10.1316 26.0929 10.9441 25.8879Q11.8271 25.6651 12.3058 25.0106Q12.93 24.1572 12.93 22.55Q12.93 22.4736 12.9416 22.3981Q13.2032 20.6961 12.2637 16.936Q11.4856 13.8217 9.93366 9.54217Q8.82043 6.47244 7.43082 3.12964Q6.7366 1.45961 6.2669 0.407731L8.0931 -0.407731Z " /><path  id="路径 3" style="stroke:#050B1E; stroke-width:2; stroke-opacity:1; stroke-dasharray:0 0" transform="translate(39.00222884719801 147.70121778485785)  rotate(0 7 13.5)" d="" /><path id="圆形 2" fill-rule="evenodd" style="fill:#050B1E" transform="translate(28 69.0906793125209)  rotate(17.928363550789072 3 5)" opacity="1" d="M3,0C1.34,0 0,2.24 0,5C0,7.76 1.34,10 3,10C4.66,10 6,7.76 6,5C6,2.24 4.66,0 3,0Z " /><path id="圆形 3"  style="fill:#050B1E" transform="translate(25 68.0906793125209)  rotate(17.928363550789072 4 3.5)" opacity="1" d="M7.27538 6.87695Q7.55584 5.77242 7.49106 4.58777Q7.4283 3.44003 7.05865 2.48408Q6.69288 1.53815 6.1164 1.01562Q5.54753 0.500001 4.86 0.500001Q4.11177 0.5 3.34295 0.986811Q2.56589 1.47885 1.92334 2.36377Q1.26479 3.27075 0.892192 4.39316Q0.500157 5.5741 0.5 6.77904L0.5 6.78Q0.499905 6.82918 0.490228 6.87741Q0.480551 6.92563 0.461663 6.97105Q0.442775 7.01646 0.4154 7.05732Q0.388025 7.09818 0.353213 7.13293Q0.3184 7.16767 0.277485 7.19497Q0.236569 7.22227 0.191119 7.24107Q0.145669 7.25987 0.097427 7.26945Q0.0491849 7.27904 0 7.27904Q-0.0491849 7.27904 -0.097427 7.26945Q-0.145669 7.25987 -0.191119 7.24107Q-0.236569 7.22227 -0.277484 7.19497Q-0.3184 7.16768 -0.353212 7.13293Q-0.388025 7.09819 -0.4154 7.05732Q-0.442775 7.01646 -0.461663 6.97105Q-0.48055 6.92563 -0.490227 6.87741Q-0.499904 6.82918 -0.499999 6.78L-0.5 6.77904Q-0.499844 5.41246 -0.0568793 4.07809Q0.36455 2.80861 1.11416 1.77623Q1.86918 0.736389 2.80798 0.141939Q3.82179 -0.5 4.86 -0.499999Q5.93329 -0.499999 6.78798 0.274691Q7.54009 0.956407 7.99135 2.12342Q8.41815 3.22719 8.48957 4.53317Q8.56269 5.87041 8.24462 7.12305L7.27538 6.87695ZM8.24085 7.12311Q8.22872 7.17084 8.20752 7.21529Q8.18631 7.25973 8.15685 7.29919Q8.12738 7.33865 8.09078 7.37159Q8.05418 7.40454 8.01186 7.42972Q7.96953 7.4549 7.92311 7.47133Q7.87669 7.48777 7.82795 7.49483Q7.77922 7.50189 7.73004 7.49931Q7.68086 7.49673 7.63313 7.48461Q7.5854 7.47248 7.54095 7.45128Q7.49651 7.43007 7.45705 7.4006Q7.41759 7.37114 7.38464 7.33454Q7.3517 7.29794 7.32652 7.25561Q7.30134 7.21329 7.28491 7.16687Q7.26847 7.12045 7.26141 7.07171Q7.25435 7.02297 7.25693 6.97379Q7.25951 6.92462 7.27164 6.87689L8.24085 7.12311Z " /><path  id="圆形 3" style="stroke:#050B1E; stroke-width:1; stroke-opacity:1; stroke-dasharray:0 0" transform="translate(25 68.0906793125209)  rotate(17.928363550789072 4 3.5)" d="" /><path id="圆形 2" fill-rule="evenodd" style="fill:#050B1E" transform="translate(70.8822033216652 68.32395330379003)  rotate(6.364871871258018 8.61779667833482 11.266726008730874)" opacity="1" d="M8.62,0C3.86,0 0,5.04 0,11.27C0,17.49 3.86,22.53 8.62,22.53C13.38,22.53 17.24,17.49 17.24,11.27C17.24,5.04 13.38,0 8.62,0Z " /><path id="圆形 3"  style="fill:#050B1E" transform="translate(65.9968169902454 69.02743706167709)  rotate(-0.6520228113341986 9.841101707415902 7.585230248028926)" opacity="1" d="M17.9894 14.9173L20.4552 15.5338Q21.0981 12.9624 21.1723 10.4072Q21.2568 7.5009 20.573 5.17129Q19.7587 2.39676 17.9321 0.72733Q15.85 -1.17576 12.6927 -1.43497Q9.62941 -1.69025 7.2452 -0.933076Q4.81729 -0.162026 3.03853 1.6666Q1.36738 3.38461 0.230863 6.0915Q-0.810592 8.57198 -1.47361 12.0599L-1.47358 12.0599Q-1.48735 12.1323 -1.49396 12.2056Q-1.50056 12.279 -1.49995 12.3527Q-1.49933 12.4264 -1.4915 12.4996Q-1.48366 12.5729 -1.46869 12.6451Q-1.45371 12.7172 -1.43174 12.7875Q-1.40976 12.8578 -1.381 12.9257Q-1.35224 12.9935 -1.31697 13.0582Q-1.2817 13.1229 -1.24026 13.1838Q-1.19882 13.2447 -1.15161 13.3013Q-1.1044 13.3579 -1.05187 13.4095Q-0.999347 13.4612 -0.942009 13.5075Q-0.884671 13.5537 -0.823074 13.5942Q-0.761478 13.6346 -0.696215 13.6688Q-0.630953 13.703 -0.562653 13.7306Q-0.494354 13.7583 -0.423675 13.7791Q-0.352995 13.7999 -0.280617 13.8137Q-0.208227 13.8275 -0.134835 13.8341Q-0.0614435 13.8407 0.0122444 13.8401Q0.0859322 13.8395 0.159206 13.8317Q0.23248 13.8239 0.304635 13.8089Q0.37679 13.7939 0.44713 13.772Q0.51747 13.75 0.585319 13.7212Q0.653167 13.6925 0.71787 13.6572Q0.782574 13.622 0.843509 13.5805Q0.904444 13.5391 0.961024 13.4919Q1.0176 13.4447 1.06928 13.3921Q1.12096 13.3396 1.16725 13.2823Q1.21353 13.2249 1.25397 13.1633Q1.2944 13.1017 1.32861 13.0364Q1.36282 12.9712 1.39046 12.9029Q1.4181 12.8345 1.43892 12.7639Q1.45973 12.6932 1.47352 12.6208L-0.458141 12.2529L1.47361 12.6201Q2.07768 9.44232 2.99695 7.25287Q3.91368 5.06944 5.18897 3.7584Q6.44282 2.46939 8.15324 1.9262Q9.97176 1.34868 12.4473 1.55497Q14.5827 1.73029 15.9082 2.94173Q17.1161 4.04578 17.6945 6.01621Q18.2443 7.8893 18.1736 10.32Q18.1088 12.5501 17.5449 14.8058L17.5429 14.8053Q17.5069 14.9486 17.4996 15.0961Q17.4923 15.2437 17.5139 15.3898Q17.5355 15.536 17.5852 15.6751Q17.6349 15.8142 17.7108 15.941Q17.7867 16.0677 17.8858 16.1773Q17.985 16.2868 18.1036 16.3748Q18.2223 16.4629 18.3558 16.5261Q18.4893 16.5894 18.6326 16.6253Q18.7759 16.6613 18.9234 16.6686Q19.071 16.6759 19.2171 16.6543Q19.3633 16.6327 19.5024 16.583Q19.6415 16.5333 19.7683 16.4574Q19.895 16.3815 20.0046 16.2824Q20.1141 16.1832 20.2021 16.0646Q20.2902 15.946 20.3534 15.8125Q20.4167 15.6789 20.4526 15.5356L17.9894 14.9173Z " /><path  id="圆形 3" style="stroke:#050B1E; stroke-width:3; stroke-opacity:1; stroke-dasharray:0 0" transform="translate(65.9968169902454 69.02743706167709)  rotate(-0.6520228113341986 9.841101707415902 7.585230248028926)" d="" /><path id="矩形 1" fill-rule="evenodd" style="fill:#43CF7C" transform="translate(82 95.09067931252096)  rotate(-13.964937237537256 1 3.5)" opacity="1" d="M0,1L0,6C0,6.27 0.11,6.52 0.29,6.71C0.48,6.89 0.73,7 1,7L1,7C1.27,7 1.52,6.89 1.71,6.71C1.89,6.52 2,6.27 2,6L2,1C2,0.73 1.89,0.48 1.71,0.29C1.52,0.11 1.27,0 1,0L1,0C0.73,0 0.48,0.11 0.29,0.29C0.11,0.48 0,0.73 0,1Z " /><path id="矩形 1" fill-rule="evenodd" style="fill:#43CF7C" transform="translate(19 82.09067931252096)  rotate(32.46048327286001 1 3.5)" opacity="1" d="M0,1L0,6C0,6.27 0.11,6.52 0.29,6.71C0.48,6.89 0.73,7 1,7L1,7C1.27,7 1.52,6.89 1.71,6.71C1.89,6.52 2,6.27 2,6L2,1C2,0.73 1.89,0.48 1.71,0.29C1.52,0.11 1.27,0 1,0L1,0C0.73,0 0.48,0.11 0.29,0.29C0.11,0.48 0,0.73 0,1Z " /><path id="矩形 1" fill-rule="evenodd" style="fill:#43CF7C" transform="translate(89 93.09067931252096)  rotate(-42.894116442121 1 2)" opacity="1" d="M0,1L0,3C0,3.27 0.11,3.52 0.29,3.71C0.48,3.89 0.73,4 1,4L1,4C1.27,4 1.52,3.89 1.71,3.71C1.89,3.52 2,3.27 2,3L2,1C2,0.73 1.89,0.48 1.71,0.29C1.52,0.11 1.27,0 1,0L1,0C0.73,0 0.48,0.11 0.29,0.29C0.11,0.48 0,0.73 0,1Z " /><path id="矩形 1" fill-rule="evenodd" style="fill:#43CF7C" transform="translate(22 84.09067931252096)  rotate(8.321511925124973 1 2.5)" opacity="1" d="M0,1L0,4C0,4.27 0.11,4.52 0.29,4.71C0.48,4.89 0.73,5 1,5L1,5C1.27,5 1.52,4.89 1.71,4.71C1.89,4.52 2,4.27 2,4L2,1C2,0.73 1.89,0.48 1.71,0.29C1.52,0.11 1.27,0 1,0L1,0C0.73,0 0.48,0.11 0.29,0.29C0.11,0.48 0,0.73 0,1Z " /><path id="矩形 1" fill-rule="evenodd" style="fill:#43CF7C" transform="translate(75 95.09067931252096)  rotate(2.6647986595975155 1 4)" opacity="1" d="M0,1L0,7C0,7.27 0.11,7.52 0.29,7.71C0.48,7.89 0.73,8 1,8L1,8C1.27,8 1.52,7.89 1.71,7.71C1.89,7.52 2,7.27 2,7L2,1C2,0.73 1.89,0.48 1.71,0.29C1.52,0.11 1.27,0 1,0L1,0C0.73,0 0.48,0.11 0.29,0.29C0.11,0.48 0,0.73 0,1Z " /><path id="矩形 1" fill-rule="evenodd" style="fill:#43CF7C" transform="translate(17 79.0906793125209)  rotate(43.320329328122654 1 3.5)" opacity="1" d="M0,1L0,6C0,6.27 0.11,6.52 0.29,6.71C0.48,6.89 0.73,7 1,7L1,7C1.27,7 1.52,6.89 1.71,6.71C1.89,6.52 2,6.27 2,6L2,1C2,0.73 1.89,0.48 1.71,0.29C1.52,0.11 1.27,0 1,0L1,0C0.73,0 0.48,0.11 0.29,0.29C0.11,0.48 0,0.73 0,1Z " /><path id="矩形 2" fill-rule="evenodd" style="fill:#43CF7C" transform="translate(79.00222884719801 119.09014857278058)  rotate(-16.29373527334579 3.5 16)" opacity="1" d="M3.5,32L3.5,32C4.43,32 5.32,31.63 5.97,30.97C6.63,30.32 7,29.43 7,28.5L7,0L0,0L0,28.5C0,29.43 0.37,30.32 1.03,30.97C1.68,31.63 2.57,32 3.5,32Z " /><path id="圆形 5" fill-rule="evenodd" style="fill:#43CF7C" transform="translate(69 113.09067931252096)  rotate(-15.987125320389364 8.5 4)" opacity="1" d="M8.5,0C3.81,0 0,1.79 0,4C0,6.21 3.81,8 8.5,8C13.19,8 17,6.21 17,4C17,1.79 13.19,0 8.5,0Z " /><path  id="并集" style="stroke:#43CF7C; stroke-width:3; stroke-opacity:1; stroke-dasharray:0 0" transform="translate(70.25610773866606 110.58796030745694)  rotate(0 10.486163139343262 18.520023345947266)" d="M0.0748705 6.84327C-0.533811 4.71874 2.63583 1.94862 7.14444 0.656894C11.653 -0.634832 15.8087 0.036582 16.4174 2.16111C17.0261 4.28563 13.8564 7.05576 9.34781 8.34748C4.8392 9.63921 0.683552 8.96779 0.0748705 6.84327Z M20.5364 35.2181C20.0976 36.034 19.3472 36.6388 18.4545 36.8997C17.5619 37.1606 16.6038 37.0552 15.7948 36.6041C14.9789 36.1654 14.3741 35.4149 14.1132 34.5223L6.67827 9.08661C6.67827 9.08661 8.97936 8.90367 10.3231 8.51088C11.6669 8.1181 13.3971 7.12268 13.3971 7.12268L20.832 32.5583C21.0929 33.451 20.9875 34.409 20.5364 35.2181Z null " /><path  id="圆形 4" style="stroke:#2FAD61; stroke-width:8; stroke-opacity:1; stroke-dasharray:0 0" transform="translate(38.00222884719801 53.59014857278058)  rotate(0 28.5 30)" d="M28.5,0C12.76,0 0,13.43 0,30C0,46.57 12.76,60 28.5,60C44.24,60 57,46.57 57,30C57,13.43 44.24,0 28.5,0Z " /><path  id="圆形 4" style="stroke:#4CE689; stroke-width:3; stroke-opacity:0.27; stroke-dasharray:0 0" transform="translate(37 47.090679312520905)  rotate(0 32.5 33.5)" d="M32.5,0C14.55,0 0,15 0,33.5C0,52 14.55,67 32.5,67C50.45,67 65,52 65,33.5C65,15 50.45,0 32.5,0Z " /><path id="路径 4" fill-rule="evenodd" style="fill:#FFFFFF" transform="translate(68.512228847198 126.02014857278053)  rotate(0 14 10.5)" opacity="1" d="M5.17,0.37C1.83,1.22 -2.06,3.32 1.28,8.37C4.62,13.42 28,21 28,21L20.26,0.37C20.26,0.37 8.51,-0.47 5.17,0.37Z " /><path  id="路径 4" style="stroke:#050B1E; stroke-width:2; stroke-opacity:1; stroke-dasharray:0 0" transform="translate(68.512228847198 126.02014857278053)  rotate(0 14 10.5)" d="M5.17,0.37C1.83,1.22 -2.06,3.32 1.28,8.37C4.62,13.42 28,21 28,21L20.26,0.37C20.26,0.37 8.51,-0.47 5.17,0.37Z " /><path id="圆形 3"  style="fill:#000000" transform="translate(164 102.09067931252096)  rotate(43.9079829974251 1 1)" opacity="100" d="M1.5 2Q1.5 1.38211 1.05895 0.941053Q0.617893 0.5 0 0.5Q-0.0492457 0.5 -0.0975451 0.490392Q-0.145845 0.480785 -0.191342 0.46194Q-0.236839 0.443094 -0.277785 0.415735Q-0.318731 0.388375 -0.353553 0.353553Q-0.388375 0.318731 -0.415735 0.277785Q-0.443094 0.236839 -0.46194 0.191342Q-0.480785 0.145845 -0.490393 0.0975451Q-0.5 0.0492457 -0.5 0Q-0.5 -0.0492457 -0.490393 -0.0975451Q-0.480785 -0.145845 -0.46194 -0.191342Q-0.443094 -0.236839 -0.415735 -0.277785Q-0.388375 -0.318731 -0.353553 -0.353553Q-0.318731 -0.388375 -0.277785 -0.415735Q-0.236839 -0.443094 -0.191342 -0.46194Q-0.145845 -0.480785 -0.0975451 -0.490393Q-0.0492457 -0.5 0 -0.5Q0.506902 -0.5 0.972069 -0.30238Q1.42004 -0.112065 1.76605 0.233946Q2.11207 0.579958 2.30238 1.02793Q2.5 1.4931 2.5 2Q2.5 2.04925 2.49039 2.09754Q2.48078 2.14584 2.46194 2.19134Q2.44309 2.23684 2.41573 2.27778Q2.38838 2.31873 2.35355 2.35355Q2.31873 2.38838 2.27779 2.41573Q2.23684 2.44309 2.19134 2.46194Q2.14584 2.48078 2.09754 2.49039Q2.04925 2.5 2 2.5Q1.95075 2.5 1.90245 2.49039Q1.85416 2.48078 1.80866 2.46194Q1.76316 2.44309 1.72221 2.41573Q1.68127 2.38838 1.64645 2.35355Q1.61162 2.31873 1.58426 2.27779Q1.55691 2.23684 1.53806 2.19134Q1.51921 2.14584 1.50961 2.09754Q1.5 2.04925 1.5 2Z " /><path  id="圆形 3" style="stroke:#43CF7C; stroke-width:1; stroke-opacity:1; stroke-dasharray:0 0" transform="translate(164 102.09067931252096)  rotate(43.9079829974251 1 1)" d="" /><path id="圆形 3"  style="fill:#000000" transform="translate(167 99.09067931252096)  rotate(20.51365031925819 2 3.5)" opacity="100" d="M-0.493821 -0.0783637Q-0.501539 -0.0297278 -0.49962 0.0194792Q-0.497702 0.0686863 -0.486221 0.116574Q-0.47474 0.164461 -0.454137 0.209188Q-0.433534 0.253916 -0.404602 0.293764Q-0.375669 0.333613 -0.339519 0.367052Q-0.303368 0.400491 -0.261389 0.426235Q-0.219409 0.451979 -0.173214 0.469038Q-0.127019 0.486098 -0.0783838 0.493818L-0.0783637 0.493821Q0.94234 0.655842 1.74531 1.27804Q2.50862 1.86952 2.96796 2.78645Q3.42328 3.69535 3.49201 4.74365Q3.56269 5.82163 3.20807 6.83482L4.15193 7.16518Q4.57388 5.95959 4.48987 4.67822Q4.40791 3.4282 3.86204 2.33855Q3.30086 1.21833 2.35782 0.487582Q1.35224 -0.291618 0.0783838 -0.493818L0 0L0.0783637 -0.493821Q0.0297266 -0.501539 -0.0194818 -0.49962Q-0.0686901 -0.497701 -0.116578 -0.486219Q-0.164467 -0.474738 -0.209195 -0.454134Q-0.253923 -0.43353 -0.293773 -0.404596Q-0.333622 -0.375661 -0.367061 -0.339509Q-0.400499 -0.303357 -0.426243 -0.261376Q-0.451986 -0.219394 -0.469044 -0.173198Q-0.486103 -0.127001 -0.493821 -0.0783637ZM4.14788 7.16521Q4.11502 7.25908 4.04874 7.33323Q3.98245 7.40738 3.89284 7.45052Q3.80322 7.49366 3.70392 7.49922Q3.60462 7.50478 3.51075 7.47192Q3.41688 7.43905 3.34273 7.37277Q3.26859 7.30648 3.22545 7.21687Q3.18231 7.12726 3.17675 7.02796Q3.17119 6.92866 3.20405 6.83479L4.14788 7.16521Z " /><path  id="圆形 3" style="stroke:#43CF7C; stroke-width:1; stroke-opacity:1; stroke-dasharray:0 0" transform="translate(167 99.09067931252096)  rotate(20.51365031925819 2 3.5)" d="" /></g></g></g></svg>